<?xml version="1.0" encoding="UTF-8" standalone="no"?>
<svg
   xmlns:dc="http://purl.org/dc/elements/1.1/"
   xmlns:cc="http://creativecommons.org/ns#"
   xmlns:rdf="http://www.w3.org/1999/02/22-rdf-syntax-ns#"
   xmlns:svg="http://www.w3.org/2000/svg"
   xmlns="http://www.w3.org/2000/svg"
   xmlns:sodipodi="http://sodipodi.sourceforge.net/DTD/sodipodi-0.dtd"
   xmlns:inkscape="http://www.inkscape.org/namespaces/inkscape"
   width="148.78137mm"
   height="97.276443mm"
   viewBox="0 0 148.78137 97.276443"
   version="1.1"
   id="svg838"
   inkscape:version="1.0.2 (e86c870879, 2021-01-15, custom)"
   sodipodi:docname="silouette.svg">
  <defs
     id="defs832" />
  <sodipodi:namedview
     id="base"
     pagecolor="#ffffff"
     bordercolor="#666666"
     borderopacity="1.0"
     inkscape:pageopacity="0.0"
     inkscape:pageshadow="2"
     inkscape:zoom="0.49497475"
     inkscape:cx="456.56519"
     inkscape:cy="434.23168"
     inkscape:document-units="mm"
     inkscape:current-layer="layer1"
     inkscape:document-rotation="0"
     showgrid="false"
     fit-margin-top="0"
     fit-margin-left="0"
     fit-margin-right="0"
     fit-margin-bottom="0"
     inkscape:window-width="1920"
     inkscape:window-height="1027"
     inkscape:window-x="1912"
     inkscape:window-y="-8"
     inkscape:window-maximized="1" />
  <metadata
     id="metadata835">
    <rdf:RDF>
      <cc:Work
         rdf:about="">
        <dc:format>image/svg+xml</dc:format>
        <dc:type
           rdf:resource="http://purl.org/dc/dcmitype/StillImage" />
        <dc:title></dc:title>
      </cc:Work>
    </rdf:RDF>
  </metadata>
  <g
     inkscape:label="Layer 1"
     inkscape:groupmode="layer"
     id="layer1"
     transform="translate(-26.304759,-115.14421)">
    <path
       style="fill:#000000;stroke-width:0.254"
       d="m 160.98913,211.65405 c 3.05976,-1.12556 3.937,-1.55636 3.937,-1.93339 0,-0.18833 0.14288,-0.34398 0.3175,-0.34589 0.17463,-0.002 0.57468,-0.0724 0.889,-0.15662 0.45368,-0.12158 0.5715,-0.0481 0.5715,0.35649 0,0.63084 -1.41022,1.33003 -4.47236,2.21741 -2.97869,0.86319 -3.73575,0.77911 -1.24264,-0.138 z m 5.47064,0.58169 c 0.0128,-0.25285 1.95229,-1.5875 2.30693,-1.5875 0.15278,0 0.2084,0.1808 0.12361,0.40177 -0.0848,0.22098 -0.15418,0.44664 -0.15418,0.50148 0,0.0548 -0.33722,0.27409 -0.74938,0.48723 -0.80037,0.41388 -1.5428,0.50968 -1.52698,0.19702 z m 1.00636,-1.83498 c 0,-0.22069 1.28478,-1.02252 1.63839,-1.02252 0.41669,0 0.0386,0.5472 -0.60977,0.88248 -0.87729,0.45366 -1.02862,0.47426 -1.02862,0.14004 z m -4.18077,-0.49798 c -0.092,-0.1488 -0.51174,-0.27054 -0.93284,-0.27054 -0.59471,0 -0.7452,-0.0992 -0.67411,-0.4445 0.0724,-0.35178 0.32295,-0.43366 1.20092,-0.39251 1.37216,0.0643 1.70293,0.35575 1.06202,0.93576 -0.31945,0.28909 -0.54671,0.34861 -0.65599,0.17179 z m -9.53523,-0.24637 c 0.20955,-0.11791 1.4967,-0.5919 2.86033,-1.0533 2.10546,-0.7124 2.45717,-0.90872 2.33239,-1.30189 -0.123,-0.38753 -0.003,-0.46298 0.73839,-0.46298 0.48694,0 1.06614,-0.0694 1.28712,-0.15418 0.30305,-0.11629 0.40177,0.009 0.40177,0.508 0,0.78312 -0.0117,0.78068 1.1312,0.23566 0.8819,-0.42056 1.35547,-0.35766 1.04838,0.13922 -0.34486,0.558 -5.35994,2.52561 -5.66352,2.22202 -0.082,-0.082 0.55031,-0.46509 1.40506,-0.85138 0.85475,-0.38629 1.55787,-0.78807 1.56249,-0.89284 0.0154,-0.34991 -0.71515,-0.19606 -1.6288,0.34301 -0.97792,0.57698 -4.19134,1.49188 -5.22081,1.48641 -0.47753,-0.003 -0.54051,-0.0565 -0.254,-0.21775 z m -22.72096,-1.57423 c 1.39038,-0.85253 3.17616,-2.10983 3.96841,-2.794 0.79224,-0.68417 1.50662,-1.24394 1.5875,-1.24394 0.0809,0 0.14705,0.21611 0.14705,0.48024 0,0.51943 -3.26908,2.89234 -5.94125,4.31254 -2.56794,1.36479 -2.41176,0.87008 0.23829,-0.75484 z m -12.71342,0.7903 c 0.085,-0.13762 0.69166,-0.55926 1.34801,-0.93698 1.86029,-1.07057 4.62453,-2.96068 6.01472,-4.1127 1.22199,-1.01264 1.90965,-1.30499 1.90965,-0.81186 0,0.13019 -0.37147,0.49788 -0.8255,0.81708 -0.45402,0.31921 -1.54785,1.17248 -2.43073,1.89616 -1.84473,1.5121 -6.51558,3.95639 -6.01615,3.1483 z m 49.21883,-0.2851 c -1.15444,-0.53078 -1.68377,-1.2156 -1.43689,-1.85897 0.12944,-0.33732 -0.0554,-0.39152 -1.16961,-0.34304 -1.00539,0.0437 -1.40019,-0.0475 -1.64315,-0.37978 -0.17589,-0.24054 -0.6501,-0.43805 -1.0538,-0.43892 -0.4037,-7.6e-4 -1.06052,-0.17186 -1.45961,-0.38 -0.39909,-0.20814 -2.22789,-0.56416 -4.064,-0.79116 -1.83611,-0.227 -3.71289,-0.58481 -4.17063,-0.79514 -0.50657,-0.23276 -1.17748,-0.32639 -1.7145,-0.23924 -0.48524,0.0787 -0.88226,0.0483 -0.88226,-0.0677 0,-0.41026 -0.67137,-0.45948 -1.65498,-0.12133 -0.8826,0.30343 -1.04994,0.2936 -1.46972,-0.0863 -0.27744,-0.25107 -0.7809,-0.39648 -1.21511,-0.35094 -0.47532,0.0499 -0.79305,-0.0569 -0.88535,-0.29738 -0.18054,-0.47049 -0.66967,-0.40871 -1.23427,0.15589 -0.59206,0.59206 -1.82563,0.55386 -2.3625,-0.0731 -0.45908,-0.53617 -1.07501,-0.65582 -1.47777,-0.28708 -0.36449,0.33371 -2.1163,0.5411 -2.28363,0.27036 -0.0807,-0.13051 -0.56853,-0.24001 -1.08416,-0.24334 -0.51563,-0.003 -1.3426,-0.10029 -1.8377,-0.21545 -0.49511,-0.11517 -1.14907,-0.11734 -1.45323,-0.005 -0.38387,0.142 -0.67698,0.0806 -0.95823,-0.20061 -0.34963,-0.34963 -0.53952,-0.36087 -1.3847,-0.0819 -0.57847,0.19091 -1.53349,0.26627 -2.33258,0.18407 -0.74418,-0.0766 -1.84696,-0.0192 -2.45062,0.1275 -0.83805,0.20364 -1.34743,0.18423 -2.15444,-0.0821 -1.10591,-0.36499 -1.87984,-0.34463 -2.37689,0.0625 -0.18652,0.15278 -0.34989,0.15256 -0.44455,-5.1e-4 -0.17061,-0.27605 -2.16414,-0.0813 -2.59016,0.25309 -0.17186,0.13489 -0.51827,0.0383 -0.889,-0.24792 -0.85087,-0.65688 -1.68617,-0.82943 -1.85723,-0.38366 -0.10906,0.28421 -0.2538,0.30279 -0.661,0.0849 -0.28675,-0.15346 -0.7385,-0.21011 -1.00388,-0.12588 -0.26539,0.0842 -0.7332,0.005 -1.0396,-0.17643 -0.44227,-0.26165 -0.58076,-0.26414 -0.67205,-0.0121 -0.15565,0.4298 -1.52112,0.4043 -1.77452,-0.0331 -0.16131,-0.27845 -0.53376,-0.30481 -1.8092,-0.128 -0.95319,0.13213 -1.78219,0.12837 -2.03934,-0.009 -0.62136,-0.33254 -5.42894,-0.067 -6.6618,0.36802 -0.74618,0.26326 -1.17881,0.29378 -1.52654,0.10769 -0.5227,-0.27984 -0.65695,-0.74992 -0.21413,-0.74992 0.15553,0 0.20238,-0.21658 0.10989,-0.508 -0.18417,-0.58027 -0.18227,-0.58067 2.63743,-0.54711 1.0315,0.0123 1.93538,0.0823 2.00863,0.15551 0.0733,0.0733 0.25963,0.0283 0.41416,-0.1 0.1725,-0.14316 1.04195,-0.10103 2.25223,0.10914 1.0858,0.18855 2.79558,0.28697 3.8064,0.21909 1.00933,-0.0678 3.43534,0.007 5.39114,0.16662 1.9558,0.15941 4.89903,0.26981 6.5405,0.24535 1.90404,-0.0284 2.9845,0.0501 2.9845,0.21672 0,0.1707 0.2698,0.18383 0.77866,0.0379 0.42826,-0.12282 2.34278,-0.22726 4.2545,-0.23208 1.91171,-0.005 4.29522,-0.0836 5.29668,-0.17506 1.00145,-0.0915 2.03015,-0.0794 2.286,0.0268 0.25584,0.1062 1.49386,0.22125 2.75116,0.25565 1.2573,0.0344 3.2004,0.19264 4.318,0.35165 1.1176,0.159 3.23215,0.35937 4.699,0.44526 1.88514,0.11039 2.89039,0.28925 3.429,0.61013 0.73086,0.43541 1.36489,0.5925 2.13784,0.52967 0.55365,-0.045 0.0754,-0.3855 -0.55988,-0.39863 -0.30908,-0.006 -0.59408,-0.12592 -0.63335,-0.26562 -0.1158,-0.41198 1.22197,-0.45174 1.68136,-0.05 0.53298,0.46613 1.7757,0.7274 3.72403,0.78294 1.09516,0.0312 1.90564,0.23824 2.88024,0.73568 0.74593,0.38073 1.45777,0.62948 1.58187,0.55279 0.32738,-0.20233 2.66624,0.5387 3.75128,1.18853 0.51184,0.30654 1.1796,0.86023 1.48391,1.23041 0.30431,0.37018 1.01868,0.88292 1.5875,1.13942 0.56881,0.2565 1.0342,0.54034 1.0342,0.63076 0,0.18118 -1.54736,0.78712 -1.92303,0.75305 -0.12978,-0.0118 -0.71951,-0.24373 -1.31052,-0.51546 z m -25.95528,0.18077 c 0.0582,-0.0561 1.13059,-0.51432 2.38306,-1.01817 2.1621,-0.86976 4.96177,-2.38293 4.96177,-2.68174 0,-0.0763 0.50007,-0.0989 1.11125,-0.0503 0.98207,0.0781 1.11125,0.15988 1.11125,0.70346 0,0.6883 -0.65512,0.9691 -1.87431,0.80336 -0.72468,-0.0985 -0.72552,-0.10069 -0.13536,-0.3512 0.50803,-0.21565 0.54004,-0.29672 0.22153,-0.56106 -0.30224,-0.25083 -0.39555,-0.22009 -0.49583,0.16337 -0.15862,0.60658 -2.106,1.69715 -4.42831,2.47994 -1.58467,0.53415 -3.17318,0.8192 -2.85505,0.51232 z m 5.05883,-0.25121 c 0,-0.0546 1.34303,-0.59216 2.9845,-1.19454 2.27311,-0.83417 2.8425,-1.12888 2.38875,-1.23638 l -0.59575,-0.14115 0.54776,-0.49572 c 0.43848,-0.39682 0.58967,-0.42789 0.75785,-0.15577 0.11556,0.18697 0.32686,0.26778 0.46957,0.17958 0.14272,-0.0882 0.44124,-0.0906 0.6634,-0.005 1.41848,0.54432 -1.08782,2.28377 -3.59812,2.4972 -0.66272,0.0564 -1.52672,0.22598 -1.91999,0.37695 -0.70039,0.26887 -1.69797,0.3718 -1.69797,0.1752 z m 6.096,-0.36094 c 0,-0.57527 1.67632,-1.40572 2.921,-1.44707 0.4191,-0.0139 1.27635,-0.11603 1.905,-0.22691 1.02742,-0.18121 1.10448,-0.16197 0.762,0.19035 -0.20955,0.21557 -0.66675,0.44566 -1.016,0.51131 -0.34925,0.0657 -1.14935,0.34609 -1.778,0.6232 -0.62865,0.27712 -1.51447,0.58167 -1.9685,0.67679 -0.71059,0.14886 -0.8255,0.10325 -0.8255,-0.32767 z m -44.84985,-0.52525 c 0.076,-0.12292 1.22784,-0.88279 2.55972,-1.68861 1.33187,-0.80581 2.38666,-1.50004 2.34397,-1.54273 -0.0427,-0.0427 -0.96559,0.0766 -2.05089,0.26505 -1.45315,0.25234 -2.32277,0.57472 -3.29924,1.22305 -1.27758,0.84827 -2.87503,1.54505 -2.32871,1.01574 0.54046,-0.52362 5.01642,-3.62101 5.23264,-3.62101 0.27563,0 0.30661,0.67591 0.0379,0.8262 -0.10477,0.0586 -0.0191,0.0601 0.1905,0.003 0.20955,-0.0567 0.7239,-0.16994 1.143,-0.25157 0.4191,-0.0816 0.85341,-0.30222 0.96513,-0.49021 0.11171,-0.18799 0.42867,-0.3418 0.70435,-0.3418 0.48654,0 0.48803,0.0203 0.0509,0.69238 l -0.45036,0.69237 0.69052,-0.50187 c 0.37979,-0.27604 0.69411,-0.68451 0.6985,-0.90773 0.005,-0.27487 0.2539,-0.41284 0.76998,-0.42751 0.43148,-0.0123 0.76032,0.10868 0.75812,0.27885 -0.004,0.33344 -0.49404,1.17956 -0.50023,0.86427 -0.002,-0.10903 -0.85924,0.37894 -1.90467,1.0844 -1.71988,1.16056 -5.18132,3.05084 -5.58663,3.05084 -0.0894,0 -0.10041,-0.10057 -0.0244,-0.22349 z m -18.14214,-0.23877 c 0,-0.10462 0.35561,-0.40028 0.79025,-0.65702 0.53464,-0.31583 0.69076,-0.52831 0.48267,-0.65691 -0.18634,-0.11517 0.61821,-0.57384 2.04103,-1.16358 1.40878,-0.58393 2.39312,-1.14372 2.45985,-1.3989 0.1207,-0.46153 1.1007,-1.00044 1.79465,-0.98688 0.58025,0.0113 1.60484,0.88949 1.51803,1.30108 -0.10217,0.48438 0.94596,0.55974 1.40471,0.10099 0.43654,-0.43654 1.70081,-0.54099 1.70081,-0.14052 0,0.1397 0.17145,0.254 0.38099,0.254 0.62214,0 0.43401,0.42572 -0.31749,0.71848 -1.99994,0.7791 -3.42165,1.04731 -3.9642,0.74786 -0.29936,-0.16524 -0.7729,-0.27425 -1.0523,-0.24225 -0.41329,0.0473 -0.35468,-0.0762 0.31434,-0.66232 0.63481,-0.55619 0.75355,-0.78928 0.5207,-1.02213 -0.40086,-0.40086 -0.97862,-0.3864 -0.82245,0.0206 0.078,0.20316 -0.79315,0.80709 -2.35747,1.63439 -2.95157,1.56094 -4.89412,2.41555 -4.89412,2.15311 z m 50.54599,-0.0186 c 0,-0.15465 0.14288,-0.28921 0.3175,-0.29903 0.17463,-0.01 0.1007,-0.10293 -0.16429,-0.20691 -0.42217,-0.16565 -0.36579,-0.25749 0.45549,-0.74206 1.17488,-0.6932 2.1853,-0.96355 2.1853,-0.58471 0,0.15484 0.28575,0.28153 0.635,0.28153 1.2345,0 0.6347,0.65585 -0.99758,1.09079 -0.89791,0.23926 -1.81231,0.50399 -2.032,0.58829 -0.21968,0.0843 -0.39942,0.0267 -0.39942,-0.1279 z m -4.88309,-0.47808 c 0.24799,-0.24799 1.01952,-0.70147 1.7145,-1.00771 0.99932,-0.44036 1.13079,-0.56043 0.62859,-0.5741 -0.60879,-0.0166 -0.61403,-0.03 -0.127,-0.32579 0.2794,-0.16967 0.508,-0.47995 0.508,-0.6895 0,-0.47358 1.14194,-0.6667 1.40693,-0.23793 0.15206,0.24603 0.46249,0.22615 1.42573,-0.0913 0.68969,-0.22729 1.32798,-0.30951 1.45103,-0.1869 0.34871,0.34747 -1.76787,1.56061 -4.53769,2.60084 -2.9081,1.09216 -3.08696,1.12926 -2.47009,0.51239 z m -20.19197,-0.60298 c 0.66767,-0.43665 1.17881,-0.82904 1.13587,-0.87198 -0.0429,-0.0429 -0.48877,0.0146 -0.99073,0.12778 -0.79398,0.17907 -0.89776,0.1488 -0.79798,-0.23273 0.0631,-0.24121 0.5497,-0.68305 1.08138,-0.98187 1.14703,-0.64467 1.27852,-0.66175 1.27852,-0.16602 0,0.31691 0.20475,0.29659 1.27941,-0.127 1.54215,-0.60786 1.57337,-0.61001 1.46972,-0.10105 -0.0452,0.22179 -1.16367,1.02189 -2.48555,1.778 -2.58365,1.47784 -3.9695,1.88211 -1.97064,0.57487 z m 9.83506,0.30381 c 0,-0.13315 0.37585,-0.42044 0.83521,-0.63842 0.54075,-0.2566 0.85016,-0.59488 0.87763,-0.95951 0.0571,-0.75747 0.80493,-1.26865 1.62268,-1.10911 0.36768,0.0717 0.74703,0.0519 0.843,-0.0441 0.096,-0.096 0.50951,-0.19134 0.91898,-0.21193 0.56141,-0.0282 0.7445,0.075 0.7445,0.41966 0,0.25142 -0.14287,0.52274 -0.3175,0.60294 -0.17462,0.0802 -0.0317,0.0762 0.3175,-0.009 0.34925,-0.0851 0.81545,-0.31262 1.036,-0.50565 0.22055,-0.19303 0.47773,-0.35096 0.5715,-0.35096 0.26489,0 0.20068,0.96737 -0.0755,1.13808 -0.46053,0.28463 -3.94198,1.13591 -4.70696,1.15094 -0.4191,0.008 -1.04775,0.17833 -1.397,0.37798 -0.74168,0.42399 -1.27,0.48178 -1.27,0.13892 z m -67.58738,-0.36474 c 0.18397,-0.22168 0.72169,-0.64235 1.19494,-0.93483 0.90097,-0.55683 1.18106,-1.16286 0.41595,-0.89997 -0.24448,0.084 -0.0488,-0.18952 0.4349,-0.60783 0.48367,-0.4183 0.71227,-0.75252 0.508,-0.7427 -0.47364,0.0228 -1.47181,0.44583 -1.1334,0.48038 0.73355,0.0749 -0.89071,0.77177 -1.79881,0.77177 -0.5867,0 -1.56497,0.22609 -2.17396,0.50242 -1.74093,0.78997 -1.97951,0.59883 -0.46046,-0.36892 l 1.38523,-0.8825 -1.143,-0.0357 c -1.70249,-0.0533 -2.02425,0.015 -2.55014,0.54088 -0.56415,0.56415 -3.00048,0.68393 -2.53636,0.1247 0.14085,-0.16972 0.19016,-0.3745 0.10957,-0.45509 -0.0806,-0.0806 0.68804,-0.60736 1.70805,-1.17061 1.85757,-1.02575 2.35088,-1.14432 1.75031,-0.42068 -0.2872,0.34606 -0.20754,0.34671 0.75774,0.006 1.39842,-0.49339 1.58862,-0.48003 1.40494,0.0987 -0.12715,0.40061 0.005,0.49849 0.80838,0.59634 0.75872,0.0925 1.18357,-0.0349 2.02227,-0.60628 0.58397,-0.39784 1.1269,-0.72334 1.2065,-0.72334 0.25186,0 0.15619,0.71582 -0.1075,0.80433 -0.13873,0.0466 0.32116,0.0931 1.02198,0.10335 0.70082,0.0103 1.40123,0.14569 1.55646,0.30093 0.207,0.20699 0.43615,0.18141 0.8595,-0.096 0.88943,-0.58278 0.9905,0.0178 0.12549,0.74565 -0.9823,0.82656 -3.50128,2.35281 -4.7315,2.86683 -0.88298,0.36893 -0.9397,0.36911 -0.63508,0.002 z m -26.049671,-0.0917 c 0.273354,-0.43788 5.786607,-2.96252 5.955021,-2.72694 0.270522,0.37841 1.334055,0.25852 2.416547,-0.27242 0.77933,-0.38225 1.007712,-0.4095 1.174198,-0.14012 0.163441,0.26446 0.32448,0.27139 0.769672,0.0331 0.489808,-0.26214 0.551578,-0.24207 0.47522,0.15443 -0.06051,0.31422 -0.639371,0.63227 -1.864183,1.02427 -1.895095,0.60653 -2.782198,0.73459 -2.556265,0.36903 0.07652,-0.12382 -0.108223,-0.28981 -0.410546,-0.36887 -0.344286,-0.09 -1.538908,0.27882 -3.197073,0.98712 -2.781605,1.1882 -2.953921,1.24686 -2.762591,0.94037 z m 12.357898,-0.44551 c 0.174373,-0.21011 1.017044,-0.79974 1.872601,-1.31028 0.855557,-0.51054 1.747392,-1.09189 1.981856,-1.29188 0.496446,-0.42345 1.478706,-0.20733 1.478706,0.32535 0,0.38398 -0.85929,0.95286 -1.09032,0.72183 -0.14728,-0.14727 -2.360776,0.89479 -3.303987,1.55545 -0.747441,0.52352 -1.373476,0.52321 -0.938856,-5.1e-4 z M 73.48614,205.853 c 0,-0.12275 0.37147,-0.36809 0.8255,-0.5452 0.45402,-0.1771 1.93629,-0.87677 3.29393,-1.55481 2.54614,-1.27161 3.24657,-1.46762 3.24657,-0.90855 0,0.55937 -2.0147,1.66142 -4.5005,2.46179 -2.58601,0.83263 -2.8655,0.88596 -2.8655,0.54677 z m 11.28804,-0.16589 c 0.27118,-0.20511 0.61408,-0.38432 0.762,-0.39824 0.14793,-0.0139 -0.0167,-0.10477 -0.36579,-0.20189 -0.61506,-0.1711 -0.59931,-0.1978 0.508,-0.86133 0.98101,-0.58784 1.18215,-0.63187 1.42113,-0.31105 0.23825,0.31981 0.53127,0.24633 2.032,-0.50957 2.01376,-1.01431 2.63739,-1.0889 3.15062,-0.37684 0.20138,0.2794 0.51499,0.508 0.69692,0.508 0.6136,0 -0.46454,1.27221 -1.41451,1.66913 -1.32817,0.55495 -1.44392,0.34635 -0.43511,-0.7841 1.30895,-1.46679 0.67242,-1.4119 -2.80721,0.24209 -1.63481,0.77708 -3.21285,1.40924 -3.50674,1.4048 -0.52447,-0.008 -0.52524,-0.015 -0.0413,-0.381 z m 34.43195,-0.21113 c 0.62865,-0.31924 1.5294,-0.81982 2.00167,-1.11241 0.47226,-0.29259 1.04376,-0.47337 1.27,-0.40172 0.33217,0.10519 0.3431,0.0817 0.0568,-0.12206 -0.50693,-0.36081 -0.14827,-1.06708 0.53704,-1.05752 0.85954,0.012 1.64973,0.67426 1.26432,1.05967 -0.23579,0.2358 -0.37211,0.23559 -0.60865,-0.001 -0.42246,-0.42247 -0.83957,-0.38454 -0.48391,0.044 0.63438,0.76439 -0.51375,1.66297 -2.3315,1.82473 -0.44923,0.04 -1.27399,0.13433 -1.83279,0.20968 l -1.016,0.137 1.143,-0.58043 z m -88.328494,-0.68371 c 1.082675,-0.58351 1.9685,-1.16199 1.9685,-1.2855 0,-0.30516 -0.440846,-0.28473 -0.635,0.0294 -0.08634,0.1397 -0.328431,0.254 -0.537981,0.254 -0.20955,0 -0.324646,-0.0912 -0.255769,-0.20263 0.06888,-0.11144 0.01847,-0.36862 -0.11201,-0.5715 -0.207008,-0.32187 -0.267866,-0.32123 -0.477576,0.005 -0.206208,0.3208 -0.26409,0.31198 -0.407615,-0.062 -0.092,-0.23975 -0.26881,-0.37317 -0.392903,-0.29648 -0.520443,0.32166 -2.793221,0.78618 -2.91135,0.59504 -0.170009,-0.27508 1.355995,-1.05612 1.676474,-0.85805 0.137144,0.0848 0.581706,-0.17825 0.987917,-0.58446 l 0.738565,-0.73856 -0.931876,0.0852 c -1.122731,0.10262 -3.366494,-0.44501 -3.279812,-0.80049 0.03407,-0.1397 0.233386,-0.23143 0.442936,-0.20384 1.229659,0.16191 5.883231,0.2874 5.750917,0.15509 -0.08718,-0.0872 -0.03233,-0.31055 0.121893,-0.49638 0.322434,-0.3885 -0.09592,-0.64242 -0.929524,-0.56416 -1.014577,0.0953 -1.387286,-0.0422 -1.387286,-0.51177 0,-0.3893 0.196621,-0.48077 1.059043,-0.49267 1.386676,-0.0191 3.258957,-0.58049 3.258957,-0.9771 0,-0.17211 0.142875,-0.40433 0.3175,-0.51605 0.174625,-0.11172 0.444677,-0.43172 0.600115,-0.71112 0.244912,-0.44023 0.542127,-0.50709 2.227912,-0.50121 1.414079,0.005 1.913262,-0.0767 1.827984,-0.29893 -0.183746,-0.47884 0.547332,-0.92994 1.841564,-1.13633 2.265351,-0.36124 3.628212,-0.72224 4.176547,-1.10631 0.30768,-0.2155 1.090742,-0.38622 1.771578,-0.38622 1.109154,0 1.325144,-0.10498 2.373964,-1.1538 0.99993,-0.99992 1.29544,-1.15404 2.21582,-1.15561 0.58411,-0.001 1.57387,-0.0247 2.19946,-0.0527 0.8371,-0.0374 1.15718,0.0497 1.21216,0.33011 0.06,0.30611 -0.23842,0.381 -1.51844,0.381 -2.266,0 -4.08503,0.91353 -3.82199,1.91943 0.10983,0.41999 -0.005,0.49357 -0.76849,0.49357 -1.443602,0 -3.20528,0.88166 -3.510363,1.75683 -0.271968,0.78016 -2.299019,2.04789 -2.467515,1.54319 -0.04686,-0.14035 -0.216476,-0.17405 -0.376932,-0.0749 -0.604274,0.37346 -2.32891,0.29069 -2.813483,-0.13503 -0.357272,-0.31388 -0.510281,-0.34114 -0.592667,-0.10561 -0.06108,0.17462 -0.222578,0.3175 -0.358881,0.3175 -0.136303,0 -0.177182,-0.1143 -0.09084,-0.254 0.197163,-0.31902 -0.513285,-0.32629 -1.594078,-0.0163 -0.514534,0.14756 -0.773034,0.14756 -0.681833,0 0.08079,-0.13072 0.0449,-0.23767 -0.07977,-0.23767 -0.432545,0 -0.55934,0.33616 -0.261953,0.69449 0.20685,0.24924 0.216023,0.41296 0.02977,0.53137 -0.446546,0.28389 0.09226,1.31414 0.687285,1.31414 0.290839,0 0.858782,0.17064 1.262095,0.3792 0.403313,0.20856 0.913443,0.31008 1.133621,0.22559 0.220178,-0.0845 0.563183,-0.0185 0.762233,0.14673 0.24557,0.20381 0.754847,0.23808 1.584265,0.1066 0.672297,-0.10657 1.42492,-0.16418 1.672498,-0.12802 0.260981,0.0381 0.421086,-0.0748 0.381,-0.26868 -0.04533,-0.21926 0.25885,-0.36157 0.883359,-0.41325 0.80452,-0.0666 0.9525,-0.001 0.9525,0.42072 0,0.39129 0.122439,0.46753 0.564949,0.35181 0.310722,-0.0813 0.425022,-0.19438 0.254,-0.25139 -0.171022,-0.057 -0.310949,-0.2789 -0.310949,-0.4931 0,-0.27993 0.160726,-0.34639 0.5715,-0.2363 0.314325,0.0842 0.721121,0.15471 0.903991,0.15662 0.182868,0.002 0.266048,0.11098 0.184838,0.24238 -0.088,0.14234 0.65028,0.22623 1.82651,0.20754 1.08579,-0.0172 3.74581,0.0495 5.91116,0.14823 2.16535,0.0988 4.10845,0.18421 4.318,0.18983 0.20955,0.006 0.67728,-0.0642 1.03941,-0.15509 0.45565,-0.11441 0.79405,-0.0297 1.09885,0.27512 0.38879,0.38879 0.82499,0.42334 3.71963,0.2946 1.91145,-0.085 3.33985,-0.0477 3.42464,0.0895 0.08,0.12944 0.41771,0.23535 0.75047,0.23535 0.33276,0 0.67566,0.1143 0.762,0.254 0.0863,0.1397 0.33568,0.254 0.55409,0.254 0.32419,0 0.33905,-0.07 0.0809,-0.381 -0.27767,-0.33458 0.0107,-0.381 2.36691,-0.381 1.47571,0 2.74275,0.0965 2.81563,0.21443 0.11911,0.19271 14.65156,0.2113 15.26446,0.0195 0.1397,-0.0437 0.88935,0.006 1.66589,0.10949 0.77702,0.10399 1.90465,0.0782 2.50777,-0.0573 1.17645,-0.26433 1.79534,-0.15538 1.79534,0.31608 0,0.34981 -1.96281,1.24848 -2.28795,1.04754 -0.12429,-0.0768 -0.7402,-0.0102 -1.36868,0.14806 -1.02282,0.25755 -1.22147,0.23163 -1.89374,-0.24706 -0.9585,-0.68252 -1.01077,-0.67638 -2.05166,0.24096 -0.54474,0.48008 -1.02049,0.70653 -1.27,0.60451 -1.08819,-0.44497 -4.5236,-0.62984 -6.06561,-0.32641 -1.42835,0.28106 -1.69366,0.26634 -2.4396,-0.13537 -0.57098,-0.3075 -1.27765,-0.43032 -2.22373,-0.3865 -0.76273,0.0353 -1.509,-0.0113 -1.65838,-0.10362 -0.14938,-0.0923 -1.05641,-0.072 -2.01562,0.0452 -1.87304,0.22883 -3.56726,0.11822 -3.79337,-0.24764 -0.18758,-0.30351 -1.18923,-0.28577 -2.03572,0.0361 -0.65986,0.25088 -0.66865,0.27715 -0.20704,0.61843 0.45414,0.33576 0.42526,0.38036 -0.49785,0.76888 -0.53898,0.22684 -0.928,0.4644 -0.8645,0.5279 0.0635,0.0635 0.52938,-0.0575 1.03529,-0.26888 1.0837,-0.4528 1.19016,-0.46479 1.19016,-0.134 0,0.27703 -2.75695,1.73338 -3.90499,2.0628 -0.71315,0.20463 -0.71957,0.19794 -0.27814,-0.28984 0.57526,-0.63565 0.35519,-0.63005 -0.92596,0.0236 -1.4545,0.74203 -1.82619,0.46615 -0.46823,-0.34755 0.94578,-0.56671 1.03305,-0.67888 0.52972,-0.68089 -0.51891,-0.002 -0.5566,-0.0578 -0.27139,-0.40149 0.51939,-0.62583 1.82406,-1.08775 2.33449,-0.82652 0.27527,0.14088 0.6379,0.12398 0.9525,-0.0444 1.26092,-0.67482 0.17058,-1.11468 -2.53543,-1.02282 -1.05026,0.0356 -2.19532,0.0705 -2.54457,0.0775 -0.80233,0.016 -7.23683,-0.33798 -8.255,-0.45413 -2.69794,-0.30776 -3.59182,-0.50728 -3.87412,-0.86473 -0.28711,-0.36353 -0.30376,-0.36137 -0.1708,0.0222 0.20517,0.5919 -0.65324,0.99497 -2.193689,1.03005 -0.69536,0.0159 -1.38426,0.17336 -1.530891,0.35004 -0.419559,0.50554 -1.716884,0.68551 -2.525895,0.35041 -0.574439,-0.23795 -1.019794,-0.23734 -2.020614,0.003 -1.010597,0.24243 -1.363647,0.24167 -1.65915,-0.004 -0.296971,-0.24646 -0.539571,-0.24353 -1.161441,0.0141 -0.67175,0.27825 -0.890255,0.26405 -1.502552,-0.0976 -0.715054,-0.4224 -0.717631,-0.4214 -1.284842,0.49637 -0.451025,0.72977 -1.097812,1.17405 -3.133177,2.15218 -3.290494,1.58131 -4.802252,1.91883 -2.120327,0.4734 z m 3.372221,-1.96903 c -0.0782,-0.0782 -0.283158,-1.6e-4 -0.455454,0.17343 -0.248988,0.25086 -0.219813,0.28003 0.142188,0.14219 0.2505,-0.0954 0.39147,-0.23741 0.313266,-0.31562 z m -0.81102,-0.76308 c 0.101745,0.24663 0.243879,0.20124 0.547887,-0.17497 0.389454,-0.48196 0.376141,-0.51223 -0.259679,-0.59046 -0.424867,-0.0523 -0.798764,0.0872 -1.021466,0.381 -0.515792,0.68049 -0.442902,0.99148 0.114215,0.4873 0.374929,-0.33931 0.5121,-0.3621 0.619043,-0.10287 z m 2.455299,-0.71259 c 0,-0.0536 -0.2286,-0.0974 -0.508,-0.0974 -0.2794,0 -0.508,0.1036 -0.508,0.23022 0,0.12662 0.2286,0.17044 0.508,0.0974 0.2794,-0.0731 0.508,-0.17667 0.508,-0.23022 z m -4.318,-0.0974 c 0,-0.1397 -0.0504,-0.254 -0.11201,-0.254 -0.06161,0 -0.182651,0.1143 -0.26899,0.254 -0.08634,0.1397 -0.03594,0.254 0.11201,0.254 0.147944,0 0.26899,-0.1143 0.26899,-0.254 z m 7.493,0 c -0.08634,-0.1397 -0.321685,-0.254 -0.52299,-0.254 -0.201306,0 -0.36601,0.1143 -0.36601,0.254 0,0.1397 0.235346,0.254 0.52299,0.254 0.287645,0 0.452349,-0.1143 0.36601,-0.254 z m 4.620268,-0.9254 c -0.07241,-0.0724 -0.398638,-0.0851 -0.724959,-0.0282 l -0.593309,0.10347 0.635,0.26716 c 0.577443,0.24295 1.037891,0.0122 0.683268,-0.34245 z m -3.667768,-0.25882 c -0.174625,-0.0705 -0.460375,-0.0705 -0.635,0 -0.174625,0.0705 -0.03175,0.12812 0.3175,0.12812 0.34925,0 0.492125,-0.0577 0.3175,-0.12812 z m 3.669688,-4.37517 c 0.264621,-0.42373 0.209039,-0.49746 -0.478651,-0.635 -0.42792,-0.0856 -1.071052,-0.15561 -1.429181,-0.15561 h -0.651145 l 0.517306,0.48194 c 0.439609,0.40956 0.777078,0.56828 1.612884,0.7586 0.07117,0.0162 0.264125,-0.18627 0.428787,-0.44993 z m 26.372516,9.86654 c 0.0766,-0.124 0.93516,-0.64365 1.90782,-1.15477 0.97266,-0.51112 1.76848,-1.03463 1.76848,-1.16335 0,-0.2575 -1.74931,-0.0106 -2.159,0.3047 -0.36134,0.27809 -3.62789,1.06897 -3.95914,0.95856 -0.15193,-0.0506 0.27667,-0.3531 0.95245,-0.67212 0.67578,-0.31902 1.4427,-0.69687 1.70426,-0.83967 1.14335,-0.62417 4.98543,-0.55904 4.98543,0.0845 0,0.15289 -0.20003,0.43293 -0.4445,0.6223 -0.3181,0.2464 -0.16414,0.23136 0.54142,-0.0529 0.68841,-0.27732 1.06639,-0.31672 1.25255,-0.13055 0.18617,0.18616 -0.32717,0.54097 -1.70112,1.17578 -2.15426,0.99532 -3.59923,1.12878 -1.74385,0.16106 0.59372,-0.30968 1.0795,-0.6198 1.0795,-0.68916 0,-0.0694 -0.54293,0.14862 -1.2065,0.48441 -1.37138,0.69397 -3.18689,1.2495 -2.9778,0.91118 z m 34.04014,0.0147 c -0.36587,-0.12833 0.004,-0.3506 1.47736,-0.888 1.30232,-0.47498 2.05056,-0.63164 2.21785,-0.46434 0.1673,0.16729 0.14173,0.34378 -0.0758,0.52313 -0.52213,0.4305 -3.08331,1.01727 -3.61942,0.82921 z m 28.06578,0.0283 c 0.21484,-0.13808 0.98636,-0.48588 1.7145,-0.77288 1.03245,-0.40696 1.32387,-0.44556 1.32387,-0.17535 0,0.40655 -0.98421,0.83375 -2.413,1.04738 -0.71785,0.10734 -0.90137,0.0782 -0.62537,-0.0992 z m -90.687624,-1.35149 c 0.90805,-0.5833 1.9939,-1.09066 2.413,-1.12748 1.507882,-0.13245 3.211304,-0.70238 3.453851,-1.15558 0.469446,-0.87717 2.769153,-0.23378 2.769153,0.77472 0,0.40501 -0.38787,0.35752 -0.762,-0.0933 -0.39158,-0.47182 -0.97671,-0.48795 -1.504,-0.0414 -0.454364,0.38475 -3.5118,1.43844 -4.173854,1.43844 -0.239271,0 -0.998938,0.28575 -1.68815,0.635 -1.991123,1.00898 -2.317829,0.7322 -0.508,-0.43037 z m 38.608004,0.69313 c 0,-0.065 0.31432,-0.43651 0.6985,-0.8255 0.65438,-0.66259 0.77469,-0.69254 1.905,-0.47419 0.66357,0.12819 1.2065,0.36573 1.2065,0.52787 0,0.16215 -0.58022,0.42874 -1.28938,0.59243 -1.32055,0.30482 -2.52062,0.39023 -2.52062,0.17939 z m 64.81855,-0.16004 c 0.16653,-0.50762 1.90874,-0.91403 2.28884,-0.53393 0.41188,0.41188 0.21632,0.53123 -1.18521,0.72333 -0.98485,0.13499 -1.19806,0.0984 -1.10363,-0.1894 z m -41.95856,-0.17089 c 0,-0.10734 0.31433,-0.39005 0.6985,-0.62824 0.51523,-0.31944 0.58187,-0.43485 0.254,-0.43983 -0.61123,-0.009 -0.55706,-0.40711 0.12002,-0.88136 0.74545,-0.52213 1.31374,-0.51503 1.11078,0.0139 -0.12045,0.31387 -0.0528,0.3665 0.29032,0.22578 0.73693,-0.30225 1.21344,-0.27419 1.14456,0.0674 -0.0658,0.3261 0.32968,0.20305 2.2884,-0.71212 0.80009,-0.37383 1.18268,-0.15974 0.79966,0.44747 -0.30418,0.48222 -2.29702,1.20857 -4.75434,1.73285 -2.02227,0.43147 -1.9519,0.42519 -1.9519,0.17418 z m 31.4325,-0.98863 c -0.95431,-0.50266 -0.8767,-0.8482 0.1905,-0.8482 0.48895,0 0.889,0.10495 0.889,0.23322 0,0.12828 0.0694,0.41403 0.15418,0.635 0.18925,0.49319 -0.27358,0.48568 -1.23368,-0.02 z m -50.14084,-0.47816 c -0.1959,-0.51048 -0.1704,-0.52502 1.24585,-0.7104 0.95579,-0.12511 1.2065,-0.0816 1.2065,0.20928 0,0.80936 -2.16436,1.25163 -2.45235,0.50112 z m -46.545626,-0.0434 c -0.233157,-0.0923 -0.01921,-0.30556 0.616855,-0.61494 1.158162,-0.56334 1.391117,-0.58569 1.391117,-0.13345 0,0.18712 -0.291128,0.47287 -0.646951,0.635 -0.698585,0.31829 -0.818101,0.32825 -1.361021,0.11339 z m 128.906516,-1.59655 c -0.40505,-0.25895 -1.31945,-0.5424 -2.032,-0.62988 -2.10053,-0.25788 -2.69255,-0.41058 -2.69255,-0.69448 0,-0.55014 3.40312,-0.0617 4.9194,0.70605 0.78683,0.39841 1.4306,0.81481 1.4306,0.92532 0,0.34596 -0.85737,0.18402 -1.62545,-0.30701 z m -29.42605,-1.41303 c -0.44219,-0.45424 -0.10605,-0.61929 1.27,-0.62358 0.80328,-0.003 2.54635,-0.17926 3.8735,-0.39278 1.32715,-0.21353 2.83618,-0.45439 3.3534,-0.53527 0.51722,-0.0809 1.14587,-0.0586 1.397,0.0495 0.25113,0.10812 1.22212,0.1696 2.15774,0.13664 1.70756,-0.0602 5.28386,0.45921 5.28386,0.76734 0,0.0906 -1.57162,0.1515 -3.4925,0.13539 -2.47349,-0.0208 -3.73747,0.074 -4.33213,0.32487 -0.64754,0.27314 -0.90855,0.28525 -1.14088,0.0529 -0.23232,-0.23233 -0.21456,-0.36074 0.0776,-0.56131 0.30084,-0.20649 0.27207,-0.23041 -0.1397,-0.1161 -1.78898,0.49662 -8.01082,1.06754 -8.30793,0.76234 z m -27.00511,-0.90153 c -0.32968,-0.53342 0.35239,-0.7571 2.07479,-0.6804 1.52271,0.0678 1.66946,0.11457 1.11782,0.35628 -0.98175,0.43016 -3.00042,0.6351 -3.19261,0.32412 z m -17.74083,-0.1616 c -0.34377,-0.34378 0.25322,-0.57189 1.49666,-0.57189 1.46265,0 2.16479,0.17331 2.16479,0.53433 0,0.23661 -3.42724,0.27176 -3.66145,0.0376 z m 25.63244,0.0268 c -0.2794,-0.0608 -0.76984,-0.16654 -1.08988,-0.23505 -1.42721,-0.3055 -0.0511,-0.52826 3.15202,-0.51025 2.54657,0.0143 3.51191,0.10498 3.58932,0.33709 0.0769,0.23069 -0.33395,0.32182 -1.50279,0.3333 -0.88477,0.009 -2.06587,0.054 -2.62467,0.1006 -0.5588,0.0466 -1.2446,0.0351 -1.524,-0.0257 z m -46.35499,-0.28006 c -0.90805,-0.0503 -1.75926,-0.19942 -1.89158,-0.33134 -0.15096,-0.15052 1.46052,-0.23572 4.32603,-0.22872 2.51163,0.006 5.04877,-0.066 5.63807,-0.16018 0.85529,-0.13677 1.07148,-0.0952 1.07148,0.20594 0,0.62904 -3.50987,0.82645 -9.144,0.5143 z m -12.55285,-0.25515 c -0.10533,-0.10478 -0.75145,-0.1905 -1.43583,-0.1905 -1.31023,0 -1.75225,-0.44817 -0.58411,-0.59224 0.94807,-0.11694 2.1996,0.14739 2.78116,0.58739 0.47808,0.36171 0.4772,0.36987 -0.0405,0.37777 -0.29104,0.004 -0.61535,-0.0776 -0.72068,-0.18242 z m 8.37269,-0.046 c -0.2209,-0.35742 0.30536,-0.58035 0.91399,-0.38718 0.42391,0.13455 0.46418,0.21873 0.18823,0.39351 -0.45977,0.29119 -0.91997,0.28855 -1.10222,-0.006 z m 14.45348,-0.29368 c -0.0939,-0.15188 -0.0483,-0.39849 0.10124,-0.54804 0.31697,-0.31696 1.14154,0.22537 0.91065,0.59895 -0.19333,0.31281 -0.80615,0.28198 -1.01189,-0.0509 z M 54.66084,197.7666 c -0.10804,-0.73541 -0.0659,-1.01869 0.2174,-1.46245 0.17594,-0.27556 0.3199,-0.70418 0.3199,-0.9525 0,-0.24831 0.10115,-0.45148 0.22478,-0.45148 0.27625,0 1.04522,1.14076 1.04522,1.55056 0,0.45363 -1.7471,1.72567 -1.8073,1.31587 z m 34.0653,-0.43076 c 0,-0.24039 0.11832,-0.65815 0.26293,-0.92837 0.25166,-0.47023 0.14544,-0.49362 -2.4765,-0.54542 -1.50669,-0.0298 -3.31093,-0.0908 -4.00943,-0.13571 -0.6985,-0.0449 -3.63094,-0.0711 -6.51652,-0.0583 -3.43767,0.0152 -5.30374,-0.0693 -5.41249,-0.24529 -0.18462,-0.29872 -1.30142,-0.34325 -2.72122,-0.10849 -0.71808,0.11874 -1.00434,0.32377 -1.23731,0.88621 -0.1667,0.40245 -0.39678,0.73173 -0.51129,0.73173 -0.39564,0 -0.51469,-0.49933 -0.24098,-1.01075 0.27093,-0.50624 0.21124,-0.5133 -4.36976,-0.51714 -2.55973,-0.002 -4.81545,-0.11441 -5.02543,-0.25011 -0.281,-0.1816 -0.11433,-0.247 0.635,-0.2492 0.5588,-0.002 3.81635,-0.054 7.239,-0.11643 3.42265,-0.0624 9.59485,0.008 13.716,0.15556 4.12115,0.14796 8.46455,0.26329 9.652,0.25629 1.18745,-0.007 3.27342,-0.0131 4.6355,-0.0135 1.57857,-5.1e-4 2.4765,-0.0987 2.4765,-0.27074 0,-0.15006 -0.50097,-0.26994 -1.12801,-0.26994 -0.95716,0 -1.68478,-0.33155 -1.37393,-0.62606 0.0489,-0.0463 3.06074,0.0652 6.69294,0.24777 6.72294,0.338 15.55082,0.0986 15.89647,-0.43115 0.0866,-0.13275 0.6258,-0.12058 1.29426,0.0292 1.44143,0.32303 4.65069,0.42639 6.8327,0.22005 1.73157,-0.16374 2.83104,0.10511 1.89647,0.46374 -1.57798,0.60553 -3.34728,0.73276 -5.83057,0.41929 -1.40983,-0.17796 -2.7207,-0.38254 -2.91303,-0.4546 -0.19233,-0.0721 -0.48485,-0.0189 -0.65003,0.11823 -0.16519,0.13709 -1.89378,0.30398 -3.84131,0.37087 -5.33818,0.18335 -7.99878,0.43798 -7.93866,0.75979 0.0868,0.46466 -0.31739,1.42284 -0.60021,1.42284 -0.15489,0 -0.21987,-0.38376 -0.15666,-0.92521 l 0.10801,-0.92521 -3.06472,0.16897 c -1.6856,0.0929 -4.09342,0.23058 -5.35072,0.30586 -1.2573,0.0753 -2.7637,0.0295 -3.34754,-0.10173 -1.01742,-0.22869 -1.07381,-0.20899 -1.35671,0.47399 -0.16235,0.39193 -0.51333,0.91003 -0.77997,1.15133 -0.45791,0.41441 -0.48478,0.41451 -0.48478,0.002 z m 9.2075,-2.34989 c -0.17463,-0.0705 -0.46038,-0.0705 -0.635,0 -0.17463,0.0705 -0.0317,0.12812 0.3175,0.12812 0.34925,0 0.49212,-0.0577 0.3175,-0.12812 z m 54.54649,2.28372 c 0,-0.0938 0.20003,-0.39472 0.4445,-0.66876 0.42635,-0.4779 0.42375,-0.49265 -0.0635,-0.36111 -1.44919,0.39125 -1.89278,0.41563 -2.20412,0.1211 -0.18473,-0.17475 -0.73593,-0.33733 -1.22488,-0.36128 -0.48895,-0.024 -1.3462,-0.1139 -1.905,-0.19988 -0.5588,-0.086 -2.07274,-0.16769 -3.36432,-0.18158 -1.52782,-0.0164 -2.50404,-0.14346 -2.794,-0.36355 -0.38533,-0.29248 -0.20493,-0.34156 1.33232,-0.36246 1.32938,-0.0181 1.6338,-0.0821 1.2065,-0.2539 -0.31432,-0.12634 -0.57141,-0.26197 -0.57131,-0.3014 1.4e-4,-0.0547 9.27399,-0.20193 16.25581,-0.25815 6.4419,-0.0519 15.494,0.13947 15.494,0.32751 0,0.13198 -0.54292,0.25348 -1.2065,0.27001 -0.66357,0.0165 -1.5494,0.10849 -1.9685,0.20436 -0.72373,0.16555 -0.70171,0.18391 0.43858,0.36562 2.63081,0.41923 1.27888,1.20216 -2.07391,1.20104 -1.19606,-5.1e-4 -2.40327,0.007 -2.68267,0.0165 -2.21088,0.075 -8.53151,-0.12452 -8.62281,-0.27224 -0.0629,-0.10183 -0.82371,-0.10152 -1.69061,7.6e-4 -0.8669,0.10221 -1.72232,0.12977 -1.90093,0.0612 -0.17862,-0.0685 -0.75896,0.17043 -1.28966,0.53105 -0.93269,0.63378 -1.60899,0.83771 -1.60899,0.48517 z m -26.62462,-0.86223 c 0.0449,-0.45823 0.23265,-0.88277 0.41725,-0.94342 0.24234,-0.0796 0.31294,0.12128 0.254,0.72288 -0.0449,0.45823 -0.23266,0.88277 -0.41725,0.94341 -0.24235,0.0796 -0.31294,-0.12127 -0.254,-0.72287 z m 12.14662,-0.40714 c -3.90825,-0.27738 -10.84524,-0.88753 -11.1125,-0.97741 -0.17462,-0.0587 -0.3175,-0.22328 -0.3175,-0.36567 0,-0.17066 2.07291,-0.23421 6.08259,-0.18648 5.43471,0.0647 6.1363,0.12103 6.58687,0.52879 0.44596,0.40359 0.49579,1.2428 0.0669,1.12626 -0.0898,-0.0244 -0.67768,-0.0809 -1.30633,-0.12549 z m 26.95242,-8.27563 c 0.0208,-3.24803 0.1311,-6.15392 0.24504,-6.45753 0.31648,-0.84333 0.54434,-8.28077 0.26643,-8.69657 -0.2798,-0.41864 -2.09066,-0.41506 -4.54039,0.009 l -1.5875,0.27479 v 1.77309 c 0,1.30714 -0.0834,1.74451 -0.3175,1.66434 -0.35062,-0.12009 -0.35028,-6.0339 7.7e-4,-14.58594 l 0.18973,-4.61936 -0.889,-0.16132 c -0.48895,-0.0887 -1.89562,-0.49604 -3.12595,-0.90514 -1.23032,-0.4091 -2.29154,-0.74382 -2.35825,-0.74382 -0.0667,0 0.34697,0.66401 0.91931,1.47558 l 1.0406,1.47557 0.0477,12.98127 c 0.0262,7.13969 0.13337,13.06698 0.23814,13.17175 0.27151,0.2715 0.23617,1.12183 -0.0466,1.12183 -0.13042,0 -0.27329,0.30551 -0.3175,0.67891 -0.1177,0.99427 -0.64074,1.01592 -0.74974,0.031 -0.0509,-0.46033 -0.0355,-2.60861 0.0344,-4.77396 0.0699,-2.16535 0.0897,-8.01282 0.044,-12.99439 l -0.083,-9.05739 -2.71099,-0.19332 c -2.21196,-0.15773 -8.45295,-0.21068 -14.42596,-0.12238 l -1.04698,0.0155 -0.18456,3.8273 c -0.10151,2.10501 -0.14215,3.8697 -0.0903,3.92154 0.0518,0.0518 1.22735,-0.12521 2.61225,-0.39342 1.3849,-0.26822 2.56535,-0.44032 2.62323,-0.38244 0.23097,0.23097 -0.2622,0.64806 -0.78614,0.66487 -0.51777,0.0166 -0.52233,0.0312 -0.0654,0.21019 0.27013,0.10578 0.38443,0.2574 0.254,0.33694 -0.77502,0.47264 -10.32614,0.75384 -10.75591,0.31668 -0.13759,-0.13996 -0.25561,-2.71894 -0.27283,-5.96166 -0.0307,-5.78978 0.0589,-7.9221 0.36424,-8.66547 0.1439,-0.35035 -0.12177,-0.43329 -1.81402,-0.56626 -1.86436,-0.1465 -7.42241,-0.24334 -10.91143,-0.19011 l -1.56281,0.0238 -0.0329,3.17571 c -0.0181,1.74664 -0.0991,3.34814 -0.17997,3.55888 -0.10547,0.27485 -0.0304,0.33842 0.26548,0.22487 0.93161,-0.35749 1.10134,0.25822 0.97006,3.51895 -0.12194,3.02853 -0.33527,3.74363 -0.96173,3.22372 -0.39685,-0.32936 -0.61532,3.29034 -0.61697,10.22238 -10e-4,5.67202 -0.11399,6.29767 -0.97819,5.43347 -0.37115,-0.37115 -0.41728,-1.21104 -0.3957,-7.20555 0.0134,-3.73199 0.11618,-9.19628 0.22833,-12.14288 l 0.20392,-5.35745 -2.76834,-0.17363 c -1.52258,-0.0955 -3.13981,-0.24079 -3.59384,-0.32287 l -0.8255,-0.14926 -0.008,3.39433 c -0.0127,5.56239 -0.38579,9.66747 -0.91358,10.0534 -0.50818,0.37159 -5.05937,0.46393 -5.27988,0.10713 -0.15534,-0.25133 0.99113,-1.90035 2.63155,-3.78508 0.97757,-1.12316 1.225,-1.27836 1.8415,-1.15506 l 0.71218,0.14244 v -4.17195 c 0,-2.72471 -0.0981,-4.27001 -0.28266,-4.45462 -0.42414,-0.42414 -0.0351,-0.83493 0.79066,-0.83493 0.40261,0 0.8065,-0.12051 0.89753,-0.2678 0.11029,-0.17844 0.36268,-0.13862 0.75636,0.11933 0.66162,0.43352 4.28336,0.81514 5.30425,0.55891 0.65169,-0.16357 0.66186,-0.20118 0.66186,-2.44728 0,-2.5254 -0.11005,-2.39219 1.905,-2.30585 9.16033,0.39251 13.71829,0.45625 14.13239,0.19764 0.69729,-0.43546 1.39832,0.31656 0.99595,1.0684 -0.28939,0.54073 -0.73989,8.80157 -0.68375,12.53815 l 0.0296,1.9685 h 2.35142 2.35142 l 0.0225,-0.8255 c 0.0123,-0.45403 0.003,-2.02565 -0.0221,-3.4925 -0.18758,-11.23608 -0.005,-19.09092 0.44812,-19.24184 0.49091,-0.16364 0.60506,0.9217 0.34742,3.30319 -0.13982,1.29231 -0.26214,4.49277 -0.27183,7.11215 -0.014,3.78783 0.0511,4.7625 0.31814,4.7625 0.18468,0 0.81978,-0.48578 1.41133,-1.0795 l 1.07556,-1.0795 0.0741,-6.93359 c 0.067,-6.26571 0.0351,-6.91741 -0.33108,-6.76568 -0.83358,0.34543 -1.29838,0.41701 -1.70206,0.2621 -0.31054,-0.11917 -0.11564,-0.31886 0.77164,-0.79063 0.65292,-0.34716 1.3485,-0.6312 1.54575,-0.6312 0.65304,0 0.82954,0.82177 0.5728,2.667 -0.34274,2.46331 -0.39615,10.0311 -0.0693,9.81952 0.1397,-0.0904 2.9972,-0.12981 6.35,-0.0875 l 6.096,0.0769 4.12342,1.31853 c 3.91735,1.25263 4.13482,1.35661 4.35143,2.08053 0.12541,0.4191 0.19264,1.2192 0.14942,1.778 -0.0432,0.5588 -0.15061,2.78765 -0.23863,4.953 -0.088,2.16535 -0.21275,4.19417 -0.27718,4.5085 -0.11255,0.54914 -0.048,0.5715 1.65071,0.5715 0.97232,0 1.83564,0.10969 1.9185,0.24375 0.0829,0.13406 0.75898,0.43551 1.5025,0.66988 1.65011,0.52015 2.71769,1.27084 2.24552,1.57896 -0.22844,0.14908 -0.35237,1.3147 -0.42553,4.00237 -0.0568,2.08562 -0.22333,4.24924 -0.37013,4.80804 -0.1468,0.5588 -0.27005,2.10185 -0.2739,3.429 -0.0121,4.16667 -0.32882,9.652 -0.55736,9.652 -0.12057,0 -0.20218,-2.65748 -0.18135,-5.9055 z m -1.04442,-16.40776 0.889,-0.19156 -1.397,-0.63238 c -1.07514,-0.48669 -1.70422,-0.60974 -2.7305,-0.53408 l -1.3335,0.0983 v 0.89952 0.89952 l 1.8415,-0.17389 c 1.01283,-0.0956 2.24155,-0.26008 2.7305,-0.36544 z m -58.63056,-3.72115 c -0.10544,-2.40436 -0.46789,-2.48219 -2.22245,-0.47722 -1.80173,2.05887 -1.79122,1.981 -0.2903,2.14973 2.86083,0.3216 2.60759,0.49016 2.51275,-1.67251 z m 10.05472,-5.58859 c -0.002,-1.67501 -0.0135,-1.7118 -0.20512,-0.635 -0.11186,0.62865 -0.19833,1.77165 -0.19216,2.54 0.009,1.15143 0.0453,1.26305 0.20512,0.635 0.10665,-0.4191 0.19312,-1.5621 0.19216,-2.54 z m 38.66984,-3.83384 c 0,-0.0536 -0.50753,-0.76485 -1.12784,-1.58051 -0.94082,-1.23709 -1.26726,-1.4916 -1.9685,-1.53472 -0.46236,-0.0284 -3.1475,-0.11189 -5.96698,-0.18546 l -5.12633,-0.13376 -0.93082,1.45511 c -0.51196,0.80032 -0.98843,1.60521 -1.05882,1.78865 -0.10345,0.26958 1.25268,0.34647 7.07315,0.40103 6.82348,0.064 9.10614,0.0112 9.10614,-0.21034 z m -50.292,33.56354 c 0,-0.0634 0.32349,-1.12069 0.71885,-2.3495 0.7717,-2.39843 1.20485,-4.41263 1.45003,-6.7427 0.11437,-1.08697 0.25484,-1.4605 0.54922,-1.4605 0.56763,0 0.26232,2.8647 -0.70382,6.604 -0.91067,3.5246 -1.12673,4.064 -1.62783,4.064 -0.21254,0 -0.38645,-0.0519 -0.38645,-0.1153 z m -32.76599,-0.58481 c 0,-0.49295 1.7839,-2.35071 2.7138,-2.82616 0.30514,-0.15601 0.91474,-0.28366 1.35466,-0.28366 1.15708,0 0.8264,0.5875 -0.45367,0.80603 -1.3021,0.22228 -2.36079,0.88873 -2.17616,1.36988 0.112,0.29187 0.25904,0.26435 0.78093,-0.14617 0.70275,-0.55278 1.08244,-0.64314 1.08244,-0.2576 0,0.31779 -1.18575,1.09935 -1.73726,1.14508 -0.23196,0.0192 -0.67892,0.17484 -0.99324,0.34581 -0.49756,0.27062 -0.5715,0.2508 -0.5715,-0.15321 z m -14.68366,-1.29535 c -0.2535,-0.1617 -0.19307,-0.30215 0.254,-0.59028 0.77075,-0.49675 2.17223,-0.97019 2.87194,-0.97019 0.4513,0 0.7815,-0.4509 1.72059,-2.3495 1.0395,-2.10161 2.04464,-4.85901 2.08189,-5.7112 0.0264,-0.60448 1.66506,-1.8453 2.43691,-1.8453 1.07825,0 0.92216,0.33156 -0.52756,1.1206 -0.70064,0.38133 -1.21699,0.7854 -1.14744,0.89793 0.33192,0.53705 -2.89233,7.71111 -3.936,8.75773 -0.12903,0.1294 -0.78024,0.31315 -1.44714,0.40833 -0.66689,0.0952 -1.38398,0.2453 -1.59353,0.33358 -0.20955,0.0883 -0.5307,0.065 -0.71366,-0.0517 z m 70.75075,-1.36997 c -0.24836,-2.51782 0.25195,-6.2752 0.60878,-4.572 0.17085,0.8155 -0.0635,5.9055 -0.2719,5.9055 -0.11294,0 -0.26454,-0.60008 -0.33688,-1.3335 z m 11.64839,0.70563 c -0.18717,-0.74575 0.057,-6.01876 0.357,-7.70921 0.20336,-1.14594 0.1878,-1.95943 -0.12287,-6.42412 -0.19638,-2.82205 -0.0426,-4.04737 0.4466,-3.55818 0.32004,0.32004 0.37541,12.04113 0.0739,15.65238 -0.20092,2.40672 -0.47592,3.14977 -0.75467,2.03913 z m -71.48148,-1.71148 c 0.31693,-2.33665 1.47736,-7.39897 1.76312,-7.69153 0.40752,-0.41721 0.71938,0.38185 0.43699,1.11968 -0.13813,0.36091 -0.65011,2.2564 -1.13774,4.2122 -0.97126,3.8956 -1.39981,4.84745 -1.06237,2.35965 z m 24.60217,-0.0737 c -0.96057,-2.09563 -1.28599,-3.5586 -0.75197,-3.3806 0.19236,0.0641 0.42279,0.47374 0.51207,0.91028 0.0893,0.43653 0.41776,1.42304 0.72995,2.19223 0.85062,2.09579 0.44788,2.32433 -0.49005,0.27809 z m -13.97817,0.61804 0.635,-0.52242 -0.9525,0.0917 c -0.52388,0.0504 -0.9525,0.0117 -0.9525,-0.086 0,-0.30949 2.33824,-0.67765 4.445,-0.69987 1.42346,-0.015 2.37429,-0.17077 3.175,-0.52009 0.62865,-0.27426 1.47993,-0.57125 1.89175,-0.65997 0.56325,-0.12134 0.6594,-0.21653 0.38812,-0.38419 -0.59179,-0.36574 0.36473,-0.59374 1.71466,-0.40871 1.97019,0.27005 1.86433,0.5126 -0.46812,1.07266 -0.89178,0.21413 -2.19291,0.65751 -2.89141,0.9853 -0.90876,0.42646 -1.73962,0.59966 -2.921,0.6089 -0.95726,0.007 -2.29139,0.22978 -3.175,0.52901 l -1.524,0.51609 z m 25.30197,-1.25469 c -0.22323,-0.55789 -0.53307,-1.01435 -0.68855,-1.01435 -0.19397,0 -0.24046,-0.57797 -0.14813,-1.8415 0.074,-1.01283 0.14315,-1.87682 0.15363,-1.91999 0.0105,-0.0432 0.13337,-0.008 0.27307,0.0785 0.1397,0.0863 0.254,0.7864 0.254,1.55569 0,0.76929 0.12685,1.63572 0.28189,1.92541 0.45491,0.85001 0.71343,1.96271 0.48832,2.10183 -0.1146,0.0708 -0.391,-0.32768 -0.61423,-0.88558 z m -9.28776,-1.39535 c -0.0266,-2.0289 -0.23265,-2.33974 -1.2669,-1.91134 -0.8391,0.34756 -1.40376,0.15076 -0.76996,-0.26836 0.20551,-0.1359 0.68797,-0.31542 1.07215,-0.39894 0.38417,-0.0835 0.6985,-0.30902 0.6985,-0.50111 0,-0.19209 0.1143,-0.34925 0.254,-0.34925 0.1397,0 0.25747,-0.60008 0.26172,-1.3335 0.006,-1.08873 0.0587,-1.2458 0.28525,-0.8557 0.33859,0.58291 0.1508,5.57755 -0.24465,6.5072 -0.23307,0.5479 -0.27287,0.42595 -0.29011,-0.889 z m 51.29578,-0.14199 c 0,-0.45332 0.10582,-0.7116 0.254,-0.62001 0.1397,0.0863 0.254,0.43599 0.254,0.77699 0,0.34101 -0.1143,0.62001 -0.254,0.62001 -0.1397,0 -0.254,-0.34965 -0.254,-0.77699 z m -55.11799,0.12082 c 0,-0.22119 0.13573,-0.35692 0.30162,-0.30162 0.47097,0.15699 0.54909,0.70379 0.10054,0.70379 -0.22119,0 -0.40216,-0.18098 -0.40216,-0.40217 z m 54.50226,-0.19571 c -0.12147,-0.25899 -0.13518,-1.74489 -0.0305,-3.302 0.22715,-3.37754 0.2166,-2.80778 0.12902,-6.96842 -0.0391,-1.85642 -0.16449,-3.43305 -0.27869,-3.50363 -0.3678,-0.22731 -0.0636,-1.46251 0.76104,-3.09057 0.44228,-0.87313 0.96459,-1.5875 1.16071,-1.5875 0.97916,0 1.03804,0.18538 0.86807,2.7331 -0.0908,1.36065 -0.1765,2.56637 -0.1905,2.67939 -0.014,0.11302 -0.15185,0.12737 -0.30634,0.0319 -0.19158,-0.11841 -0.22386,-0.78935 -0.10154,-2.11049 0.19692,-2.12677 0.14081,-2.16795 -0.69781,-0.51218 -0.55756,1.10083 -0.56701,1.25906 -0.40861,6.8361 0.12862,4.52851 0.0924,5.82071 -0.17527,6.2485 -0.18558,0.29662 -0.37597,1.09672 -0.42309,1.778 -0.0646,0.93375 -0.14003,1.12276 -0.30653,0.7678 z m -16.83774,-2.45421 c -0.0737,-0.28165 -0.26298,-0.4967 -0.42072,-0.4779 -0.64401,0.0768 -0.92181,-0.0459 -0.92181,-0.40701 0,-0.45116 -0.42205,-0.51184 -0.56556,-0.0813 -0.0652,0.19544 -0.27132,0.22568 -0.59267,0.0869 -0.27102,-0.11702 -0.62702,-0.1917 -0.79111,-0.16597 -0.3821,0.0599 -0.53457,-0.19742 -0.71132,-1.20071 -0.17304,-0.98219 0.32621,-1.27846 1.3443,-0.79773 0.37475,0.17696 0.90996,0.41238 1.18936,0.52317 1.01652,0.40306 3.86022,0.72322 5.969,0.67202 l 2.159,-0.0524 0.127,-1.524 0.127,-1.524 h 1.778 1.778 l -0.0854,1.651 c -0.097,1.87433 -0.71165,2.88929 -1.40252,2.31591 -0.40144,-0.33316 -1.2691,-0.0367 -2.83005,0.967 -0.91633,0.5892 -1.397,0.65017 -1.397,0.17719 0,-0.19244 -0.17723,-0.49699 -0.39385,-0.67677 -0.33267,-0.27609 -0.41619,-0.24146 -0.53763,0.2229 -0.16849,0.64431 -1.10052,0.76035 -1.10052,0.13702 0,-0.32944 -0.16513,-0.37972 -0.81813,-0.24912 -0.44997,0.09 -0.91285,0.33288 -1.02862,0.53975 -0.29755,0.53169 -0.71718,0.46646 -0.87472,-0.13597 z m 8.55833,-2.69049 c 0.56163,-0.22472 1.02114,-0.50112 1.02114,-0.61423 0,-0.1131 0.0694,-0.38644 0.15418,-0.60742 0.12777,-0.33297 -0.0608,-0.40177 -1.10136,-0.40177 h -1.25554 l -0.0398,1.016 c -0.0219,0.5588 0.0142,1.016 0.0802,1.016 0.066,0 0.57955,-0.18386 1.14117,-0.40858 z m -34.40072,0.1726 c -0.17827,-0.28846 0.75823,-0.72078 3.41494,-1.57642 1.23856,-0.39891 1.86582,-0.49649 1.98611,-0.30897 0.10662,0.1662 1.0658,0.26272 2.43707,0.24522 1.43818,-0.0183 2.29638,0.0726 2.35777,0.24996 0.064,0.18502 -0.8443,0.33595 -2.70019,0.44867 -1.53819,0.0934 -3.10357,0.28653 -3.47863,0.42913 -0.42675,0.16225 -0.77149,0.16971 -0.92126,0.0199 -0.14976,-0.14977 -0.53824,-0.11716 -1.03813,0.0871 -1.39638,0.57068 -1.89481,0.66886 -2.05768,0.40534 z m -16.46256,-2.04288 c -0.0744,-0.55488 -0.39926,-1.43593 -0.72186,-1.95791 -0.58389,-0.94475 -0.84354,-2.54054 -0.50302,-3.09151 0.22405,-0.36253 0.58984,-0.373 5.05109,-0.14459 2.62935,0.13462 3.55414,0.26257 3.35287,0.46388 -0.32373,0.3238 -3.66722,0.36746 -6.15815,0.0804 l -1.7145,-0.19758 v 1.05631 1.05631 l 0.91294,-0.14815 c 0.50211,-0.0815 2.04486,-0.0792 3.42832,0.005 2.46734,0.15032 2.52502,0.16828 3.01978,0.94042 l 0.5044,0.78717 0.004,-0.6985 c 0.003,-0.51624 0.13063,-0.6985 0.4885,-0.6985 0.34952,0 0.44935,-0.13335 0.35887,-0.47934 -0.15945,-0.60975 0.34671,-0.95211 0.51725,-0.34985 0.27802,0.98181 0.45179,3.1155 0.29417,3.61211 -0.22845,0.71978 -0.67774,0.3828 -0.48951,-0.36716 0.17345,-0.69102 -0.0711,-1.65375 -0.42011,-1.65375 -0.13028,0 -0.23688,0.40756 -0.23688,0.9057 0,0.49813 -0.12943,1.14753 -0.28761,1.4431 -0.26485,0.49487 -0.34403,0.41313 -1.00034,-1.0327 -0.39199,-0.86355 -0.80632,-1.5701 -0.92072,-1.5701 -0.1144,0 -0.16884,0.49226 -0.12099,1.09391 0.0618,0.77662 -0.0316,1.19232 -0.32181,1.4332 -0.47929,0.39777 -0.41002,0.47158 -1.04098,-1.10903 -0.70244,-1.75969 -1.08991,-1.77112 -1.18388,-0.0349 -0.0871,1.60847 -0.50242,1.98081 -0.72384,0.64885 -0.29336,-1.76482 -1.25783,-2.76295 -1.25783,-1.30175 0,1.02725 -0.28191,2.31775 -0.50631,2.31775 -0.10384,0 -0.2497,-0.45399 -0.32412,-1.00886 z m 4.76743,-1.78514 c 0.0863,-0.1397 0.0359,-0.254 -0.11201,-0.254 -0.14795,0 -0.26899,0.1143 -0.26899,0.254 0,0.1397 0.0504,0.254 0.112,0.254 0.0616,0 0.18266,-0.1143 0.269,-0.254 z m 36.89879,1.3335 c -0.15797,-1.32255 0.0804,-4.3815 0.3415,-4.3815 0.38243,0 0.54509,1.25912 0.3875,2.99962 -0.0846,0.93466 -0.15588,1.84225 -0.15833,2.01688 -0.0104,0.74354 -0.46663,0.23594 -0.57067,-0.635 z m -25.84979,0.099 c 0,-0.32975 -0.0727,-1.12985 -0.16153,-1.778 -0.13374,-0.97571 -0.092,-1.17845 0.24249,-1.17845 0.50139,0 0.805,1.41858 0.57079,2.667 -0.18793,1.00174 -0.65175,1.20773 -0.65175,0.28945 z m -66.802004,0.0965 c 0,-0.1282 0.428625,-0.55259 0.9525,-0.94308 0.523875,-0.39049 1.03201,-0.82162 1.129189,-0.95807 0.308864,-0.43367 0.510596,0.0539 0.235205,0.56848 -0.405918,0.75846 -2.316894,1.85765 -2.316894,1.33267 z m 30.587924,-0.37151 c -0.0857,-0.34132 -0.0891,-0.72837 -0.008,-0.86013 0.0814,-0.13175 -0.0714,-0.29695 -0.33966,-0.3671 -0.3046,-0.0797 -0.5872,-0.49583 -0.75264,-1.10838 -0.1457,-0.53945 -0.50601,-1.13065 -0.80068,-1.31376 -0.29467,-0.18311 -0.47695,-0.48617 -0.40508,-0.67347 0.0731,-0.19041 -0.0741,-0.3941 -0.33388,-0.46203 -0.2555,-0.0668 -0.66116,-0.42155 -0.90146,-0.7883 -0.36736,-0.56066 -0.38312,-0.73164 -0.099,-1.07403 0.28657,-0.3453 0.265,-0.46056 -0.14192,-0.7581 -0.26392,-0.19299 -0.40208,-0.42867 -0.30702,-0.52374 0.0951,-0.0951 -0.009,-0.44992 -0.23057,-0.78855 -0.44585,-0.68046 -0.33202,-1.56324 0.33425,-2.59213 0.26726,-0.41273 0.41341,-1.23808 0.42729,-2.413 l 0.0211,-1.78572 2.7305,0.0886 2.7305,0.0886 v -1.54906 c 0,-0.85198 -0.0944,-1.54906 -0.20972,-1.54906 -0.11535,0 -0.47817,0.28575 -0.80628,0.635 -0.71869,0.76502 -1.1092,0.8208 -0.889,0.127 0.11911,-0.37527 0.0456,-0.508 -0.28116,-0.508 -0.37941,0 -0.35746,-0.0904 0.15416,-0.635 0.76647,-0.81586 0.34608,-0.81751 -0.75796,-0.003 -1.03772,0.7656 -1.33117,0.6209 -0.5111,-0.25203 l 0.59562,-0.634 h -0.80628 c -1.08872,0 -1.01857,-0.39854 0.13729,-0.78001 0.93523,-0.30865 0.93804,-0.3137 0.3175,-0.57053 -0.6176,-0.25561 -0.61404,-0.26152 0.26293,-0.43685 0.83011,-0.16596 0.84093,-0.17995 0.16333,-0.21117 -0.51652,-0.0238 -0.68559,-0.1379 -0.5866,-0.39587 0.0765,-0.19933 -0.009,-0.48566 -0.1909,-0.63629 -0.24632,-0.20443 -0.48397,-0.12019 -0.9374,0.33226 -0.33409,0.33336 -0.79911,0.64827 -1.03339,0.69979 -0.72346,0.15909 -3.98216,2.85701 -4.1254,3.41547 -0.0745,0.29028 -0.40682,0.82069 -0.7386,1.17868 -0.33177,0.35799 -0.86252,1.07045 -1.17945,1.58324 -0.3482,0.56341 -0.71346,0.8797 -0.92303,0.79928 -0.19358,-0.0743 -0.47855,0.11525 -0.64499,0.42896 -0.164,0.30912 -0.4927,0.70023 -0.73044,0.86912 -0.23774,0.1689 -0.92075,1.11557 -1.5178,2.10372 -1.07094,1.77248 -1.69211,2.31468 -0.90253,0.7878 0.50584,-0.97818 0.0959,-1.03293 -0.58407,-0.078 -0.27712,0.38918 -0.82783,0.87396 -1.22379,1.07728 -0.39596,0.20332 -1.249644,0.9136 -1.897068,1.57839 -0.647423,0.6648 -1.294153,1.20872 -1.437177,1.20872 -0.143024,0 -0.584864,0.51415 -0.981867,1.14254 -0.78427,1.2414 -1.017049,1.38215 -1.15594,0.69896 -0.07606,-0.37414 -0.203667,-0.32388 -0.806112,0.3175 -0.393661,0.4191 -0.847152,0.77739 -1.007759,0.7962 -0.160607,0.0188 -0.441633,0.0474 -0.624502,0.0635 -0.18287,0.0161 -0.269853,0.13065 -0.193297,0.25452 0.07656,0.12387 -0.0524,0.38104 -0.286566,0.5715 -0.371466,0.30212 -0.404699,0.29007 -0.260602,-0.0945 0.270371,-0.72158 -0.591184,-0.0559 -1.420007,1.09711 -0.705319,0.98122 -1.698038,1.73648 -1.698038,1.29186 0,-0.12578 0.244027,-0.53891 0.542282,-0.91808 0.473925,-0.6025 0.495818,-0.73587 0.173678,-1.05801 -0.32214,-0.32214 -0.526576,-0.25073 -1.621783,0.56652 -0.689247,0.51431 -1.617118,1.27587 -2.061935,1.69235 -0.521243,0.48803 -0.958148,0.6999 -1.22898,0.59597 -0.330383,-0.12678 -0.130328,-0.39462 0.935758,-1.25284 2.128041,-1.71312 2.81133,-2.12621 3.821595,-2.31038 0.517888,-0.0944 1.469191,-0.40503 2.114008,-0.69026 0.644816,-0.28523 1.322578,-0.46098 1.506136,-0.39054 0.214361,0.0823 0.295039,-0.0241 0.225544,-0.29742 -0.07803,-0.30684 0.289347,-0.63169 1.317316,-1.16486 0.784034,-0.40665 1.999458,-1.29255 2.700942,-1.96866 0.701484,-0.67612 1.369166,-1.17137 1.483738,-1.10056 0.114571,0.0708 0.455998,-0.27202 0.758723,-0.76184 0.302723,-0.48982 0.686803,-0.89058 0.853503,-0.89058 0.38858,0 2.44679,-2.17806 2.45782,-2.60094 0.0102,-0.39217 3.38207,-4.00306 3.73806,-4.00306 0.14047,0 0.39204,-0.16466 0.55906,-0.3659 0.16927,-0.20395 0.4922,-0.29533 0.7296,-0.20645 0.35339,0.1323 0.37282,0.094 0.11412,-0.22477 -0.36413,-0.44869 0.1078,-0.94402 3.3158,-3.48028 2.29584,-1.81509 2.99695,-2.21427 4.32757,-2.4639 0.5302,-0.0995 1.02317,-0.33503 1.09549,-0.52349 0.10894,-0.28389 0.25507,-0.27874 0.85224,0.0301 0.66223,0.34246 0.73293,0.33436 0.87072,-0.0998 0.21352,-0.67276 1.06848,-1.38372 1.41009,-1.17259 0.19719,0.12187 0.10773,0.37175 -0.28133,0.78588 -0.7522,0.80069 -0.50605,0.98674 0.6047,0.45706 0.54613,-0.26043 1.08038,-0.3522 1.36495,-0.23446 0.40945,0.16942 0.37285,0.23563 -0.29442,0.53258 l -0.762,0.33912 0.67037,0.0114 c 0.71218,0.0122 1.98291,0.86997 1.70387,1.15019 -0.0912,0.0916 -0.3963,0.0225 -0.67807,-0.15347 -0.40683,-0.25407 -0.78594,-0.25678 -1.84133,-0.0132 -1.1302,0.26088 -1.39275,0.24911 -1.75493,-0.0787 -0.631,-0.57105 -0.84921,-0.46775 -0.25891,0.12256 0.50055,0.50055 0.69146,1.27 0.3151,1.27 -0.10609,0 -0.33342,-0.225 -0.50516,-0.50001 -0.37653,-0.60291 -1.72815,-1.33923 -2.25753,-1.22983 -0.24162,0.0499 0.0906,0.43807 0.90606,1.05866 0.70814,0.5389 1.28753,1.18213 1.28753,1.4294 0,0.7217 0.62913,1.10494 1.02696,0.62559 0.22452,-0.27054 0.54448,-0.34813 0.9862,-0.23916 0.52695,0.12999 0.59222,0.0986 0.33634,-0.16147 -0.77972,-0.79268 0.0465,-0.97569 1.55649,-0.34477 0.93693,0.39148 1.23403,0.88559 0.53249,0.88559 -0.34296,0 -0.34509,0.0821 -0.0185,0.71352 0.21652,0.4187 0.28229,0.85379 0.15917,1.05299 -0.15483,0.25052 -0.31806,0.13012 -0.62297,-0.45952 -0.43383,-0.83893 -0.79036,-1.01466 -0.97685,-0.48149 -0.081,0.2317 -0.24919,0.19505 -0.62221,-0.13563 -0.50631,-0.44884 -0.5124,-0.4344 -0.64217,1.524 -0.0721,1.08742 -0.0713,2.07796 0.002,2.20121 0.073,0.12324 1.08827,0.16446 2.25606,0.0916 1.68159,-0.10491 2.12326,-0.0609 2.12326,0.21149 0,0.60531 -0.96238,0.93822 -1.83391,0.6344 -0.43004,-0.14991 -2.47934,-0.27257 -4.55399,-0.27257 h -3.7721 v 1.11582 c 0,0.78369 0.11972,1.16177 0.40221,1.27017 0.33611,0.12898 0.2735,0.31685 -0.381,1.14323 -1.03385,1.30534 -0.97195,2.6265 0.16226,3.46333 0.27242,0.20099 0.29387,0.42102 0.0926,0.95029 -0.31692,0.83358 -0.14079,1.38326 0.50936,1.58961 0.26649,0.0846 0.48453,0.32036 0.48453,0.52395 0,0.2036 0.27808,0.4759 0.61796,0.60512 0.45247,0.17203 0.63952,0.45942 0.6985,1.07321 0.0711,0.74006 0.17726,0.84759 0.90604,0.91786 0.94485,0.0911 1.06247,0.41071 0.3011,0.81819 -0.40726,0.21796 -0.46006,0.35817 -0.23637,0.6277 0.21147,0.2548 0.21345,0.48639 0.008,0.87128 -0.37417,0.69913 -0.72641,0.66212 -0.91676,-0.0963 z m 15.70262,-1.34794 c 0.069,-0.80328 0.0335,-4.59238 -0.0789,-8.42024 -0.15532,-5.28937 -0.28457,-7.01296 -0.5385,-7.1815 -0.25628,-0.17011 -0.17225,-0.35505 0.36071,-0.79388 l 0.69483,-0.57211 -0.15258,-6.62782 c -0.10354,-4.49802 -0.0672,-6.68059 0.11312,-6.79203 0.37499,-0.23175 0.55568,0.1574 0.72088,1.55253 l 0.14357,1.21255 3.46468,-0.0344 c 3.69172,-0.0367 5.36967,0.0933 5.36967,0.41604 0,0.38208 -0.88156,0.52969 -4.07612,0.6825 -2.03352,0.0973 -3.50384,0.054 -3.99609,-0.1176 -0.63326,-0.22076 -0.80617,-0.20015 -0.92529,0.11027 -0.0806,0.20997 -0.1465,2.44339 -0.1465,4.96314 v 4.58137 l 0.8255,-0.61475 c 0.45403,-0.33811 2.13995,-1.17085 3.7465,-1.85052 1.60655,-0.67967 3.51773,-1.56862 4.24707,-1.97545 0.72934,-0.40682 1.51242,-0.70208 1.74018,-0.65613 0.52454,0.10585 -2.54818,1.86152 -5.61665,3.2092 -1.26301,0.55473 -2.74891,1.31927 -3.302,1.69899 l -1.0056,0.69039 1.27,-0.14542 c 4.68956,-0.53696 10.16882,-0.44306 9.96422,0.17075 -0.0614,0.18425 -1.58959,0.30003 -4.5205,0.34249 -2.43525,0.0353 -5.11352,0.15481 -5.95172,0.26565 l -1.524,0.20151 -0.0326,7.239 c -0.0465,10.32725 -0.0249,9.906 -0.50686,9.906 -0.34733,0 -0.39265,-0.23061 -0.287,-1.4605 z m 21.65445,-1.3335 c -0.28981,-0.46893 0.12434,-0.7813 0.65753,-0.49594 0.27484,0.14708 0.43261,0.37599 0.3506,0.50868 -0.19586,0.31692 -0.80918,0.30916 -1.00813,-0.0128 z m 3.98569,-0.019 c 0.0501,-0.15018 0.1996,-0.27305 0.33231,-0.27305 0.13272,0 0.28226,0.12287 0.33232,0.27305 0.0501,0.15018 -0.0995,0.27305 -0.33232,0.27305 -0.23283,0 -0.38237,-0.12287 -0.33231,-0.27305 z m 4.44555,0.11062 c -0.20293,-0.20293 0.0265,-0.59957 0.34676,-0.59957 0.13145,0 0.239,0.17145 0.239,0.381 0,0.39279 -0.29971,0.50462 -0.58576,0.21857 z M 93.72636,173.6407 c -0.19319,-0.3126 -0.0716,-13.21776 0.12638,-13.41572 0.55974,-0.55961 0.66422,0.59056 0.61608,6.78193 -0.0358,4.60872 -0.13834,6.67893 -0.33392,6.74413 -0.15522,0.0517 -0.33906,0.002 -0.40854,-0.11034 z m 7.8087,-0.0333 c -0.12976,-0.0935 -0.26572,-0.71488 -0.30213,-1.38077 -0.0594,-1.08617 0.001,-1.24153 0.59123,-1.51026 0.97983,-0.44644 1.52118,-0.005 1.4209,1.15919 l -0.0799,0.92678 2.11496,2.5e-4 c 1.16323,1.8e-4 3.05946,-0.13165 4.21383,-0.29296 2.08184,-0.29091 2.68868,-0.2023 2.1696,0.31677 -0.53649,0.53649 -9.50804,1.22821 -10.12854,0.78093 z m 0.82816,-1.75756 c -0.0639,-0.24448 -0.11616,-0.0444 -0.11616,0.4445 0,0.48895 0.0523,0.68897 0.11616,0.4445 0.0639,-0.24448 0.0639,-0.64453 0,-0.889 z m 37.50995,-0.37245 c -0.27551,-0.44579 0.11167,-0.52687 2.30726,-0.48314 1.18757,0.0236 1.44506,0.0963 1.20204,0.33935 -0.36341,0.36341 -3.29922,0.4837 -3.5093,0.14379 z m -12.17921,-0.17788 c -0.29294,-0.29297 -0.0144,-0.49777 0.84667,-0.62269 1.41661,-0.20548 9.98514,0.18381 9.90854,0.45018 -0.0635,0.22088 -10.53884,0.3889 -10.75521,0.17251 z m -2.13783,-0.40217 c 0,-0.20955 0.18382,-0.381 0.40849,-0.381 0.22466,0 1.1267,-0.5715 2.00451,-1.27 1.72218,-1.37038 1.905,-1.45797 1.905,-0.91265 0,0.36659 -1.97519,2.1326 -2.9678,2.6535 -0.76753,0.40279 -1.3502,0.36401 -1.3502,-0.0898 z m 14.6144,-1.5875 c 0.20136,-0.66358 0.36734,-1.29223 0.36886,-1.397 0.009,-0.6047 1.09534,-1.2065 2.17844,-1.2065 0.63784,0 1.39058,-0.12356 1.67276,-0.27458 0.66308,-0.35487 0.93507,-0.0821 0.42587,0.42711 -0.53548,0.53548 -2.38353,0.76528 -2.8749,0.35749 -0.31864,-0.26445 -0.38385,-0.23786 -0.38591,0.15738 -0.003,0.65856 -1.18726,3.1426 -1.49768,3.1426 -0.15292,0 -0.10825,-0.47882 0.11256,-1.2065 z m -63.44766,-2.921 -1.83973,-1.8415 -0.0543,-4.88021 c -0.0298,-2.68411 0.0273,-4.92812 0.127,-4.98669 0.24081,-0.14146 3.10525,0.2602 3.30905,0.46401 0.22094,0.22094 -0.48034,0.63047 -1.09577,0.63989 -1.17299,0.018 -1.26548,0.29362 -1.35229,4.03053 -0.0924,3.9771 0.028,4.41217 1.73874,6.28332 2.39037,2.61452 1.722,2.84781 -0.83272,0.29065 z m 25.11032,-0.40234 c -0.0748,-0.12107 -0.13238,-1.20758 -0.1279,-2.41446 0.004,-1.20688 -0.0528,-2.29296 -0.12731,-2.4135 -0.0745,-0.12054 -1.34191,-0.64461 -2.81646,-1.16459 -1.87787,-0.66221 -2.90029,-0.89726 -3.41302,-0.78464 -0.942,0.20689 -1.20083,-0.20204 -0.39936,-0.63097 0.33971,-0.18181 0.56077,-0.42262 0.49123,-0.53512 -0.0695,-0.11251 0.19155,-0.40391 0.58017,-0.64757 0.38863,-0.24364 1.23155,-0.92224 1.87317,-1.50798 0.64161,-0.58575 1.55601,-1.26245 2.032,-1.50379 0.47598,-0.24134 1.04043,-0.59154 1.25433,-0.77823 0.2139,-0.18668 0.67252,-0.31577 1.01915,-0.28687 0.70838,0.0591 3.54341,1.4725 3.54434,1.76706 10e-4,0.37209 -1.15394,0.17951 -1.9044,-0.3175 -0.4191,-0.27756 -0.96382,-0.50541 -1.2105,-0.50633 -1.1116,-0.004 -2.65373,0.73453 -3.97355,1.90333 -0.78875,0.6985 -1.71161,1.45204 -2.0508,1.67453 -0.61052,0.40047 -0.59137,0.41422 1.91208,1.3725 1.39083,0.53238 2.65642,1.06607 2.81242,1.18597 0.15601,0.1199 0.52029,0.18808 0.80952,0.1515 0.28923,-0.0366 0.54772,0.0203 0.57441,0.12631 0.0267,0.10604 -0.0323,1.33363 -0.1312,2.72798 -0.16527,2.33117 -0.40094,3.14444 -0.74832,2.58237 z m 25.50094,-3.32339 c 0,-3.19553 0.1053,-3.83077 0.635,-3.83077 0.62013,0 0.88417,1.68124 0.34821,2.2172 -0.18756,0.18756 -0.24726,1.04007 -0.17254,2.4638 0.10383,1.97806 0.072,2.177 -0.3482,2.177 -0.42142,0 -0.46247,-0.26868 -0.46247,-3.02723 z m 13.06919,0.80084 c -0.1462,-0.10264 -0.2627,-0.87241 -0.25888,-1.71061 l 0.007,-1.524 1.5589,0.0837 1.55891,0.0837 -0.12447,1.18631 c -0.14647,1.39596 -0.57058,2.04774 -0.57058,0.87688 0,-1.26404 -0.23011,-1.59565 -1.10667,-1.59476 -0.77563,7.6e-4 -0.79852,0.0333 -0.80505,1.143 -0.006,1.08662 0.0283,1.14219 0.71349,1.14219 0.41546,0 0.65379,0.10748 0.56323,0.254 -0.18215,0.29474 -1.14751,0.33221 -1.53581,0.0596 z m 8.96531,0.002 c -0.24447,-0.0543 -0.4445,-0.20467 -0.4445,-0.33412 0,-0.30191 1.19463,-0.30883 1.38055,-0.008 0.17519,0.28345 -0.34473,0.47347 -0.93605,0.34211 z m -1.26091,-1.39489 c -0.0569,-0.73343 -0.069,-1.38003 -0.0269,-1.4369 0.0421,-0.0569 0.58782,-0.181 1.21278,-0.27584 1.17693,-0.17862 1.70314,0.052 1.51574,0.66419 -0.3645,1.19076 -0.42714,1.25418 -0.59666,0.60405 -0.11696,-0.44853 -0.36775,-0.6586 -0.85404,-0.71537 -0.66859,-0.0781 -0.68846,-0.0432 -0.68846,1.2065 0,1.69518 -0.43006,1.65953 -0.56241,-0.0466 z m -75.56925,-0.381 c -0.10743,-0.38418 -0.19533,-3.07009 -0.19533,-5.9687 0,-4.04666 -0.0737,-5.27026 -0.3175,-5.2705 -0.50863,-5e-4 -0.36593,-0.43639 0.1905,-0.5819 0.43663,-0.11418 0.508,-0.34646 0.508,-1.65345 0,-1.15228 0.0973,-1.55795 0.40177,-1.67477 0.60884,-0.23364 1.37623,-0.18456 1.37623,0.088 0,0.1332 0.32364,0.0564 0.71922,-0.1706 0.8757,-0.50258 1.80315,-0.28145 1.31028,0.31241 -0.19607,0.23626 -0.21322,0.378 -0.0457,0.378 0.14739,0 0.33751,-0.21905 0.42248,-0.48677 0.13446,-0.42365 1.60388,-1.20383 1.68949,-0.89702 0.0948,0.33991 0.16225,0.6498 0.1905,0.87579 0.0652,0.52153 0.53975,0.23121 0.53975,-0.3302 0,-0.71506 0.4436,-1.1938 1.10617,-1.1938 0.45548,0 0.46357,0.0368 0.0978,0.4445 -0.2193,0.24447 -0.50146,0.84455 -0.62702,1.3335 -0.12555,0.48895 -0.35437,0.889 -0.50847,0.889 -0.1541,0 -0.35804,0.0779 -0.45319,0.173 -0.27913,0.27913 -0.88533,-0.0651 -0.88533,-0.50272 0,-0.33454 -0.0577,-0.32342 -0.34247,0.066 -0.18835,0.25759 -0.45099,0.40128 -0.58362,0.3193 -0.13264,-0.082 -0.40332,-0.0488 -0.60152,0.0737 -0.21867,0.13515 -0.49277,0.11282 -0.69714,-0.0568 -0.24594,-0.20412 -0.41609,-0.2002 -0.63082,0.0145 -0.51478,0.51479 -1.41591,0.35213 -1.53718,-0.27746 -0.0605,-0.31433 -0.12585,-0.0571 -0.14514,0.5715 l -0.0351,1.143 3.11198,-0.0648 c 3.81015,-0.0794 3.55968,0.26939 -0.62087,0.86449 l -2.87115,0.4087 v 5.93599 c 0,3.2648 -0.0835,5.93614 -0.18566,5.93632 -0.10211,1.7e-4 -0.27356,-0.31401 -0.381,-0.69818 z m 37.90879,0.45117 c -0.0932,-0.15078 -0.36084,-0.24254 -0.59478,-0.20391 -0.57921,0.0957 -0.69554,-0.89328 -0.16722,-1.4216 0.55833,-0.55833 1.39287,-0.11569 1.39287,0.73878 0,0.34433 0.009,0.70893 0.0191,0.81021 0.032,0.30931 -0.46956,0.36836 -0.64992,0.0765 z m 1.26662,-2.0651 -1.1309,-1.04243 -0.95892,0.75452 c -1.03809,0.8168 -2.10193,1.25693 -2.10193,0.8696 0,-0.13253 0.42863,-0.55497 0.9525,-0.93876 0.52388,-0.38379 1.1889,-0.97324 1.47782,-1.3099 0.30356,-0.3537 0.67884,-0.54798 0.889,-0.4602 0.37409,0.15625 2.52268,2.71788 2.52268,3.00763 0,0.40403 -0.60958,0.0788 -1.65025,-0.88046 z m -9.01775,-0.0833 c 0,-0.20594 1.39556,-1.09319 2.03001,-1.29061 0.57493,-0.17889 0.60009,-0.15729 0.27422,0.23536 -0.42924,0.5172 -2.30423,1.37588 -2.30423,1.05525 z m 52.62605,-1.43957 c 0.16735,-0.51337 2.01698,-1.10155 2.82571,-0.89857 1.05326,0.26435 0.80961,0.60797 -0.52426,0.73936 -0.66357,0.0654 -1.47897,0.20802 -1.812,0.31703 -0.46271,0.15145 -0.57814,0.11423 -0.48945,-0.15782 z M 69.18335,155.9237 c -0.62029,-0.16621 -1.17844,-0.45412 -1.24033,-0.63981 -0.18054,-0.54163 1.96477,-0.14289 2.58883,0.48118 0.60503,0.60503 0.4052,0.62854 -1.3485,0.15863 z m 51.50291,-0.51532 c -0.26815,-0.58853 -0.24134,-0.82651 0.18223,-1.6176 0.58564,-1.09374 1.28795,-1.27729 2.18561,-0.5712 0.83362,0.65573 0.88934,2.41176 0.0787,2.47883 -0.27369,0.0226 -0.86538,0.12192 -1.31486,0.2206 -0.72329,0.1588 -0.85337,0.1001 -1.13164,-0.51063 z m 1.31387,-0.79712 c 0,-0.20955 -0.1143,-0.31036 -0.254,-0.22402 -0.1397,0.0863 -0.254,0.32843 -0.254,0.53798 0,0.20955 0.1143,0.31036 0.254,0.22402 0.1397,-0.0863 0.254,-0.32843 0.254,-0.53798 z m -13.716,-1.59181 c 0,-2.13453 -0.0348,-2.27961 -0.64309,-2.67816 -0.72416,-0.47448 -0.62238,-0.90687 0.21359,-0.9074 0.46114,-2.6e-4 0.63344,-0.26216 1.00549,-1.52824 0.4528,-1.54081 1.8083,-3.38714 2.69284,-3.66788 0.6496,-0.20618 0.60042,-3.26971 -0.0545,-3.39583 -0.54762,-0.10547 -0.41684,-0.64658 0.18445,-0.76318 0.84037,-0.16294 1.23071,0.46689 1.04731,1.6899 -0.0929,0.61959 -0.22926,1.28375 -0.303,1.4759 -0.0899,0.23423 0.12613,0.40142 0.65543,0.50728 1.05604,0.21121 0.99599,0.52468 -0.163,0.851 -1.04095,0.29308 -1.66997,0.75854 -2.54218,1.88115 -0.94834,1.22059 -0.54186,1.88929 0.68332,1.12415 0.36228,-0.22625 0.63246,-0.23057 1.07605,-0.0172 0.45995,0.22124 0.49298,0.28875 0.14781,0.3021 -0.24447,0.009 -0.4445,0.14447 -0.4445,0.30003 0,0.19128 -0.37001,0.22736 -1.143,0.11144 -1.13061,-0.16954 -1.143,-0.16345 -1.143,0.56291 v 0.7343 l 1.39689,-0.25319 c 1.39197,-0.2523 2.08665,-0.0865 1.4043,0.33526 -0.25018,0.15462 -0.0553,0.24674 0.64236,0.30369 0.56011,0.0457 0.94549,0.19369 0.87445,0.33575 -0.13521,0.27043 -0.73998,0.29183 -3.175,0.11234 -1.23526,-0.091 -1.524,-0.0402 -1.524,0.26866 0,0.20955 0.17145,0.381 0.381,0.381 0.3048,0 0.381,0.381 0.381,1.905 0,1.6584 -0.0575,1.90044 -0.4445,1.86973 -0.24447,-0.0194 -0.4445,0.0663 -0.4445,0.1905 0,0.12418 -0.17145,0.22578 -0.381,0.22578 -0.31007,0 -0.381,-0.42009 -0.381,-2.25679 z m 3.48012,1.84224 c -0.21711,-0.21711 -0.22925,-2.28977 -0.018,-3.07795 0.2302,-0.85897 1.02837,-0.73418 1.16281,0.1818 0.18316,1.24798 -0.13544,2.91449 -0.57329,2.99865 -0.21636,0.0416 -0.47354,-0.005 -0.5715,-0.1025 z m -13.91199,-0.59745 c -0.47678,-0.3563 -1.1619,-0.50828 -2.54,-0.56345 -2.27493,-0.0911 -2.43892,-0.58355 -0.19432,-0.58355 h 1.55243 l -0.0208,-3.51279 c -0.0126,-2.11405 -0.13026,-3.64462 -0.2956,-3.84384 -0.20421,-0.24606 -0.16938,-0.37148 0.13566,-0.48853 0.8302,-0.31858 0.92109,0.11496 0.83664,3.99077 l -0.0835,3.83322 1.00783,0.2094 c 1.28509,0.267 1.57689,0.55777 1.06922,1.06544 -0.50356,0.50357 -0.6668,0.4917 -1.46749,-0.10667 z m -32.50715,-2.4327 c -0.26594,-0.32043 -0.2376,-0.44687 0.16308,-0.7277 0.26672,-0.18693 1.03137,-0.79152 1.69922,-1.34354 1.33946,-1.10713 4.21442,-2.662 4.54466,-2.45791 0.42173,0.26065 0.19637,0.86185 -0.32305,0.86185 -0.92392,0 -2.11184,0.72363 -3.96608,2.41596 -1.55758,1.42157 -1.8387,1.58767 -2.11783,1.25134 z m 36.97002,-1.30519 c -0.27939,-0.0654 -0.62593,-0.26852 -0.77008,-0.4513 -0.30763,-0.39009 -1.97767,-0.89137 -2.97641,-0.89339 -0.54156,-0.001 -0.6985,-0.12222 -0.6985,-0.53904 0,-0.4355 0.10856,-0.50731 0.5715,-0.37801 3.30542,0.9232 3.71774,0.98067 4.12362,0.57479 0.83288,-0.83288 2.57675,-2.13918 3.36467,-2.5204 0.90092,-0.4359 2.71028,-1.86469 4.06016,-3.20618 0.54913,-0.54572 0.95439,-0.77183 1.10802,-0.6182 0.44745,0.44744 -2.03901,2.72291 -4.94634,4.52662 -1.26445,0.78446 -3.43851,2.74322 -3.29767,2.9711 0.0693,0.11214 0.46217,0.2039 0.87303,0.2039 0.41085,0 0.747,0.1143 0.747,0.254 0,0.25521 -1.21176,0.29793 -2.159,0.0761 z m 12.827,-0.0188 c 0,-0.13845 0.60008,-0.54937 1.3335,-0.91315 0.73343,-0.36378 2.1336,-1.34526 3.1115,-2.18106 1.00003,-0.85472 1.82239,-1.38987 1.87945,-1.22306 0.12933,0.37812 -2.43371,2.77368 -3.84886,3.59738 -1.25725,0.73179 -2.47559,1.08608 -2.47559,0.71989 z m 12.7719,-0.55746 c -0.97523,-0.59462 -4.40812,-3.35474 -4.88076,-3.92423 -0.28162,-0.33933 -0.26655,-0.40165 0.0971,-0.40165 0.23676,0 1.40444,0.80269 2.59484,1.78376 1.19041,0.98106 2.49659,1.95555 2.90263,2.16552 0.7556,0.39073 0.98944,0.87747 0.42075,0.87577 -0.17462,-5.1e-4 -0.68519,-0.22515 -1.1346,-0.49916 z m -6.81703,-1.69651 c 0.318,-0.9442 0.69115,-1.75438 0.82921,-1.8004 0.4988,-0.16627 1.32201,0.84389 1.49787,1.83802 0.16221,0.91691 0.13965,0.9828 -0.23127,0.67557 -0.22605,-0.18724 -0.48028,-0.55872 -0.56496,-0.8255 -0.23362,-0.73608 -0.49237,-0.59053 -1.02873,0.57866 -0.80603,1.75701 -1.14493,1.44225 -0.50212,-0.46635 z m 6.99913,-2.47127 c 0,-2.03315 -0.0871,-2.7082 -0.381,-2.9521 -0.4769,-0.3958 -0.49245,-0.98917 -0.0306,-1.16641 0.27566,-0.10578 0.33772,-0.78339 0.29086,-3.17591 -0.0407,-2.08093 0.0267,-3.01269 0.21358,-2.95039 0.64752,0.21584 0.76776,2.53701 0.27522,5.31273 -0.15018,0.84632 -0.10681,0.95335 0.43096,1.06349 0.76916,0.15754 4.2286,0.455 5.00025,0.42996 0.36589,-0.0119 0.55169,0.10171 0.48608,0.29715 -0.11997,0.35737 -2.97591,0.39939 -4.57088,0.0673 l -0.9525,-0.19835 -0.0434,2.25574 c -0.0239,1.24065 -0.0689,2.42718 -0.1,2.63673 -0.0311,0.20955 -0.0687,0.52387 -0.0836,0.6985 -0.0148,0.17462 -0.1413,0.3175 -0.281,0.3175 -0.15301,0 -0.254,-1.04797 -0.254,-2.6359 z m -9.51597,0.87536 c -0.22488,-0.43488 -0.94066,-1.0423 -1.72102,-1.4605 l -1.33601,-0.71596 -0.0729,-2.19109 -0.0729,-2.19108 0.70793,-0.13541 c 1.05078,-0.20098 1.54684,0.15496 0.87337,0.62667 -0.38612,0.27045 -0.57755,0.76442 -0.70001,1.80634 -0.16747,1.42492 -0.16321,1.43699 0.66504,1.88634 1.45342,0.7885 2.53653,1.86052 2.53653,2.51054 0,0.82946 -0.41382,0.76557 -0.87997,-0.13585 z M 84.4227,146.40078 c -0.26505,-0.26505 -0.73927,-0.51963 -1.05384,-0.56574 -0.31456,-0.0461 -0.61459,-0.21352 -0.66673,-0.37202 -0.0626,-0.19018 0.53537,-0.33042 1.75811,-0.41235 2.32613,-0.15587 8.74793,-0.031 9.61492,0.18689 l 0.65003,0.16339 -0.0232,-4.33337 c -0.0128,-2.38335 0.0412,-4.33337 0.12001,-4.33337 0.36069,0 0.79888,2.33306 0.62975,3.35296 -0.2726,1.64383 -0.30759,2.97634 -0.11764,4.48062 0.12942,1.02493 0.0878,1.38864 -0.17031,1.48768 -0.1879,0.0721 -0.34162,0.29031 -0.34162,0.48492 0,0.51995 -0.37362,0.4341 -1.22368,-0.28118 -0.96992,-0.81613 -1.97837,-0.81703 -2.7333,-0.003 -0.6417,0.69241 -1.264,0.6317 -1.51128,-0.14743 -0.28646,-0.90254 -2.03934,-0.83118 -3.16728,0.12895 -0.71426,0.60799 -1.26744,0.65896 -1.76389,0.1625 z m -9.408,-0.77657 c 0.0155,-0.46653 3.27694,-2.60997 5.00737,-3.29084 0.45152,-0.17766 1.00893,-0.25087 1.2387,-0.1627 0.22976,0.0882 0.56971,0.0342 0.75543,-0.11995 0.18573,-0.15413 0.45699,-0.20651 0.60281,-0.11639 0.14992,0.0927 0.26513,-0.0537 0.26513,-0.33681 0,-0.38684 0.23287,-0.54 1.02439,-0.67373 0.85516,-0.14448 1.15938,-0.0705 1.8415,0.44803 1.16767,0.88757 2.35083,1.45817 3.02699,1.45981 0.91359,0.002 2.48912,0.50268 2.48912,0.79066 0,0.14311 -0.16004,0.42025 -0.35565,0.61585 -0.30486,0.30486 -0.49528,0.28531 -1.3335,-0.1369 -0.53782,-0.2709 -1.26667,-0.54918 -1.61967,-0.6184 -0.35299,-0.0692 -1.12952,-0.54332 -1.72561,-1.05355 -1.00989,-0.86442 -1.11477,-0.89967 -1.5378,-0.51683 -0.2497,0.22597 -0.52587,0.33899 -0.61372,0.25114 -0.0879,-0.0879 -0.72308,0.31195 -1.41164,0.88845 -1.3577,1.13673 -1.70796,1.28582 -1.45166,0.6179 0.15516,-0.40434 0.13647,-0.40434 -0.31032,0 -0.61007,0.55211 -0.84157,0.54699 -0.64408,-0.0143 0.12768,-0.36285 0.0936,-0.38618 -0.18577,-0.127 -0.1882,0.17463 -0.62166,0.3175 -0.96325,0.3175 -0.71981,0 -2.83221,1.25842 -2.83288,1.68763 -2.5e-4,0.15985 -0.28612,0.27415 -0.63527,0.254 -0.34916,-0.0201 -0.63293,-0.0938 -0.63062,-0.16362 z m 46.98543,-0.74701 c 0,-0.13145 0.1143,-0.30965 0.254,-0.39599 0.1397,-0.0863 0.254,0.0212 0.254,0.23901 0,0.21779 -0.1143,0.39599 -0.254,0.39599 -0.1397,0 -0.254,-0.10755 -0.254,-0.23901 z m -8.128,-1.28499 c 0,-0.1397 -0.14287,-0.22543 -0.3175,-0.1905 -0.45746,0.0915 -0.54371,-1.60985 -0.11153,-2.20027 0.5712,-0.78035 1.19103,-0.34424 1.19103,0.83802 0,0.55176 -0.0694,1.184 -0.15417,1.40498 -0.17006,0.44315 -0.60783,0.54958 -0.60783,0.14777 z m 21.74635,-2.794 c -0.25926,-0.91855 -0.0774,-4.82914 0.22465,-4.83061 0.34593,-0.002 0.44849,2.35956 0.17672,4.06861 -0.18439,1.15962 -0.2526,1.2891 -0.40137,0.762 z m -5.15105,-0.14408 c -0.28204,-0.73499 0.10559,-3.42918 0.56669,-3.93869 1.01439,-1.12089 2.14201,-0.15621 2.14201,1.83251 0,1.3073 -0.1847,1.99626 -0.53517,1.99626 -0.12475,0 -0.22683,-0.6718 -0.22683,-1.4929 0,-1.00974 -0.12194,-1.5941 -0.37679,-1.80561 -0.31258,-0.25942 -0.42079,-0.19698 -0.635,0.36644 -0.14201,0.37353 -0.25821,1.30035 -0.25821,2.05961 0,1.32557 -0.35002,1.8337 -0.6767,0.98238 z m 7.5347,-2.64992 c 0,-1.83025 0.21674,-2.45476 0.62352,-1.79659 0.21604,0.34957 -0.15287,3.82859 -0.40599,3.82859 -0.11964,0 -0.21753,-0.9144 -0.21753,-2.032 z m -25.73485,1.61248 c -0.50577,-0.50577 0.52505,-3.13648 1.22902,-3.13648 0.39583,0 0.47092,-0.5083 0.21574,-1.4605 -0.0901,-0.33616 -0.35015,-0.5715 -0.63153,-0.5715 -0.62773,0 -0.61144,-0.41891 0.0296,-0.762 0.2794,-0.14953 0.508,-0.4393 0.508,-0.64394 0,-0.20463 0.1143,-0.37206 0.254,-0.37206 0.1397,0 0.254,0.12935 0.254,0.28744 0,0.18873 0.34892,0.24065 1.016,0.15117 1.26868,-0.17016 1.41269,0.38997 0.1905,0.741 -0.72011,0.20682 -0.82814,0.34933 -0.84617,1.11624 -0.0114,0.48353 -0.10896,1.07821 -0.21686,1.32151 -0.13973,0.31509 -0.0607,0.4904 0.27468,0.60935 0.81563,0.28927 1.61385,1.17291 1.61385,1.78656 0,0.77474 -0.45724,0.75731 -0.75612,-0.0288 -0.30164,-0.79336 -0.9696,-1.14654 -1.85008,-0.97823 -0.54717,0.1046 -0.69663,0.27589 -0.69968,0.8019 -0.004,0.76443 -0.32843,1.39491 -0.58497,1.13837 z m 6.17685,-0.0918 c -0.43524,-0.2851 0.10617,-0.81785 3.81,-3.74903 1.18745,-0.93974 2.42979,-2.02705 2.76076,-2.41624 0.52666,-0.61933 1.77622,-1.45138 2.17963,-1.45138 0.81503,0 -1.97817,2.82255 -4.38165,4.42769 -1.01984,0.6811 -2.29155,1.73515 -2.82602,2.34233 -1.08013,1.22709 -1.0158,1.19178 -1.54272,0.84663 z m 17.88328,-3.79042 c -0.12665,-0.11864 -2.19566,-0.31693 -4.59779,-0.44065 -2.40213,-0.12372 -4.45273,-0.31016 -4.55688,-0.41431 -0.10415,-0.10415 0.008,-0.38667 0.2492,-0.62782 0.35988,-0.35978 0.47701,-0.37627 0.65283,-0.0919 0.25438,0.41144 4.82127,0.73989 7.54227,0.54243 1.4937,-0.10839 1.75032,-0.19654 1.75162,-0.60163 0.001,-0.36918 0.21479,-0.48758 0.96136,-0.53291 1.1413,-0.0693 1.48142,0.27664 0.60107,0.61135 -0.34409,0.13082 -0.69732,0.35388 -0.78496,0.4957 -0.32744,0.52979 -1.59561,1.26873 -1.81872,1.05972 z m -0.10328,-3.78833 c 0,-1.1192 0.4465,-2.5779 0.78907,-2.5779 0.20755,0 0.082,2.42913 -0.1673,3.2385 -0.21385,0.6941 -0.62177,0.26071 -0.62177,-0.6606 z m -7.27209,0.1526 c 0.0842,-0.31433 0.15472,-1.12117 0.15663,-1.79299 0.002,-0.74888 0.10174,-1.16075 0.25746,-1.06451 0.27636,0.1708 0.34913,2.37756 0.0998,3.02723 -0.23894,0.62266 -0.68664,0.4748 -0.51392,-0.16973 z m 2.66494,0.31302 c -0.62544,-0.36526 -0.78211,-1.40356 -0.36311,-2.40638 0.32498,-0.7778 0.48523,-0.89114 1.2599,-0.89114 1.54688,0 2.17819,1.58206 1.15193,2.88675 -0.53975,0.68617 -1.312,0.84101 -2.04872,0.41077 z m 1.25435,-0.80832 c 0.16764,-0.16764 0.3048,-0.61084 0.3048,-0.9849 0,-0.75549 -0.60788,-1.45115 -0.88137,-1.00863 -0.0905,0.14648 0.0136,0.26633 0.23138,0.26633 0.41228,0 0.50584,0.43421 0.24182,1.12223 -0.22202,0.57857 -0.55632,0.4942 -0.67247,-0.16973 -0.0882,-0.50423 -0.12353,-0.5188 -0.30008,-0.12377 -0.1195,0.26737 -0.0738,0.59992 0.11341,0.8255 0.37963,0.45743 0.56407,0.47141 0.96251,0.073 z m 5.92077,-3.5985 c -0.40741,-0.49091 -0.0203,-0.75329 2.81056,-1.90514 3.3927,-1.38045 4.77565,-1.68022 5.97809,-1.29584 1.79071,0.57244 1.85497,1.31807 0.0674,0.78251 -0.91927,-0.27542 -1.09361,-0.25338 -1.68689,0.2133 -0.36392,0.28626 -0.84628,0.52122 -1.07192,0.52214 -0.22564,9.2e-4 -0.75315,0.22877 -1.17225,0.50633 -0.93653,0.62024 -1.32238,0.65375 -0.8566,0.0744 0.19173,-0.23848 -0.0515,-0.14104 -0.5404,0.21653 -1.38491,1.0128 -1.70737,1.12406 -1.016,0.35057 l 0.635,-0.71043 -0.635,0.32634 c -0.34925,0.17949 -0.90759,0.5379 -1.24075,0.79647 -0.72404,0.56193 -0.89329,0.57828 -1.27128,0.12283 z m -9.67997,-0.30031 c 0,-0.0768 0.1851,-0.50542 0.41132,-0.9525 0.51118,-1.01024 1.52815,-1.87908 2.44618,-2.08987 l 0.6985,-0.16038 v -3.13795 -3.13795 l -0.67891,-0.0804 c -0.93148,-0.11027 -1.04808,-0.6589 -0.16165,-0.76055 0.6425,-0.0737 0.72134,-0.18932 0.79167,-1.16132 0.0532,-0.735 0.19503,-1.0795 0.4445,-1.0795 0.25813,0 0.36639,0.30022 0.36639,1.016 0,0.83223 0.0881,1.016 0.48723,1.016 0.71859,0 1.308,0.27465 1.14732,0.53462 -0.0773,0.12506 -0.46765,0.22738 -0.86747,0.22738 h -0.72694 l -0.0836,1.95848 c -0.12638,2.96173 0.0304,4.64552 0.43249,4.64552 0.4439,0 2.75976,1.99371 2.8726,2.47301 0.048,0.20388 -0.68296,-0.15889 -1.63854,-0.81319 -1.3457,-0.92143 -1.86762,-1.14631 -2.37265,-1.02234 -1.00282,0.24615 -1.78163,0.84251 -2.34315,1.79422 -0.28242,0.47866 -0.67365,0.8703 -0.86941,0.8703 -0.19575,0 -0.35591,-0.0628 -0.35591,-0.13961 z m 19.69186,-1.1193 c -0.1016,-0.16439 -0.1447,-0.33601 -0.0958,-0.38138 0.25204,-0.23377 4.09364,-1.1459 5.37874,-1.2771 0.8139,-0.0831 2.05822,-0.26078 2.76517,-0.39485 0.70695,-0.13407 2.26989,-0.24599 3.47319,-0.24872 2.67808,-0.006 7.13045,-0.58459 8.63327,-1.12176 1.38208,-0.49402 1.91581,-0.50036 2.30833,-0.0274 0.43731,0.52693 0.10407,0.96366 -0.46441,0.60864 -0.34924,-0.2181 -0.72381,-0.16002 -1.67152,0.2592 -0.72283,0.31974 -1.75257,0.5413 -2.52262,0.54277 -0.84923,0.002 -1.77318,0.22219 -2.65994,0.635 -1.53167,0.71303 -1.92215,0.7925 -1.19623,0.24344 0.59135,-0.44727 0.32799,-0.49107 -0.44624,-0.0742 -0.30514,0.16429 -1.41109,0.32582 -2.45765,0.35894 -1.6936,0.0536 -1.84886,0.0208 -1.41195,-0.29871 0.26999,-0.19742 0.38332,-0.35879 0.25184,-0.3586 -0.60385,8.9e-4 -4.37884,0.74959 -5.01917,0.99548 -0.39387,0.15125 -0.99395,0.20527 -1.3335,0.12005 -0.35918,-0.0901 -0.61738,-0.0438 -0.61738,0.1108 0,0.14616 -0.20002,0.26292 -0.4445,0.25945 -0.24447,-0.003 -0.85859,0.0734 -1.3647,0.17078 -0.60582,0.11658 -0.98333,0.075 -1.10494,-0.12182 z m 12.95386,-1.48604 c -0.0782,-0.0782 -0.28315,-1.6e-4 -0.45545,0.17343 -0.24899,0.25086 -0.21981,0.28003 0.14219,0.14219 0.2505,-0.0954 0.39147,-0.23741 0.31326,-0.31562 z"
       id="path1415" />
  </g>
</svg>
