<?xml version="1.0" encoding="UTF-8"?> <svg xmlns="http://www.w3.org/2000/svg" id="Layer_1" data-name="Layer 1" viewBox="0 0 852.7 285.63"><defs><style>.cls-1,.cls-2{fill:#0194cc;}.cls-2{fill-rule:evenodd;}</style></defs><title>Logo-Optics11-Life</title><path class="cls-1" d="M537.44,571.58c-.25.17-.5.33-.75.51l-3.54,2.4c-4.65,3.3-9.55,6.21-14.31,9.33-9.75,5.89-19.69,11.45-29.93,16.51a272.15,272.15,0,0,1-31.73,13.43l-.44.14.14.76.46,0a95.73,95.73,0,0,0,17.41-3.14l4.26-1.2,4.21-1.33c1.4-.48,2.81-.91,4.18-1.44l4.12-1.58a198.08,198.08,0,0,0,31.4-15.9c2.44-1.6,4.89-3.2,7.32-4.84,1.2-.82,2.45-1.58,3.61-2.47l3.51-2.62c1.61-1.22,3.22-2.42,4.81-3.65C540.52,574.89,539,573.26,537.44,571.58Z" transform="translate(-74 -357)"></path><path class="cls-1" d="M652.4,417.58c2.36-2.31,4.88-4.49,7-7,1.11-1.23,2.2-2.48,3.3-3.73s2.06-2.61,3.08-3.91c2.07-2.6,3.87-5.41,5.71-8.17a110.17,110.17,0,0,0,9-17.77c2.35-6.21,4.28-12.62,4.73-19.3l0-.51-.79-.17-.22.46a165.42,165.42,0,0,1-9.34,16.73c-3.35,5.37-6.95,10.53-10.67,15.58-2,2.45-3.77,5-5.81,7.4-1,1.22-1.94,2.47-2.94,3.67s-2,2.39-3,3.6l-1.5,1.82L649.41,408l-3.08,3.59c-1.33,1.56-2.71,3.08-4.06,4.65q4.35,1.17,8.52,2.67C651.32,418.49,651.87,418.05,652.4,417.58Z" transform="translate(-74 -357)"></path><path class="cls-1" d="M504.2,526.75c.25,16.31,15.54,20.51,29.3,20.51,14.39,0,24.59-5.48,24.59-15.41,0-8.28-6.5-11.72-17-13.51l-20.63-3.44c-10.83-1.78-27-6.11-27-23.82,0-16.56,13.12-27.64,36.43-27.64,18.21,0,37.46,6.62,38.73,28.53h-13.5c-1.15-7.13-5.23-16.81-27-16.81-9.94,0-21.15,4.2-21.15,14.9,0,5.61,3.7,10.07,14.91,12l22.29,3.82.19,0c7.29,1.29,27.2,4.83,27.2,23.27,0,23.19-20.77,29.81-39.11,29.81-20.51,0-41.79-7.13-41.79-32.23Z" transform="translate(-74 -357)"></path><path class="cls-2" d="M181.54,465.73h46.88c20,0,30.45,9.17,30.45,26.12s-10.45,28.4-29.56,28.4H195.05v36.44H181.54Zm46,42.81c13.38,0,17.84-7.27,17.84-16.44,0-8.66-5.1-14.65-15.42-14.65h-34.9v31.09Z" transform="translate(-74 -357)"></path><path class="cls-1" d="M297.71,477.45h-34.4V465.73h82.3v11.72h-34.4v79.24h-13.5Z" transform="translate(-74 -357)"></path><path class="cls-1" d="M370.18,556.69h-13.5v-91h13.5Z" transform="translate(-74 -357)"></path><path class="cls-1" d="M400.15,511a33.06,33.06,0,0,0,65.43,6.74h14a46.87,46.87,0,1,1,0-13.48h-14A33.06,33.06,0,0,0,400.15,511Z" transform="translate(-74 -357)"></path><path class="cls-1" d="M120.33,544.06A33.06,33.06,0,1,0,88,504.27H74a46.87,46.87,0,1,1,0,13.48H88A33.06,33.06,0,0,0,120.33,544.06Z" transform="translate(-74 -357)"></path><path class="cls-1" d="M563.2,566.57A56.65,56.65,0,0,1,549.3,571a89,89,0,0,0,60.64,29.43V465.8H596.47L589,479.27h7.43V585.05A76.64,76.64,0,0,1,563.2,566.57Z" transform="translate(-74 -357)"></path><path class="cls-1" d="M636.69,598.21a90.26,90.26,0,0,1-13.47,2.14V479.27H615.8l7.42-13.47h13.47V584.65A76.57,76.57,0,1,0,561.5,457a50.94,50.94,0,0,0-13.14-5,89.66,89.66,0,1,1,88.33,146.26Z" transform="translate(-74 -357)"></path><path class="cls-1" d="M701.87,359.42c.16,5.64.55,11.38,1,17.06s1.05,11.37,1.75,17c1.34,11.34,3.11,22.62,5.2,33.84s4.53,22.34,7.37,33.36c.67,2.77,1.46,5.5,2.19,8.25l1.1,4.12,1.16,4.1c1.52,5.47,3.19,10.9,4.76,16.35,1.72,5.41,3.27,10.86,5.09,16.24,1.64,5.43,3.52,10.77,5.2,16.2l2.71,8.06,1.36,4,1.44,4c1,2.67,1.89,5.36,2.88,8l3.08,8a490.2,490.2,0,0,0,29.62,61.74v0A1.09,1.09,0,0,1,776,621l-5.12-7-2.55-3.5c-.84-1.18-1.63-2.39-2.45-3.58L761,599.74c-1.58-2.42-3.07-4.9-4.61-7.36-3.12-4.89-5.95-10-8.86-15-1.42-2.54-2.73-5.12-4.11-7.68s-2.74-5.12-4-7.74c-5.28-10.36-10-21-14.4-31.78a324.37,324.37,0,0,1-11-33.13c-1.48-5.62-2.94-11.25-4.14-16.94l-1-4.25-.86-4.27c-.54-2.86-1.15-5.7-1.63-8.56q-3.13-17.13-5.18-34.4c-1.38-11.5-2.42-23-3-34.59s-.89-23.08-.42-34.73a2,2,0,0,1,4,0Z" transform="translate(-74 -357)"></path><path class="cls-1" d="M786,559.43h-7.39v-94.5H786Z" transform="translate(-74 -357)"></path><path class="cls-1" d="M805.56,473.63a4.93,4.93,0,0,1,1.35-3.51,4.85,4.85,0,0,1,3.7-1.44,4.93,4.93,0,0,1,3.72,1.44,4.87,4.87,0,0,1,1.38,3.51,4.79,4.79,0,0,1-1.38,3.49,5,5,0,0,1-3.72,1.4,4.94,4.94,0,0,1-3.7-1.4A4.85,4.85,0,0,1,805.56,473.63Zm8.68,85.8h-7.39V492.86h7.39Z" transform="translate(-74 -357)"></path><path class="cls-1" d="M839.52,559.43V498.89h-11v-6h11V484.8q0-10.21,5.2-15.69t14.49-5.48a28.36,28.36,0,0,1,7.81,1l-.55,6.1a28.86,28.86,0,0,0-6.71-.74q-6.09,0-9.47,3.8t-3.39,10.76v8.27h15.88v6H846.9v60.54Z" transform="translate(-74 -357)"></path><path class="cls-1" d="M901.72,560.66a28.89,28.89,0,0,1-15.35-4.19,28.47,28.47,0,0,1-10.67-11.66,36.24,36.24,0,0,1-3.82-16.76V525.4a39,39,0,0,1,3.73-17.28A29.55,29.55,0,0,1,886,496a25.53,25.53,0,0,1,14.4-4.4q12.12,0,19.22,8.27t7.11,22.61v4.12H879.2v1.42q0,11.33,6.5,18.86A20.64,20.64,0,0,0,902,554.44a23.94,23.94,0,0,0,10.43-2.15,23.18,23.18,0,0,0,8.21-6.89l4.62,3.51Q917.16,560.66,901.72,560.66Zm-1.35-62.76a18.42,18.42,0,0,0-14,6.09q-5.68,6.09-6.92,16.37h39.93v-.8q-.32-9.6-5.48-15.63A17,17,0,0,0,900.37,497.9Z" transform="translate(-74 -357)"></path><path class="cls-1" d="M443.76,628.19c14-2.31,28-4.39,42-6.35s28.07-3.69,42.13-5.32c28.13-3.24,56.35-5.79,84.66-7.46,7.09-.38,14.17-.7,21.27-.81s14.19-.14,21.29-.14,14.21.06,21.32.27,14.23.45,21.35,1,14.23,1.24,21.32,2.26A156.2,156.2,0,0,1,740.22,616a87.72,87.72,0,0,1,10.28,3.72,59.15,59.15,0,0,1,9.72,5.22,33.36,33.36,0,0,1,8.2,7.53,18.72,18.72,0,0,1,3.92,10.14,20.56,20.56,0,0,0-5.84-8.4,28.24,28.24,0,0,0-4.06-3,40.56,40.56,0,0,0-4.45-2.41,94.44,94.44,0,0,0-19.5-6.18c-6.72-1.53-13.57-2.73-20.47-3.69s-13.86-1.63-20.84-2.24c-14-1.16-28-1.73-42.1-1.71-7,0-14.08.17-21.12.36l-21.14.61c-28.19.79-56.38,2.6-84.54,4.84q-21.12,1.68-42.22,3.79c-14.06,1.37-28.13,2.85-42.16,4.56l-.49.06-.14-1Z" transform="translate(-74 -357)"></path></svg> 