<?xml version="1.0" encoding="utf-8"?>
<!-- Generator: Adobe Illustrator 19.2.0, SVG Export Plug-In . SVG Version: 6.00 Build 0)  -->
<svg version="1.1"
	 id="svg2" inkscape:version="0.48.5 r10040" sodipodi:docname="2.svg" xmlns:cc="http://creativecommons.org/ns#" xmlns:dc="http://purl.org/dc/elements/1.1/" xmlns:inkscape="http://www.inkscape.org/namespaces/inkscape" xmlns:rdf="http://www.w3.org/1999/02/22-rdf-syntax-ns#" xmlns:sodipodi="http://sodipodi.sourceforge.net/DTD/sodipodi-0.dtd" xmlns:svg="http://www.w3.org/2000/svg"
	 xmlns="http://www.w3.org/2000/svg" xmlns:xlink="http://www.w3.org/1999/xlink" x="0px" y="0px" viewBox="0 0 180.5 38.3"
	 style="enable-background:new 0 0 180.5 38.3;" xml:space="preserve">
<style type="text/css">
	.st0{fill:url(#rect3805-2_2_);}
	.st1{fill:url(#rect3805-8-45_2_);}
	.st2{fill:url(#rect3805-2_3_);}
	.st3{fill:url(#rect3805-8-45_3_);}
	.st4{fill:#FFFFFF;}
</style>
<sodipodi:namedview  bordercolor="#666666" borderopacity="1.0" fit-margin-bottom="0" fit-margin-left="0" fit-margin-right="0" fit-margin-top="0" id="base" inkscape:current-layer="layer1" inkscape:cx="172.67133" inkscape:cy="39.323361" inkscape:document-units="px" inkscape:pageopacity="0.0" inkscape:pageshadow="2" inkscape:window-height="660" inkscape:window-maximized="1" inkscape:window-width="1280" inkscape:window-x="-8" inkscape:window-y="-8" inkscape:zoom="1" pagecolor="#ffffff" showgrid="false">
	</sodipodi:namedview>
<linearGradient id="rect3805-2_2_" gradientUnits="userSpaceOnUse" x1="244.0225" y1="-5021.709" x2="499.9393" y2="-5021.709" gradientTransform="matrix(0.7017 0 0 -5.497357e-02 -171.2041 -251.8577)">
	<stop  offset="0" style="stop-color:#FF0000"/>
	<stop  offset="1" style="stop-color:#FF0000;stop-opacity:0"/>
</linearGradient>
<rect id="rect3805-2" x="0" y="22.7" class="st0" width="179.6" height="3"/>
<linearGradient id="rect3805-8-45_2_" gradientUnits="userSpaceOnUse" x1="-1133.5909" y1="-4903.9385" x2="-877.6742" y2="-4903.9385" gradientTransform="matrix(-0.6988 0 0 -5.497358e-02 -612.49 -245.3834)">
	<stop  offset="0" style="stop-color:#FFFF00"/>
	<stop  offset="1" style="stop-color:#FFFF00;stop-opacity:0"/>
</linearGradient>
<rect id="rect3805-8-45" x="0.8" y="22.7" class="st1" width="178.8" height="3"/>
<g id="text2985-2">
	<path id="path3039" d="M5.9,0v18.1h3.6v4.5H0V0H5.9z"/>
	<path id="path3041" d="M16.5,0v2.9h-5.8V0H16.5z M16.5,4.1v18.5h-5.8V4.1L16.5,4.1z"/>
	<path id="path3043" d="M31.3,4.1v14.3c0,1.9,0,3.2-0.1,3.7s-0.4,1.2-0.9,1.8C29.7,24.5,29,25,28,25.3c-1,0.3-2.2,0.5-3.6,0.5
		c-1.8,0-3.2-0.3-4.3-0.9c-1.1-0.6-1.7-1.8-1.7-3.6h5.5c0,0.8,0.3,1.2,0.9,1.2c0.4,0,0.7-0.1,0.9-0.4c0.1-0.3,0.2-0.8,0.2-1.6v-1.4
		c-0.5,0.4-1,0.8-1.5,1s-1.1,0.3-1.7,0.3c-1,0-1.8-0.2-2.5-0.6c-0.7-0.4-1.1-0.9-1.3-1.6c-0.2-0.7-0.4-1.6-0.4-2.8V8.7
		c0-1.8,0.3-3,0.9-3.8c0.6-0.8,1.6-1.2,2.9-1.2c0.7,0,1.4,0.1,1.9,0.4c0.6,0.3,1.1,0.7,1.6,1.3l0.4-1.4L31.3,4.1z M25.7,9
		c0-0.8,0-1.4-0.1-1.6C25.5,7.1,25.2,7,24.9,7c-0.3,0-0.6,0.1-0.7,0.4C24.1,7.7,24,8.2,24,9v6.2c0,0.8,0.1,1.4,0.2,1.6
		c0.1,0.2,0.3,0.4,0.6,0.4c0.4,0,0.6-0.1,0.7-0.4c0.1-0.3,0.2-1,0.2-2V9z"/>
	<path id="path3045" d="M39,0v5.1c0.5-0.4,1-0.8,1.6-1c0.6-0.2,1.2-0.3,1.8-0.3c1,0,1.8,0.3,2.5,0.8C45.6,5,46,5.6,46.2,6.2
		c0.2,0.7,0.2,1.9,0.2,3.6v12.8h-5.6v-13c0-1.1-0.1-1.8-0.2-2.1C40.5,7.2,40.3,7,39.9,7c-0.3,0-0.6,0.2-0.7,0.5
		C39.1,7.8,39,8.4,39,9.4v13.2h-5.6V0L39,0z"/>
	<path id="path3047" d="M54.3,1.6v2.9h1.5v2.9h-1.5v9.9c0,1.2,0.1,1.9,0.2,2c0.1,0.1,0.6,0.2,1.6,0.2v3h-2.3c-1.3,0-2.2-0.1-2.7-0.2
		c-0.5-0.1-1-0.4-1.5-0.7c-0.4-0.4-0.7-0.8-0.8-1.3s-0.2-1.7-0.2-3.5V7.5h-1.2V4.5h1.2V1.6L54.3,1.6z"/>
	<path id="path3049" d="M75.4,0v22.6h-5.1V7.3l-2.1,15.3h-3.6L62.4,7.7v14.9h-5.1V0h7.6c0.2,1.4,0.5,3,0.7,4.8l0.8,5.8L67.7,0
		L75.4,0z"/>
	<path id="path3051" d="M82.6,11.3h-5.3V10c0-1.4,0.2-2.5,0.5-3.3c0.3-0.8,1-1.5,2-2.1c1-0.6,2.3-0.9,3.9-0.9c1.9,0,3.3,0.3,4.3,1
		c1,0.7,1.5,1.5,1.7,2.5c0.2,1,0.3,3,0.3,6.1v9.3h-5.5V21c-0.3,0.7-0.8,1.2-1.3,1.5c-0.5,0.3-1.2,0.5-1.9,0.5c-1,0-1.9-0.3-2.7-0.8
		c-0.8-0.6-1.2-1.8-1.2-3.6v-1.5c0-1.4,0.2-2.3,0.7-2.8c0.4-0.5,1.5-1.1,3.3-1.8c1.9-0.7,2.8-1.2,3-1.5c0.1-0.3,0.2-0.8,0.2-1.5
		c0-1-0.1-1.6-0.2-1.9C84,7.2,83.8,7,83.4,7c-0.4,0-0.6,0.1-0.7,0.4c-0.1,0.2-0.1,0.9-0.1,1.9L82.6,11.3z M84.4,13.8
		c-0.9,0.7-1.4,1.2-1.6,1.7c-0.1,0.4-0.2,1.1-0.2,1.9c0,1,0.1,1.6,0.2,1.9c0.1,0.3,0.4,0.4,0.7,0.4c0.4,0,0.6-0.1,0.7-0.3
		c0.1-0.2,0.2-0.8,0.2-1.7L84.4,13.8z"/>
	<path id="path3053" d="M104.4,11.1h-5.3V8.9c0-0.7-0.1-1.2-0.2-1.5C98.8,7.2,98.6,7,98.3,7c-0.3,0-0.5,0.1-0.7,0.3
		s-0.2,0.8-0.2,1.6v8.7c0,0.7,0.1,1.2,0.3,1.5c0.2,0.3,0.4,0.5,0.7,0.5c0.4,0,0.6-0.2,0.8-0.5c0.1-0.3,0.2-1,0.2-2V15h5
		c0,1.5-0.1,2.6-0.2,3.3c-0.1,0.7-0.4,1.5-0.9,2.3c-0.5,0.8-1.2,1.4-2.1,1.8c-0.8,0.4-1.9,0.6-3.1,0.6c-1.6,0-2.9-0.3-3.8-0.8
		c-0.9-0.5-1.6-1.3-2-2.3c-0.4-1-0.6-2.4-0.6-4.2v-5.3c0-1.6,0.2-2.8,0.5-3.6c0.3-0.8,1-1.5,2-2.1c1-0.6,2.3-0.9,3.8-0.9
		c1.5,0,2.7,0.3,3.8,0.9c1,0.6,1.7,1.4,2.1,2.4C104.2,8,104.4,9.3,104.4,11.1L104.4,11.1z"/>
	<path id="path3055" d="M111.7,0v5.1c0.5-0.4,1-0.8,1.6-1c0.6-0.2,1.2-0.3,1.8-0.3c1,0,1.8,0.3,2.5,0.8c0.7,0.5,1.1,1.1,1.3,1.7
		c0.2,0.7,0.2,1.9,0.2,3.6v12.8h-5.6v-13c0-1.1-0.1-1.8-0.2-2.1C113.2,7.2,113,7,112.6,7c-0.3,0-0.6,0.2-0.7,0.5
		c-0.1,0.3-0.2,0.9-0.2,1.9v13.2h-5.6V0L111.7,0z"/>
	<path id="path3057" d="M126.9,0v2.9H121V0H126.9z M126.9,4.1v18.5H121V4.1L126.9,4.1z"/>
	<path id="path3059" d="M134.6,4.1l-0.1,1.7c0.4-0.7,0.9-1.2,1.5-1.5c0.6-0.3,1.3-0.5,2-0.5c1,0,1.8,0.2,2.4,0.7
		c0.6,0.5,1,1,1.2,1.7c0.2,0.7,0.3,1.8,0.3,3.5v13h-5.6V9.8c0-1.3,0-2.1-0.1-2.3C136,7.2,135.8,7,135.4,7c-0.4,0-0.7,0.2-0.8,0.5
		c-0.1,0.3-0.2,1.2-0.2,2.6v12.5h-5.6V4.1L134.6,4.1z"/>
	<path id="path3061" d="M156.6,13.7h-7.3v4c0,0.8,0.1,1.4,0.2,1.6c0.1,0.2,0.4,0.4,0.7,0.4c0.4,0,0.7-0.2,0.9-0.5s0.2-0.9,0.2-1.9
		v-2.4h5.3v1.4c0,1.1-0.1,2-0.2,2.6s-0.5,1.3-1,2c-0.5,0.7-1.2,1.2-2,1.6c-0.8,0.3-1.8,0.5-3.1,0.5c-1.2,0-2.2-0.2-3.2-0.5
		s-1.6-0.8-2.1-1.4c-0.5-0.6-0.9-1.3-1.1-2c-0.2-0.7-0.3-1.8-0.3-3.1v-5.4c0-1.6,0.2-2.9,0.7-3.8c0.4-0.9,1.2-1.7,2.1-2.1
		c1-0.5,2.1-0.7,3.4-0.7c1.6,0,2.9,0.3,3.9,0.9c1,0.6,1.7,1.4,2.2,2.4c0.4,1,0.6,2.4,0.6,4.2V13.7z M150.9,10.7V9.3
		c0-1-0.1-1.6-0.2-1.9c-0.1-0.3-0.3-0.4-0.6-0.4c-0.4,0-0.6,0.1-0.7,0.4c-0.1,0.2-0.1,0.9-0.1,1.9v1.4L150.9,10.7z"/>
	<path id="path3063" d="M164.1,4.1l-0.2,2.4c0.8-1.7,2-2.7,3.6-2.8v6.5c-1,0-1.8,0.1-2.3,0.4c-0.5,0.3-0.8,0.7-0.9,1.2
		c-0.1,0.5-0.2,1.6-0.2,3.4v7.3h-5.6V4.1H164.1z"/>
	<path id="path3065" d="M180.5,4.1l-1.6,13.4c-0.3,2.1-0.5,3.6-0.6,4.3s-0.5,1.4-0.9,1.9c-0.4,0.5-1,0.9-1.7,1.1
		c-0.7,0.2-1.8,0.4-3.4,0.4h-3.4v-3c0.9,0,1.4,0,1.7-0.1s0.4-0.3,0.4-0.6c0-0.1-0.1-0.8-0.3-1.9l-3.1-15.5h5.1l1.8,12.5l0.9-12.5
		L180.5,4.1z"/>
</g>
<g id="text3867-9" transform="scale(1.0192922,0.98107294)">
	<path id="path3068" d="M0.1,36.6v-8.9h6.5v1.1H1.3v2.7h4.9v1H1.3v3h5.5v1.1H0.1z"/>
	<path id="path3070" d="M7.5,36.6l2.4-3.4l-2.2-3.1h1.4l1,1.5c0.2,0.3,0.3,0.5,0.5,0.7c0.2-0.3,0.3-0.5,0.5-0.7l1.1-1.5h1.3l-2.2,3
		l2.4,3.4h-1.3l-1.3-2l-0.4-0.5l-1.7,2.6H7.5z"/>
	<path id="path3072" d="M18.7,34.2l1.1,0.1c-0.1,0.7-0.4,1.3-0.9,1.7c-0.5,0.4-1.1,0.6-1.8,0.6c-0.9,0-1.6-0.3-2.1-0.9
		c-0.5-0.6-0.8-1.4-0.8-2.5c0-0.7,0.1-1.3,0.3-1.8c0.2-0.5,0.6-0.9,1.1-1.2c0.5-0.3,1-0.4,1.5-0.4c0.7,0,1.3,0.2,1.7,0.5
		c0.4,0.4,0.7,0.9,0.9,1.5l-1.1,0.2c-0.1-0.4-0.3-0.8-0.5-1c-0.3-0.2-0.6-0.3-0.9-0.3c-0.6,0-1,0.2-1.3,0.6c-0.3,0.4-0.5,1-0.5,1.9
		c0,0.9,0.2,1.5,0.5,1.9c0.3,0.4,0.8,0.6,1.3,0.6c0.4,0,0.8-0.1,1.1-0.4C18.5,35.2,18.6,34.8,18.7,34.2L18.7,34.2z"/>
	<path id="path3074" d="M25.2,34.5l1.1,0.1c-0.2,0.7-0.5,1.2-1,1.5s-1.1,0.5-1.9,0.5c-0.9,0-1.7-0.3-2.3-0.9s-0.8-1.4-0.8-2.5
		c0-1.1,0.3-1.9,0.8-2.5c0.6-0.6,1.3-0.9,2.2-0.9c0.9,0,1.6,0.3,2.1,0.9c0.5,0.6,0.8,1.4,0.8,2.5c0,0.1,0,0.2,0,0.3h-4.8
		c0,0.7,0.2,1.3,0.6,1.6c0.4,0.4,0.8,0.6,1.4,0.6c0.4,0,0.7-0.1,1-0.3C24.8,35.3,25,35,25.2,34.5L25.2,34.5z M21.6,32.7h3.6
		c0-0.5-0.2-1-0.4-1.2c-0.3-0.4-0.8-0.6-1.4-0.6c-0.5,0-0.9,0.2-1.3,0.5S21.6,32.2,21.6,32.7L21.6,32.7z"/>
	<path id="path3076" d="M27.7,36.6v-8.9h1.1v8.9H27.7z"/>
	<path id="path3078" d="M30.4,36.6v-8.9h1.1v8.9H30.4z"/>
	<path id="path3080" d="M37.7,34.5l1.1,0.1c-0.2,0.7-0.5,1.2-1,1.5c-0.5,0.4-1.1,0.5-1.9,0.5c-0.9,0-1.7-0.3-2.3-0.9
		s-0.8-1.4-0.8-2.5c0-1.1,0.3-1.9,0.8-2.5c0.6-0.6,1.3-0.9,2.2-0.9c0.9,0,1.6,0.3,2.1,0.9c0.5,0.6,0.8,1.4,0.8,2.5
		c0,0.1,0,0.2,0,0.3H34c0,0.7,0.2,1.3,0.6,1.6c0.4,0.4,0.8,0.6,1.4,0.6c0.4,0,0.7-0.1,1-0.3C37.3,35.3,37.5,35,37.7,34.5L37.7,34.5z
		 M34.1,32.7h3.6c0-0.5-0.2-1-0.4-1.2c-0.3-0.4-0.8-0.6-1.4-0.6c-0.5,0-0.9,0.2-1.3,0.5C34.3,31.7,34.1,32.2,34.1,32.7L34.1,32.7z"
		/>
	<path id="path3082" d="M40.2,36.6v-6.5h1v0.9c0.5-0.7,1.2-1.1,2.1-1.1c0.4,0,0.7,0.1,1.1,0.2c0.3,0.1,0.6,0.3,0.7,0.6
		c0.2,0.2,0.3,0.5,0.3,0.8c0,0.2,0.1,0.6,0.1,1.1v4h-1.1v-3.9c0-0.4,0-0.8-0.1-1c-0.1-0.2-0.2-0.4-0.5-0.5c-0.2-0.1-0.5-0.2-0.8-0.2
		c-0.5,0-0.9,0.1-1.2,0.4c-0.3,0.3-0.5,0.9-0.5,1.7v3.5H40.2z"/>
	<path id="path3084" d="M51.4,34.2l1.1,0.1c-0.1,0.7-0.4,1.3-0.9,1.7s-1.1,0.6-1.8,0.6c-0.9,0-1.6-0.3-2.1-0.9
		c-0.5-0.6-0.8-1.4-0.8-2.5c0-0.7,0.1-1.3,0.3-1.8c0.2-0.5,0.6-0.9,1.1-1.2c0.5-0.3,1-0.4,1.5-0.4c0.7,0,1.3,0.2,1.7,0.5
		c0.4,0.4,0.7,0.9,0.9,1.5l-1.1,0.2c-0.1-0.4-0.3-0.8-0.5-1s-0.6-0.3-0.9-0.3c-0.6,0-1,0.2-1.3,0.6c-0.3,0.4-0.5,1-0.5,1.9
		c0,0.9,0.2,1.5,0.5,1.9c0.3,0.4,0.8,0.6,1.3,0.6c0.4,0,0.8-0.1,1.1-0.4C51.1,35.2,51.3,34.8,51.4,34.2L51.4,34.2z"/>
	<path id="path3086" d="M57.8,34.5l1.1,0.1c-0.2,0.7-0.5,1.2-1,1.5c-0.5,0.4-1.1,0.5-1.9,0.5c-0.9,0-1.7-0.3-2.3-0.9
		c-0.6-0.6-0.8-1.4-0.8-2.5c0-1.1,0.3-1.9,0.8-2.5S55.2,30,56,30c0.9,0,1.6,0.3,2.1,0.9c0.5,0.6,0.8,1.4,0.8,2.5c0,0.1,0,0.2,0,0.3
		h-4.8c0,0.7,0.2,1.3,0.6,1.6c0.4,0.4,0.8,0.6,1.4,0.6c0.4,0,0.7-0.1,1-0.3C57.4,35.3,57.7,35,57.8,34.5L57.8,34.5z M54.2,32.7h3.6
		c0-0.5-0.2-1-0.4-1.2c-0.3-0.4-0.8-0.6-1.4-0.6c-0.5,0-0.9,0.2-1.3,0.5S54.3,32.2,54.2,32.7L54.2,32.7z"/>
	<path id="path3088" d="M63.8,28.9v-1.3h1.1v1.3H63.8z M63.8,36.6v-6.5h1.1v6.5H63.8z"/>
	<path id="path3090" d="M66.6,36.6v-6.5h1v0.9c0.5-0.7,1.2-1.1,2.1-1.1c0.4,0,0.7,0.1,1.1,0.2c0.3,0.1,0.6,0.3,0.7,0.6
		c0.2,0.2,0.3,0.5,0.3,0.8c0,0.2,0.1,0.6,0.1,1.1v4h-1.1v-3.9c0-0.4,0-0.8-0.1-1c-0.1-0.2-0.2-0.4-0.5-0.5c-0.2-0.1-0.5-0.2-0.8-0.2
		c-0.5,0-0.9,0.1-1.2,0.4c-0.3,0.3-0.5,0.9-0.5,1.7v3.5H66.6z"/>
	<path id="path3092" d="M77.1,36.6v-8.9h1.2v7.9h4.4v1.1H77.1z"/>
	<path id="path3094" d="M88.2,35.8c-0.4,0.3-0.8,0.6-1.2,0.7c-0.4,0.1-0.8,0.2-1.2,0.2c-0.7,0-1.3-0.2-1.6-0.5
		c-0.4-0.3-0.6-0.8-0.6-1.3c0-0.3,0.1-0.6,0.2-0.9c0.1-0.3,0.3-0.5,0.6-0.6s0.5-0.3,0.8-0.4c0.2-0.1,0.5-0.1,1-0.2
		c0.9-0.1,1.5-0.2,2-0.4c0-0.2,0-0.2,0-0.3c0-0.4-0.1-0.8-0.3-0.9c-0.3-0.2-0.7-0.4-1.2-0.4c-0.5,0-0.9,0.1-1.1,0.3
		c-0.2,0.2-0.4,0.5-0.5,1L83.8,32c0.1-0.5,0.3-0.8,0.5-1.1s0.5-0.5,1-0.7s0.9-0.2,1.5-0.2c0.6,0,1,0.1,1.3,0.2
		c0.3,0.1,0.6,0.3,0.8,0.5s0.3,0.4,0.3,0.7c0,0.2,0.1,0.5,0.1,1v1.5c0,1,0,1.7,0.1,1.9c0,0.3,0.1,0.5,0.3,0.8h-1.1
		C88.3,36.4,88.2,36.1,88.2,35.8L88.2,35.8z M88.1,33.4c-0.4,0.2-1,0.3-1.8,0.4c-0.5,0.1-0.8,0.1-1,0.2c-0.2,0.1-0.3,0.2-0.4,0.4
		c-0.1,0.2-0.2,0.3-0.2,0.5c0,0.3,0.1,0.5,0.3,0.7s0.5,0.3,1,0.3c0.4,0,0.8-0.1,1.1-0.3c0.3-0.2,0.6-0.4,0.7-0.8
		c0.1-0.2,0.2-0.6,0.2-1.1L88.1,33.4z"/>
	<path id="path3096" d="M90.4,34.7l1.1-0.2c0.1,0.4,0.2,0.8,0.5,1c0.3,0.2,0.7,0.3,1.2,0.3c0.5,0,0.9-0.1,1.1-0.3
		c0.2-0.2,0.4-0.4,0.4-0.7c0-0.2-0.1-0.4-0.3-0.6c-0.2-0.1-0.5-0.2-1.1-0.4c-0.8-0.2-1.4-0.4-1.7-0.5S91,33,90.9,32.7
		c-0.2-0.3-0.2-0.6-0.2-0.9c0-0.3,0.1-0.6,0.2-0.8c0.1-0.2,0.3-0.5,0.5-0.6c0.2-0.1,0.4-0.2,0.7-0.3C92.4,30,92.7,30,93,30
		c0.5,0,1,0.1,1.3,0.2c0.4,0.1,0.7,0.3,0.9,0.6s0.3,0.6,0.4,1l-1.1,0.1c0-0.3-0.2-0.6-0.4-0.8c-0.2-0.2-0.6-0.3-1-0.3
		c-0.5,0-0.9,0.1-1.1,0.2s-0.3,0.4-0.3,0.6c0,0.1,0,0.3,0.1,0.4c0.1,0.1,0.2,0.2,0.4,0.3c0.1,0,0.4,0.1,1,0.3
		c0.8,0.2,1.3,0.4,1.6,0.5c0.3,0.1,0.5,0.3,0.7,0.6c0.2,0.3,0.3,0.6,0.3,0.9c0,0.4-0.1,0.7-0.3,1c-0.2,0.3-0.5,0.6-0.9,0.7
		c-0.4,0.2-0.9,0.3-1.4,0.3c-0.8,0-1.5-0.2-1.9-0.5S90.6,35.4,90.4,34.7L90.4,34.7z"/>
	<path id="path3098" d="M101.6,34.5l1.1,0.1c-0.2,0.7-0.5,1.2-1,1.5c-0.5,0.4-1.1,0.5-1.9,0.5c-0.9,0-1.7-0.3-2.3-0.9
		c-0.6-0.6-0.8-1.4-0.8-2.5c0-1.1,0.3-1.9,0.8-2.5s1.3-0.9,2.2-0.9c0.9,0,1.6,0.3,2.1,0.9c0.5,0.6,0.8,1.4,0.8,2.5
		c0,0.1,0,0.2,0,0.3h-4.8c0,0.7,0.2,1.3,0.6,1.6c0.4,0.4,0.8,0.6,1.4,0.6c0.4,0,0.7-0.1,1-0.3C101.2,35.3,101.4,35,101.6,34.5
		L101.6,34.5z M98,32.7h3.6c0-0.5-0.2-1-0.4-1.2c-0.3-0.4-0.8-0.6-1.4-0.6c-0.5,0-0.9,0.2-1.3,0.5C98.2,31.7,98,32.2,98,32.7
		L98,32.7z"/>
	<path id="path3100" d="M104.1,36.6v-6.5h1v1c0.3-0.5,0.5-0.8,0.7-0.9c0.2-0.1,0.4-0.2,0.7-0.2c0.4,0,0.7,0.1,1.1,0.4l-0.4,1
		c-0.3-0.2-0.5-0.2-0.8-0.2c-0.2,0-0.5,0.1-0.6,0.2c-0.2,0.1-0.3,0.3-0.4,0.6c-0.1,0.4-0.2,0.8-0.2,1.3v3.4H104.1z"/>
	<path id="path3102" d="M107.8,34.7l1.1-0.2c0.1,0.4,0.2,0.8,0.5,1c0.3,0.2,0.7,0.3,1.2,0.3c0.5,0,0.9-0.1,1.1-0.3
		c0.2-0.2,0.4-0.4,0.4-0.7c0-0.2-0.1-0.4-0.3-0.6c-0.2-0.1-0.5-0.2-1.1-0.4c-0.8-0.2-1.4-0.4-1.7-0.5s-0.5-0.4-0.7-0.6
		c-0.2-0.3-0.2-0.6-0.2-0.9c0-0.3,0.1-0.6,0.2-0.8c0.1-0.2,0.3-0.5,0.5-0.6c0.2-0.1,0.4-0.2,0.7-0.3c0.3-0.1,0.6-0.1,0.9-0.1
		c0.5,0,1,0.1,1.3,0.2c0.4,0.1,0.7,0.3,0.9,0.6s0.3,0.6,0.4,1l-1.1,0.1c0-0.3-0.2-0.6-0.4-0.8c-0.2-0.2-0.6-0.3-1-0.3
		c-0.5,0-0.9,0.1-1.1,0.2c-0.2,0.2-0.3,0.4-0.3,0.6c0,0.1,0,0.3,0.1,0.4c0.1,0.1,0.2,0.2,0.4,0.3c0.1,0,0.4,0.1,1,0.3
		c0.8,0.2,1.3,0.4,1.6,0.5c0.3,0.1,0.5,0.3,0.7,0.6c0.2,0.3,0.3,0.6,0.3,0.9c0,0.4-0.1,0.7-0.3,1s-0.5,0.6-0.9,0.7
		c-0.4,0.2-0.9,0.3-1.4,0.3c-0.8,0-1.5-0.2-1.9-0.5S107.9,35.4,107.8,34.7L107.8,34.7z"/>
	<path id="path3104" d="M122.2,35.8c-0.4,0.3-0.8,0.6-1.2,0.7c-0.4,0.1-0.8,0.2-1.2,0.2c-0.7,0-1.3-0.2-1.6-0.5s-0.6-0.8-0.6-1.3
		c0-0.3,0.1-0.6,0.2-0.9c0.1-0.3,0.3-0.5,0.6-0.6c0.2-0.2,0.5-0.3,0.8-0.4c0.2-0.1,0.5-0.1,1-0.2c0.9-0.1,1.5-0.2,2-0.4
		c0-0.2,0-0.2,0-0.3c0-0.4-0.1-0.8-0.3-0.9c-0.3-0.2-0.7-0.4-1.2-0.4c-0.5,0-0.9,0.1-1.1,0.3c-0.2,0.2-0.4,0.5-0.5,1l-1.1-0.1
		c0.1-0.5,0.3-0.8,0.5-1.1c0.2-0.3,0.5-0.5,1-0.7c0.4-0.2,0.9-0.2,1.5-0.2c0.6,0,1,0.1,1.3,0.2c0.3,0.1,0.6,0.3,0.8,0.5
		c0.2,0.2,0.3,0.4,0.3,0.7c0,0.2,0.1,0.5,0.1,1v1.5c0,1,0,1.7,0.1,1.9c0,0.3,0.1,0.5,0.3,0.8h-1.1C122.3,36.4,122.2,36.1,122.2,35.8
		L122.2,35.8z M122.1,33.4c-0.4,0.2-1,0.3-1.8,0.4c-0.5,0.1-0.8,0.1-1,0.2c-0.2,0.1-0.3,0.2-0.4,0.4c-0.1,0.2-0.2,0.3-0.2,0.5
		c0,0.3,0.1,0.5,0.3,0.7s0.5,0.3,1,0.3c0.4,0,0.8-0.1,1.1-0.3c0.3-0.2,0.6-0.4,0.7-0.8c0.1-0.2,0.2-0.6,0.2-1.1V33.4z"/>
	<path id="path3106" d="M124.9,36.6v-6.5h1v0.9c0.5-0.7,1.2-1.1,2.1-1.1c0.4,0,0.7,0.1,1.1,0.2c0.3,0.1,0.6,0.3,0.7,0.6
		c0.2,0.2,0.3,0.5,0.3,0.8c0,0.2,0.1,0.6,0.1,1.1v4h-1.1v-3.9c0-0.4,0-0.8-0.1-1c-0.1-0.2-0.2-0.4-0.5-0.5c-0.2-0.1-0.5-0.2-0.8-0.2
		c-0.5,0-0.9,0.1-1.2,0.4c-0.3,0.3-0.5,0.9-0.5,1.7v3.5H124.9z"/>
	<path id="path3108" d="M136,36.6v-0.8c-0.4,0.6-1,1-1.8,1c-0.5,0-1-0.1-1.4-0.4c-0.4-0.3-0.8-0.7-1-1.2c-0.2-0.5-0.4-1.1-0.4-1.8
		c0-0.6,0.1-1.2,0.3-1.8c0.2-0.5,0.5-0.9,1-1.2c0.4-0.3,0.9-0.4,1.4-0.4c0.4,0,0.7,0.1,1,0.2c0.3,0.2,0.6,0.4,0.7,0.6v-3.2h1.1v8.9
		H136z M132.6,33.4c0,0.8,0.2,1.4,0.5,1.9s0.8,0.6,1.2,0.6c0.5,0,0.9-0.2,1.2-0.6c0.3-0.4,0.5-1,0.5-1.8c0-0.9-0.2-1.5-0.5-2
		c-0.3-0.4-0.8-0.6-1.3-0.6c-0.5,0-0.9,0.2-1.2,0.6C132.7,31.9,132.6,32.5,132.6,33.4z"/>
	<path id="path3110" d="M142,32.3c0-1.5,0.4-2.6,1.2-3.5c0.8-0.8,1.8-1.3,3.1-1.3c0.8,0,1.6,0.2,2.2,0.6c0.7,0.4,1.2,0.9,1.5,1.6
		s0.5,1.5,0.5,2.4c0,0.9-0.2,1.7-0.5,2.4c-0.4,0.7-0.9,1.3-1.6,1.6c-0.7,0.4-1.4,0.6-2.2,0.6c-0.8,0-1.6-0.2-2.3-0.6
		c-0.7-0.4-1.2-1-1.5-1.7S142,33,142,32.3z M143.3,32.3c0,1.1,0.3,1.9,0.9,2.5s1.3,0.9,2.2,0.9c0.9,0,1.6-0.3,2.2-0.9
		c0.6-0.6,0.9-1.5,0.9-2.7c0-0.7-0.1-1.4-0.4-1.9c-0.2-0.5-0.6-1-1.1-1.3c-0.5-0.3-1-0.4-1.6-0.4c-0.8,0-1.6,0.3-2.2,0.9
		C143.6,30,143.3,30.9,143.3,32.3L143.3,32.3z"/>
	<path id="path3112" d="M152,39.1v-9h1V31c0.2-0.3,0.5-0.6,0.8-0.7c0.3-0.2,0.7-0.2,1.1-0.2c0.6,0,1,0.1,1.5,0.4
		c0.4,0.3,0.7,0.7,1,1.2c0.2,0.5,0.3,1.1,0.3,1.7c0,0.7-0.1,1.3-0.4,1.8s-0.6,0.9-1,1.2c-0.5,0.3-0.9,0.4-1.4,0.4
		c-0.4,0-0.7-0.1-1-0.2s-0.5-0.3-0.7-0.6v3.2H152z M153,33.4c0,0.8,0.2,1.4,0.5,1.8c0.3,0.4,0.7,0.6,1.2,0.6c0.5,0,0.9-0.2,1.3-0.6
		c0.3-0.4,0.5-1.1,0.5-1.9c0-0.8-0.2-1.4-0.5-1.9c-0.3-0.4-0.7-0.6-1.2-0.6c-0.5,0-0.9,0.2-1.2,0.7C153.1,31.9,153,32.6,153,33.4z"
		/>
	<path id="path3114" d="M161.3,35.6l0.2,1c-0.3,0.1-0.6,0.1-0.8,0.1c-0.4,0-0.7-0.1-0.9-0.2c-0.2-0.1-0.4-0.3-0.5-0.5
		s-0.1-0.6-0.1-1.3V31h-0.8v-0.9h0.8v-1.6l1.1-0.7v2.3h1.1V31h-1.1v3.8c0,0.3,0,0.5,0.1,0.6c0,0.1,0.1,0.2,0.2,0.2
		c0.1,0.1,0.2,0.1,0.4,0.1C160.9,35.7,161.1,35.7,161.3,35.6L161.3,35.6z"/>
	<path id="path3116" d="M162.4,28.9v-1.3h1.1v1.3H162.4z M162.4,36.6v-6.5h1.1v6.5H162.4z"/>
	<path id="path3118" d="M169.4,34.2l1.1,0.1c-0.1,0.7-0.4,1.3-0.9,1.7c-0.5,0.4-1.1,0.6-1.8,0.6c-0.9,0-1.6-0.3-2.1-0.9
		c-0.5-0.6-0.8-1.4-0.8-2.5c0-0.7,0.1-1.3,0.3-1.8c0.2-0.5,0.6-0.9,1.1-1.2c0.5-0.3,1-0.4,1.5-0.4c0.7,0,1.3,0.2,1.7,0.5
		s0.7,0.9,0.9,1.5l-1.1,0.2c-0.1-0.4-0.3-0.8-0.5-1s-0.6-0.3-0.9-0.3c-0.6,0-1,0.2-1.3,0.6c-0.3,0.4-0.5,1-0.5,1.9
		c0,0.9,0.2,1.5,0.5,1.9s0.8,0.6,1.3,0.6c0.4,0,0.8-0.1,1.1-0.4C169.1,35.2,169.3,34.8,169.4,34.2L169.4,34.2z"/>
	<path id="path3120" d="M171,34.7l1.1-0.2c0.1,0.4,0.2,0.8,0.5,1c0.3,0.2,0.7,0.3,1.2,0.3c0.5,0,0.9-0.1,1.1-0.3
		c0.2-0.2,0.4-0.4,0.4-0.7c0-0.2-0.1-0.4-0.3-0.6c-0.2-0.1-0.5-0.2-1.1-0.4c-0.8-0.2-1.4-0.4-1.7-0.5c-0.3-0.1-0.5-0.4-0.7-0.6
		c-0.2-0.3-0.2-0.6-0.2-0.9c0-0.3,0.1-0.6,0.2-0.8c0.1-0.2,0.3-0.5,0.5-0.6c0.2-0.1,0.4-0.2,0.7-0.3c0.3-0.1,0.6-0.1,0.9-0.1
		c0.5,0,1,0.1,1.3,0.2c0.4,0.1,0.7,0.3,0.9,0.6s0.3,0.6,0.4,1l-1.1,0.1c0-0.3-0.2-0.6-0.4-0.8s-0.6-0.3-1-0.3
		c-0.5,0-0.9,0.1-1.1,0.2c-0.2,0.2-0.3,0.4-0.3,0.6c0,0.1,0,0.3,0.1,0.4c0.1,0.1,0.2,0.2,0.4,0.3c0.1,0,0.4,0.1,1,0.3
		c0.8,0.2,1.3,0.4,1.6,0.5s0.5,0.3,0.7,0.6c0.2,0.3,0.3,0.6,0.3,0.9c0,0.4-0.1,0.7-0.3,1c-0.2,0.3-0.5,0.6-0.9,0.7s-0.9,0.3-1.4,0.3
		c-0.8,0-1.5-0.2-1.9-0.5C171.4,35.9,171.1,35.4,171,34.7L171,34.7z"/>
</g>
<linearGradient id="rect3805-2_3_" gradientUnits="userSpaceOnUse" x1="246.8085" y1="-6513.1777" x2="502.7252" y2="-6513.1777" gradientTransform="matrix(0.7017 0 0 -5.497357e-02 -171.2041 -251.8577)">
	<stop  offset="0" style="stop-color:#FF0000"/>
	<stop  offset="1" style="stop-color:#FF0000;stop-opacity:0"/>
</linearGradient>
<rect id="rect3805-2_1_" x="2" y="104.7" class="st2" width="179.6" height="3"/>
<linearGradient id="rect3805-8-45_3_" gradientUnits="userSpaceOnUse" x1="-1136.3887" y1="-6395.4067" x2="-880.472" y2="-6395.4067" gradientTransform="matrix(-0.6988 0 0 -5.497358e-02 -612.49 -245.3834)">
	<stop  offset="0" style="stop-color:#FFFF00"/>
	<stop  offset="1" style="stop-color:#FFFF00;stop-opacity:0"/>
</linearGradient>
<rect id="rect3805-8-45_1_" x="2.7" y="104.7" class="st3" width="178.8" height="3"/>
<g id="text2985-2_1_">
	<path id="path3039_1_" class="st4" d="M7.8,82v18.1h3.6v4.5H2V82H7.8z"/>
	<path id="path3041_1_" class="st4" d="M18.5,82v2.9h-5.8V82H18.5z M18.5,86.1v18.5h-5.8V86.1L18.5,86.1z"/>
	<path id="path3043_1_" class="st4" d="M33.3,86.1v14.3c0,1.9,0,3.2-0.1,3.7s-0.4,1.2-0.9,1.8c-0.5,0.6-1.3,1.1-2.3,1.4
		c-1,0.3-2.2,0.5-3.6,0.5c-1.8,0-3.2-0.3-4.3-0.9c-1.1-0.6-1.7-1.8-1.7-3.6h5.5c0,0.8,0.3,1.2,0.9,1.2c0.4,0,0.7-0.1,0.9-0.4
		c0.1-0.3,0.2-0.8,0.2-1.6v-1.4c-0.5,0.4-1,0.8-1.5,1s-1.1,0.3-1.7,0.3c-1,0-1.8-0.2-2.5-0.6c-0.7-0.4-1.1-0.9-1.3-1.6
		c-0.2-0.7-0.4-1.6-0.4-2.8v-6.7c0-1.8,0.3-3,0.9-3.8c0.6-0.8,1.6-1.2,2.9-1.2c0.7,0,1.4,0.1,1.9,0.4c0.6,0.3,1.1,0.7,1.6,1.3
		l0.4-1.4L33.3,86.1z M27.7,91c0-0.8,0-1.4-0.1-1.6c-0.1-0.2-0.3-0.3-0.6-0.3c-0.3,0-0.6,0.1-0.7,0.4C26,89.7,26,90.2,26,91v6.2
		c0,0.8,0.1,1.4,0.2,1.6c0.1,0.2,0.3,0.4,0.6,0.4c0.4,0,0.6-0.1,0.7-0.4c0.1-0.3,0.2-1,0.2-2V91z"/>
	<path id="path3045_1_" class="st4" d="M41,82v5.1c0.5-0.4,1-0.8,1.6-1c0.6-0.2,1.2-0.3,1.8-0.3c1,0,1.8,0.3,2.5,0.8
		c0.7,0.5,1.1,1.1,1.3,1.7c0.2,0.7,0.2,1.9,0.2,3.6v12.8h-5.6v-13c0-1.1-0.1-1.8-0.2-2.1c-0.1-0.3-0.3-0.5-0.7-0.5
		c-0.3,0-0.6,0.2-0.7,0.5C41,89.8,41,90.4,41,91.4v13.2h-5.6V82L41,82z"/>
	<path id="path3047_1_" class="st4" d="M56.3,83.6v2.9h1.5v2.9h-1.5v9.9c0,1.2,0.1,1.9,0.2,2c0.1,0.1,0.6,0.2,1.6,0.2v3h-2.3
		c-1.3,0-2.2-0.1-2.7-0.2c-0.5-0.1-1-0.4-1.5-0.7c-0.4-0.4-0.7-0.8-0.8-1.3s-0.2-1.7-0.2-3.5v-9.4h-1.2v-2.9h1.2v-2.9L56.3,83.6z"/>
	<path id="path3049_1_" class="st4" d="M77.3,82v22.6h-5.1V89.3l-2.1,15.3h-3.6l-2.2-14.9v14.9h-5.1V82h7.6c0.2,1.4,0.5,3,0.7,4.8
		l0.8,5.8L69.7,82L77.3,82z"/>
	<path id="path3051_1_" class="st4" d="M84.5,93.2h-5.3V92c0-1.4,0.2-2.5,0.5-3.3c0.3-0.8,1-1.5,2-2.1c1-0.6,2.3-0.9,3.9-0.9
		c1.9,0,3.3,0.3,4.3,1c1,0.7,1.5,1.5,1.7,2.5c0.2,1,0.3,3,0.3,6.1v9.3h-5.5v-1.6c-0.3,0.7-0.8,1.2-1.3,1.5c-0.5,0.3-1.2,0.5-1.9,0.5
		c-1,0-1.9-0.3-2.7-0.8c-0.8-0.6-1.2-1.8-1.2-3.6v-1.5c0-1.4,0.2-2.3,0.7-2.8c0.4-0.5,1.5-1.1,3.3-1.8c1.9-0.7,2.8-1.2,3-1.5
		c0.1-0.3,0.2-0.8,0.2-1.5c0-1-0.1-1.6-0.2-1.9C86,89.2,85.7,89,85.4,89c-0.4,0-0.6,0.1-0.7,0.4c-0.1,0.2-0.1,0.9-0.1,1.9L84.5,93.2
		z M86.3,95.8c-0.9,0.7-1.4,1.2-1.6,1.7c-0.1,0.4-0.2,1.1-0.2,1.9c0,1,0.1,1.6,0.2,1.9c0.1,0.3,0.4,0.4,0.7,0.4
		c0.4,0,0.6-0.1,0.7-0.3c0.1-0.2,0.2-0.8,0.2-1.7L86.3,95.8z"/>
	<path id="path3053_1_" class="st4" d="M106.4,93.1h-5.3v-2.1c0-0.7-0.1-1.2-0.2-1.5c-0.1-0.3-0.3-0.4-0.7-0.4
		c-0.3,0-0.5,0.1-0.7,0.3s-0.2,0.8-0.2,1.6v8.7c0,0.7,0.1,1.2,0.3,1.5c0.2,0.3,0.4,0.5,0.7,0.5c0.4,0,0.6-0.2,0.8-0.5
		c0.1-0.3,0.2-1,0.2-2V97h5c0,1.5-0.1,2.6-0.2,3.3c-0.1,0.7-0.4,1.5-0.9,2.3c-0.5,0.8-1.2,1.4-2.1,1.8c-0.8,0.4-1.9,0.6-3.1,0.6
		c-1.6,0-2.9-0.3-3.8-0.8c-0.9-0.5-1.6-1.3-2-2.3c-0.4-1-0.6-2.4-0.6-4.2v-5.3c0-1.6,0.2-2.8,0.5-3.6c0.3-0.8,1-1.5,2-2.1
		c1-0.6,2.3-0.9,3.8-0.9c1.5,0,2.7,0.3,3.8,0.9c1,0.6,1.7,1.4,2.1,2.4C106.2,90,106.4,91.3,106.4,93.1L106.4,93.1z"/>
	<path id="path3055_1_" class="st4" d="M113.7,82v5.1c0.5-0.4,1-0.8,1.6-1c0.6-0.2,1.2-0.3,1.8-0.3c1,0,1.8,0.3,2.5,0.8
		c0.7,0.5,1.1,1.1,1.3,1.7c0.2,0.7,0.2,1.9,0.2,3.6v12.8h-5.6v-13c0-1.1-0.1-1.8-0.2-2.1c-0.1-0.3-0.3-0.5-0.7-0.5
		c-0.3,0-0.6,0.2-0.7,0.5c-0.1,0.3-0.2,0.9-0.2,1.9v13.2H108V82L113.7,82z"/>
	<path id="path3057_1_" class="st4" d="M128.8,82v2.9H123V82H128.8z M128.8,86.1v18.5H123V86.1L128.8,86.1z"/>
	<path id="path3059_1_" class="st4" d="M136.6,86.1l-0.1,1.7c0.4-0.7,0.9-1.2,1.5-1.5c0.6-0.3,1.3-0.5,2-0.5c1,0,1.8,0.2,2.4,0.7
		c0.6,0.5,1,1,1.2,1.7c0.2,0.7,0.3,1.8,0.3,3.5v13h-5.6V91.8c0-1.3,0-2.1-0.1-2.3c-0.1-0.3-0.3-0.4-0.7-0.4c-0.4,0-0.7,0.2-0.8,0.5
		c-0.1,0.3-0.2,1.2-0.2,2.6v12.5h-5.6V86.1L136.6,86.1z"/>
	<path id="path3061_1_" class="st4" d="M158.6,95.7h-7.3v4c0,0.8,0.1,1.4,0.2,1.6s0.4,0.4,0.7,0.4c0.4,0,0.7-0.2,0.9-0.5
		c0.1-0.3,0.2-0.9,0.2-1.9v-2.4h5.3v1.4c0,1.1-0.1,2-0.2,2.6s-0.5,1.3-1,2c-0.5,0.7-1.2,1.2-2,1.6c-0.8,0.3-1.8,0.5-3.1,0.5
		c-1.2,0-2.2-0.2-3.2-0.5s-1.6-0.8-2.1-1.4c-0.5-0.6-0.9-1.3-1.1-2c-0.2-0.7-0.3-1.8-0.3-3.1v-5.4c0-1.6,0.2-2.9,0.7-3.8
		c0.4-0.9,1.2-1.7,2.1-2.1c1-0.5,2.1-0.7,3.4-0.7c1.6,0,2.9,0.3,3.9,0.9c1,0.6,1.7,1.4,2.2,2.4c0.4,1,0.6,2.4,0.6,4.2V95.7z
		 M152.9,92.6v-1.4c0-1-0.1-1.6-0.2-1.9c-0.1-0.3-0.3-0.4-0.6-0.4c-0.4,0-0.6,0.1-0.7,0.4c-0.1,0.2-0.1,0.9-0.1,1.9v1.4L152.9,92.6z
		"/>
	<path id="path3063_1_" class="st4" d="M166,86.1l-0.2,2.4c0.8-1.7,2-2.7,3.6-2.8v6.5c-1,0-1.8,0.1-2.3,0.4
		c-0.5,0.3-0.8,0.7-0.9,1.2c-0.1,0.5-0.2,1.6-0.2,3.4v7.3h-5.6V86.1H166z"/>
	<path id="path3065_1_" class="st4" d="M182.4,86.1l-1.6,13.4c-0.3,2.1-0.5,3.6-0.6,4.3s-0.5,1.4-0.9,1.9c-0.4,0.5-1,0.9-1.7,1.1
		c-0.7,0.2-1.8,0.4-3.4,0.4h-3.4v-3c0.9,0,1.4,0,1.7-0.1s0.4-0.3,0.4-0.6c0-0.1-0.1-0.8-0.3-1.9l-3.1-15.5h5.1l1.8,12.5l0.9-12.5
		L182.4,86.1z"/>
</g>
<g id="text3867-9_1_" transform="scale(1.0192922,0.98107294)">
	<path id="path3068_1_" class="st4" d="M2,120.2v-8.9h6.5v1.1H3.2v2.7h4.9v1H3.2v3h5.5v1.1H2z"/>
	<path id="path3070_1_" class="st4" d="M9.4,120.2l2.4-3.4l-2.2-3.1H11l1,1.5c0.2,0.3,0.3,0.5,0.5,0.7c0.2-0.3,0.3-0.5,0.5-0.7
		l1.1-1.5h1.3l-2.2,3l2.4,3.4h-1.3l-1.3-2l-0.4-0.5l-1.7,2.6H9.4z"/>
	<path id="path3072_1_" class="st4" d="M20.6,117.8l1.1,0.1c-0.1,0.7-0.4,1.3-0.9,1.7c-0.5,0.4-1.1,0.6-1.8,0.6
		c-0.9,0-1.6-0.3-2.1-0.9c-0.5-0.6-0.8-1.4-0.8-2.5c0-0.7,0.1-1.3,0.3-1.8c0.2-0.5,0.6-0.9,1.1-1.2c0.5-0.3,1-0.4,1.5-0.4
		c0.7,0,1.3,0.2,1.7,0.5c0.4,0.4,0.7,0.9,0.9,1.5l-1.1,0.2c-0.1-0.4-0.3-0.8-0.5-1c-0.3-0.2-0.6-0.3-0.9-0.3c-0.6,0-1,0.2-1.3,0.6
		s-0.5,1-0.5,1.9c0,0.9,0.2,1.5,0.5,1.9c0.3,0.4,0.8,0.6,1.3,0.6c0.4,0,0.8-0.1,1.1-0.4C20.4,118.8,20.6,118.4,20.6,117.8
		L20.6,117.8z"/>
	<path id="path3074_1_" class="st4" d="M27.1,118.1l1.1,0.1c-0.2,0.7-0.5,1.2-1,1.5c-0.5,0.4-1.1,0.5-1.9,0.5
		c-0.9,0-1.7-0.3-2.3-0.9s-0.8-1.4-0.8-2.5c0-1.1,0.3-1.9,0.8-2.5c0.6-0.6,1.3-0.9,2.2-0.9c0.9,0,1.6,0.3,2.1,0.9
		c0.5,0.6,0.8,1.4,0.8,2.5c0,0.1,0,0.2,0,0.3h-4.8c0,0.7,0.2,1.3,0.6,1.6c0.4,0.4,0.8,0.6,1.4,0.6c0.4,0,0.7-0.1,1-0.3
		C26.7,118.9,26.9,118.6,27.1,118.1L27.1,118.1z M23.5,116.3h3.6c0-0.5-0.2-1-0.4-1.2c-0.3-0.4-0.8-0.6-1.4-0.6
		c-0.5,0-0.9,0.2-1.3,0.5S23.5,115.8,23.5,116.3L23.5,116.3z"/>
	<path id="path3076_1_" class="st4" d="M29.6,120.2v-8.9h1.1v8.9H29.6z"/>
	<path id="path3078_1_" class="st4" d="M32.4,120.2v-8.9h1.1v8.9H32.4z"/>
	<path id="path3080_1_" class="st4" d="M39.6,118.1l1.1,0.1c-0.2,0.7-0.5,1.2-1,1.5c-0.5,0.4-1.1,0.5-1.9,0.5
		c-0.9,0-1.7-0.3-2.3-0.9s-0.8-1.4-0.8-2.5c0-1.1,0.3-1.9,0.8-2.5c0.6-0.6,1.3-0.9,2.2-0.9c0.9,0,1.6,0.3,2.1,0.9
		c0.5,0.6,0.8,1.4,0.8,2.5c0,0.1,0,0.2,0,0.3h-4.8c0,0.7,0.2,1.3,0.6,1.6c0.4,0.4,0.8,0.6,1.4,0.6c0.4,0,0.7-0.1,1-0.3
		C39.2,118.9,39.4,118.6,39.6,118.1L39.6,118.1z M36,116.3h3.6c0-0.5-0.2-1-0.4-1.2c-0.3-0.4-0.8-0.6-1.4-0.6
		c-0.5,0-0.9,0.2-1.3,0.5C36.2,115.3,36,115.8,36,116.3L36,116.3z"/>
	<path id="path3082_1_" class="st4" d="M42.1,120.2v-6.5h1v0.9c0.5-0.7,1.2-1.1,2.1-1.1c0.4,0,0.7,0.1,1.1,0.2
		c0.3,0.1,0.6,0.3,0.7,0.6c0.2,0.2,0.3,0.5,0.3,0.8c0,0.2,0.1,0.6,0.1,1.1v4h-1.1v-3.9c0-0.4,0-0.8-0.1-1c-0.1-0.2-0.2-0.4-0.5-0.5
		c-0.2-0.1-0.5-0.2-0.8-0.2c-0.5,0-0.9,0.1-1.2,0.4c-0.3,0.3-0.5,0.9-0.5,1.7v3.5H42.1z"/>
	<path id="path3084_1_" class="st4" d="M53.3,117.8l1.1,0.1c-0.1,0.7-0.4,1.3-0.9,1.7s-1.1,0.6-1.8,0.6c-0.9,0-1.6-0.3-2.1-0.9
		c-0.5-0.6-0.8-1.4-0.8-2.5c0-0.7,0.1-1.3,0.3-1.8c0.2-0.5,0.6-0.9,1.1-1.2c0.5-0.3,1-0.4,1.5-0.4c0.7,0,1.3,0.2,1.7,0.5
		c0.4,0.4,0.7,0.9,0.9,1.5l-1.1,0.2c-0.1-0.4-0.3-0.8-0.5-1s-0.6-0.3-0.9-0.3c-0.6,0-1,0.2-1.3,0.6c-0.3,0.4-0.5,1-0.5,1.9
		c0,0.9,0.2,1.5,0.5,1.9c0.3,0.4,0.8,0.6,1.3,0.6c0.4,0,0.8-0.1,1.1-0.4C53,118.8,53.2,118.4,53.3,117.8L53.3,117.8z"/>
	<path id="path3086_1_" class="st4" d="M59.7,118.1l1.1,0.1c-0.2,0.7-0.5,1.2-1,1.5c-0.5,0.4-1.1,0.5-1.9,0.5
		c-0.9,0-1.7-0.3-2.3-0.9c-0.6-0.6-0.8-1.4-0.8-2.5c0-1.1,0.3-1.9,0.8-2.5c0.6-0.6,1.3-0.9,2.2-0.9c0.9,0,1.6,0.3,2.1,0.9
		c0.5,0.6,0.8,1.4,0.8,2.5c0,0.1,0,0.2,0,0.3h-4.8c0,0.7,0.2,1.3,0.6,1.6c0.4,0.4,0.8,0.6,1.4,0.6c0.4,0,0.7-0.1,1-0.3
		C59.3,118.9,59.6,118.6,59.7,118.1L59.7,118.1z M56.1,116.3h3.6c0-0.5-0.2-1-0.4-1.2c-0.3-0.4-0.8-0.6-1.4-0.6
		c-0.5,0-0.9,0.2-1.3,0.5S56.2,115.8,56.1,116.3L56.1,116.3z"/>
	<path id="path3088_1_" class="st4" d="M65.7,112.5v-1.3h1.1v1.3H65.7z M65.7,120.2v-6.5h1.1v6.5H65.7z"/>
	<path id="path3090_1_" class="st4" d="M68.5,120.2v-6.5h1v0.9c0.5-0.7,1.2-1.1,2.1-1.1c0.4,0,0.7,0.1,1.1,0.2
		c0.3,0.1,0.6,0.3,0.7,0.6c0.2,0.2,0.3,0.5,0.3,0.8c0,0.2,0.1,0.6,0.1,1.1v4h-1.1v-3.9c0-0.4,0-0.8-0.1-1c-0.1-0.2-0.2-0.4-0.5-0.5
		c-0.2-0.1-0.5-0.2-0.8-0.2c-0.5,0-0.9,0.1-1.2,0.4c-0.3,0.3-0.5,0.9-0.5,1.7v3.5H68.5z"/>
	<path id="path3092_1_" class="st4" d="M79,120.2v-8.9h1.2v7.9h4.4v1.1H79z"/>
	<path id="path3094_1_" class="st4" d="M90.1,119.4c-0.4,0.3-0.8,0.6-1.2,0.7c-0.4,0.1-0.8,0.2-1.2,0.2c-0.7,0-1.3-0.2-1.6-0.5
		c-0.4-0.3-0.6-0.8-0.6-1.3c0-0.3,0.1-0.6,0.2-0.9c0.1-0.3,0.3-0.5,0.6-0.6s0.5-0.3,0.8-0.4c0.2-0.1,0.5-0.1,1-0.2
		c0.9-0.1,1.5-0.2,2-0.4c0-0.2,0-0.2,0-0.3c0-0.4-0.1-0.8-0.3-0.9c-0.3-0.2-0.7-0.4-1.2-0.4c-0.5,0-0.9,0.1-1.1,0.3
		c-0.2,0.2-0.4,0.5-0.5,1l-1.1-0.1c0.1-0.5,0.3-0.8,0.5-1.1s0.5-0.5,1-0.7s0.9-0.2,1.5-0.2c0.6,0,1,0.1,1.3,0.2
		c0.3,0.1,0.6,0.3,0.8,0.5s0.3,0.4,0.3,0.7c0,0.2,0.1,0.5,0.1,1v1.5c0,1,0,1.7,0.1,1.9c0,0.3,0.1,0.5,0.3,0.8h-1.1
		C90.2,120,90.1,119.7,90.1,119.4L90.1,119.4z M90,116.9c-0.4,0.2-1,0.3-1.8,0.4c-0.5,0.1-0.8,0.1-1,0.2c-0.2,0.1-0.3,0.2-0.4,0.4
		c-0.1,0.2-0.2,0.3-0.2,0.5c0,0.3,0.1,0.5,0.3,0.7s0.5,0.3,1,0.3c0.4,0,0.8-0.1,1.1-0.3c0.3-0.2,0.6-0.4,0.7-0.8
		c0.1-0.2,0.2-0.6,0.2-1.1L90,116.9z"/>
	<path id="path3096_1_" class="st4" d="M92.4,118.2l1.1-0.2c0.1,0.4,0.2,0.8,0.5,1c0.3,0.2,0.7,0.3,1.2,0.3c0.5,0,0.9-0.1,1.1-0.3
		c0.2-0.2,0.4-0.4,0.4-0.7c0-0.2-0.1-0.4-0.3-0.6c-0.2-0.1-0.5-0.2-1.1-0.4c-0.8-0.2-1.4-0.4-1.7-0.5s-0.5-0.4-0.7-0.6
		c-0.2-0.3-0.2-0.6-0.2-0.9c0-0.3,0.1-0.6,0.2-0.8c0.1-0.2,0.3-0.5,0.5-0.6c0.2-0.1,0.4-0.2,0.7-0.3c0.3-0.1,0.6-0.1,0.9-0.1
		c0.5,0,1,0.1,1.3,0.2c0.4,0.1,0.7,0.3,0.9,0.6c0.2,0.2,0.3,0.6,0.4,1l-1.1,0.1c0-0.3-0.2-0.6-0.4-0.8c-0.2-0.2-0.6-0.3-1-0.3
		c-0.5,0-0.9,0.1-1.1,0.2s-0.3,0.4-0.3,0.6c0,0.1,0,0.3,0.1,0.4c0.1,0.1,0.2,0.2,0.4,0.3c0.1,0,0.4,0.1,1,0.3
		c0.8,0.2,1.3,0.4,1.6,0.5c0.3,0.1,0.5,0.3,0.7,0.6c0.2,0.3,0.3,0.6,0.3,0.9c0,0.4-0.1,0.7-0.3,1c-0.2,0.3-0.5,0.6-0.9,0.7
		c-0.4,0.2-0.9,0.3-1.4,0.3c-0.8,0-1.5-0.2-1.9-0.5S92.5,118.9,92.4,118.2L92.4,118.2z"/>
	<path id="path3098_1_" class="st4" d="M103.5,118.1l1.1,0.1c-0.2,0.7-0.5,1.2-1,1.5c-0.5,0.4-1.1,0.5-1.9,0.5
		c-0.9,0-1.7-0.3-2.3-0.9c-0.6-0.6-0.8-1.4-0.8-2.5c0-1.1,0.3-1.9,0.8-2.5s1.3-0.9,2.2-0.9c0.9,0,1.6,0.3,2.1,0.9
		c0.5,0.6,0.8,1.4,0.8,2.5c0,0.1,0,0.2,0,0.3h-4.8c0,0.7,0.2,1.3,0.6,1.6c0.4,0.4,0.8,0.6,1.4,0.6c0.4,0,0.7-0.1,1-0.3
		C103.1,118.9,103.3,118.6,103.5,118.1L103.5,118.1z M99.9,116.3h3.6c0-0.5-0.2-1-0.4-1.2c-0.3-0.4-0.8-0.6-1.4-0.6
		c-0.5,0-0.9,0.2-1.3,0.5C100.1,115.3,99.9,115.8,99.9,116.3L99.9,116.3z"/>
	<path id="path3100_1_" class="st4" d="M106,120.2v-6.5h1v1c0.3-0.5,0.5-0.8,0.7-0.9c0.2-0.1,0.4-0.2,0.7-0.2c0.4,0,0.7,0.1,1.1,0.4
		l-0.4,1c-0.3-0.2-0.5-0.2-0.8-0.2c-0.2,0-0.5,0.1-0.6,0.2c-0.2,0.1-0.3,0.3-0.4,0.6c-0.1,0.4-0.2,0.8-0.2,1.3v3.4H106z"/>
	<path id="path3102_1_" class="st4" d="M109.7,118.2l1.1-0.2c0.1,0.4,0.2,0.8,0.5,1c0.3,0.2,0.7,0.3,1.2,0.3c0.5,0,0.9-0.1,1.1-0.3
		c0.2-0.2,0.4-0.4,0.4-0.7c0-0.2-0.1-0.4-0.3-0.6c-0.2-0.1-0.5-0.2-1.1-0.4c-0.8-0.2-1.4-0.4-1.7-0.5s-0.5-0.4-0.7-0.6
		c-0.2-0.3-0.2-0.6-0.2-0.9c0-0.3,0.1-0.6,0.2-0.8c0.1-0.2,0.3-0.5,0.5-0.6c0.2-0.1,0.4-0.2,0.7-0.3c0.3-0.1,0.6-0.1,0.9-0.1
		c0.5,0,1,0.1,1.3,0.2c0.4,0.1,0.7,0.3,0.9,0.6s0.3,0.6,0.4,1l-1.1,0.1c0-0.3-0.2-0.6-0.4-0.8c-0.2-0.2-0.6-0.3-1-0.3
		c-0.5,0-0.9,0.1-1.1,0.2c-0.2,0.2-0.3,0.4-0.3,0.6c0,0.1,0,0.3,0.1,0.4c0.1,0.1,0.2,0.2,0.4,0.3c0.1,0,0.4,0.1,1,0.3
		c0.8,0.2,1.3,0.4,1.6,0.5c0.3,0.1,0.5,0.3,0.7,0.6c0.2,0.3,0.3,0.6,0.3,0.9c0,0.4-0.1,0.7-0.3,1s-0.5,0.6-0.9,0.7
		c-0.4,0.2-0.9,0.3-1.4,0.3c-0.8,0-1.5-0.2-1.9-0.5S109.8,118.9,109.7,118.2L109.7,118.2z"/>
	<path id="path3104_1_" class="st4" d="M124.1,119.4c-0.4,0.3-0.8,0.6-1.2,0.7c-0.4,0.1-0.8,0.2-1.2,0.2c-0.7,0-1.3-0.2-1.6-0.5
		s-0.6-0.8-0.6-1.3c0-0.3,0.1-0.6,0.2-0.9c0.1-0.3,0.3-0.5,0.6-0.6c0.2-0.2,0.5-0.3,0.8-0.4c0.2-0.1,0.5-0.1,1-0.2
		c0.9-0.1,1.5-0.2,2-0.4c0-0.2,0-0.2,0-0.3c0-0.4-0.1-0.8-0.3-0.9c-0.3-0.2-0.7-0.4-1.2-0.4c-0.5,0-0.9,0.1-1.1,0.3
		c-0.2,0.2-0.4,0.5-0.5,1l-1.1-0.1c0.1-0.5,0.3-0.8,0.5-1.1c0.2-0.3,0.5-0.5,1-0.7c0.4-0.2,0.9-0.2,1.5-0.2c0.6,0,1,0.1,1.3,0.2
		c0.3,0.1,0.6,0.3,0.8,0.5c0.2,0.2,0.3,0.4,0.3,0.7c0,0.2,0.1,0.5,0.1,1v1.5c0,1,0,1.7,0.1,1.9c0,0.3,0.1,0.5,0.3,0.8h-1.1
		C124.2,120,124.1,119.7,124.1,119.4L124.1,119.4z M124,116.9c-0.4,0.2-1,0.3-1.8,0.4c-0.5,0.1-0.8,0.1-1,0.2
		c-0.2,0.1-0.3,0.2-0.4,0.4c-0.1,0.2-0.2,0.3-0.2,0.5c0,0.3,0.1,0.5,0.3,0.7s0.5,0.3,1,0.3c0.4,0,0.8-0.1,1.1-0.3
		c0.3-0.2,0.6-0.4,0.7-0.8c0.1-0.2,0.2-0.6,0.2-1.1V116.9z"/>
	<path id="path3106_1_" class="st4" d="M126.8,120.2v-6.5h1v0.9c0.5-0.7,1.2-1.1,2.1-1.1c0.4,0,0.7,0.1,1.1,0.2
		c0.3,0.1,0.6,0.3,0.7,0.6c0.2,0.2,0.3,0.5,0.3,0.8c0,0.2,0.1,0.6,0.1,1.1v4H131v-3.9c0-0.4,0-0.8-0.1-1c-0.1-0.2-0.2-0.4-0.5-0.5
		c-0.2-0.1-0.5-0.2-0.8-0.2c-0.5,0-0.9,0.1-1.2,0.4c-0.3,0.3-0.5,0.9-0.5,1.7v3.5H126.8z"/>
	<path id="path3108_1_" class="st4" d="M138,120.2v-0.8c-0.4,0.6-1,1-1.8,1c-0.5,0-1-0.1-1.4-0.4c-0.4-0.3-0.8-0.7-1-1.2
		c-0.2-0.5-0.4-1.1-0.4-1.8c0-0.6,0.1-1.2,0.3-1.8s0.5-0.9,1-1.2c0.4-0.3,0.9-0.4,1.4-0.4c0.4,0,0.7,0.1,1,0.2
		c0.3,0.2,0.6,0.4,0.7,0.6v-3.2h1.1v8.9H138z M134.5,116.9c0,0.8,0.2,1.4,0.5,1.9s0.8,0.6,1.2,0.6c0.5,0,0.9-0.2,1.2-0.6
		c0.3-0.4,0.5-1,0.5-1.8c0-0.9-0.2-1.5-0.5-2c-0.3-0.4-0.8-0.6-1.3-0.6c-0.5,0-0.9,0.2-1.2,0.6C134.7,115.5,134.5,116.1,134.5,116.9
		z"/>
	<path id="path3110_1_" class="st4" d="M144,115.8c0-1.5,0.4-2.6,1.2-3.5c0.8-0.8,1.8-1.3,3.1-1.3c0.8,0,1.6,0.2,2.2,0.6
		c0.7,0.4,1.2,0.9,1.5,1.6s0.5,1.5,0.5,2.4c0,0.9-0.2,1.7-0.5,2.4c-0.4,0.7-0.9,1.3-1.6,1.6c-0.7,0.4-1.4,0.6-2.2,0.6
		c-0.8,0-1.6-0.2-2.3-0.6c-0.7-0.4-1.2-1-1.5-1.7S144,116.6,144,115.8z M145.2,115.8c0,1.1,0.3,1.9,0.9,2.5s1.3,0.9,2.2,0.9
		c0.9,0,1.6-0.3,2.2-0.9c0.6-0.6,0.9-1.5,0.9-2.7c0-0.7-0.1-1.4-0.4-1.9c-0.2-0.5-0.6-1-1.1-1.3c-0.5-0.3-1-0.4-1.6-0.4
		c-0.8,0-1.6,0.3-2.2,0.9C145.5,113.5,145.2,114.5,145.2,115.8L145.2,115.8z"/>
	<path id="path3112_1_" class="st4" d="M153.9,122.7v-9h1v0.8c0.2-0.3,0.5-0.6,0.8-0.7c0.3-0.2,0.7-0.2,1.1-0.2c0.6,0,1,0.1,1.5,0.4
		c0.4,0.3,0.7,0.7,1,1.2c0.2,0.5,0.3,1.1,0.3,1.7c0,0.7-0.1,1.3-0.4,1.8s-0.6,0.9-1,1.2c-0.5,0.3-0.9,0.4-1.4,0.4
		c-0.4,0-0.7-0.1-1-0.2s-0.5-0.3-0.7-0.6v3.2H153.9z M154.9,117c0,0.8,0.2,1.4,0.5,1.8c0.3,0.4,0.7,0.6,1.2,0.6
		c0.5,0,0.9-0.2,1.3-0.6c0.3-0.4,0.5-1.1,0.5-1.9c0-0.8-0.2-1.4-0.5-1.9c-0.3-0.4-0.7-0.6-1.2-0.6c-0.5,0-0.9,0.2-1.2,0.7
		C155.1,115.5,154.9,116.1,154.9,117z"/>
	<path id="path3114_1_" class="st4" d="M163.2,119.2l0.2,1c-0.3,0.1-0.6,0.1-0.8,0.1c-0.4,0-0.7-0.1-0.9-0.2
		c-0.2-0.1-0.4-0.3-0.5-0.5s-0.1-0.6-0.1-1.3v-3.7h-0.8v-0.9h0.8v-1.6l1.1-0.7v2.3h1.1v0.9h-1.1v3.8c0,0.3,0,0.5,0.1,0.6
		c0,0.1,0.1,0.2,0.2,0.2c0.1,0.1,0.2,0.1,0.4,0.1C162.9,119.2,163,119.2,163.2,119.2L163.2,119.2z"/>
	<path id="path3116_1_" class="st4" d="M164.3,112.5v-1.3h1.1v1.3H164.3z M164.3,120.2v-6.5h1.1v6.5H164.3z"/>
	<path id="path3118_1_" class="st4" d="M171.3,117.8l1.1,0.1c-0.1,0.7-0.4,1.3-0.9,1.7c-0.5,0.4-1.1,0.6-1.8,0.6
		c-0.9,0-1.6-0.3-2.1-0.9c-0.5-0.6-0.8-1.4-0.8-2.5c0-0.7,0.1-1.3,0.3-1.8c0.2-0.5,0.6-0.9,1.1-1.2c0.5-0.3,1-0.4,1.5-0.4
		c0.7,0,1.3,0.2,1.7,0.5s0.7,0.9,0.9,1.5l-1.1,0.2c-0.1-0.4-0.3-0.8-0.5-1s-0.6-0.3-0.9-0.3c-0.6,0-1,0.2-1.3,0.6
		c-0.3,0.4-0.5,1-0.5,1.9c0,0.9,0.2,1.5,0.5,1.9s0.8,0.6,1.3,0.6c0.4,0,0.8-0.1,1.1-0.4C171,118.8,171.2,118.4,171.3,117.8
		L171.3,117.8z"/>
	<path id="path3120_1_" class="st4" d="M172.9,118.2l1.1-0.2c0.1,0.4,0.2,0.8,0.5,1c0.3,0.2,0.7,0.3,1.2,0.3c0.5,0,0.9-0.1,1.1-0.3
		c0.2-0.2,0.4-0.4,0.4-0.7c0-0.2-0.1-0.4-0.3-0.6c-0.2-0.1-0.5-0.2-1.1-0.4c-0.8-0.2-1.4-0.4-1.7-0.5c-0.3-0.1-0.5-0.4-0.7-0.6
		c-0.2-0.3-0.2-0.6-0.2-0.9c0-0.3,0.1-0.6,0.2-0.8c0.1-0.2,0.3-0.5,0.5-0.6c0.2-0.1,0.4-0.2,0.7-0.3c0.3-0.1,0.6-0.1,0.9-0.1
		c0.5,0,1,0.1,1.3,0.2c0.4,0.1,0.7,0.3,0.9,0.6s0.3,0.6,0.4,1l-1.1,0.1c0-0.3-0.2-0.6-0.4-0.8s-0.6-0.3-1-0.3
		c-0.5,0-0.9,0.1-1.1,0.2c-0.2,0.2-0.3,0.4-0.3,0.6c0,0.1,0,0.3,0.1,0.4c0.1,0.1,0.2,0.2,0.4,0.3c0.1,0,0.4,0.1,1,0.3
		c0.8,0.2,1.3,0.4,1.6,0.5s0.5,0.3,0.7,0.6c0.2,0.3,0.3,0.6,0.3,0.9c0,0.4-0.1,0.7-0.3,1c-0.2,0.3-0.5,0.6-0.9,0.7s-0.9,0.3-1.4,0.3
		c-0.8,0-1.5-0.2-1.9-0.5C173.3,119.5,173,118.9,172.9,118.2L172.9,118.2z"/>
</g>
</svg>
