<?xml version="1.0" encoding="UTF-8" standalone="no"?>
<svg
   xmlns:dc="http://purl.org/dc/elements/1.1/"
   xmlns:cc="http://creativecommons.org/ns#"
   xmlns:rdf="http://www.w3.org/1999/02/22-rdf-syntax-ns#"
   xmlns:svg="http://www.w3.org/2000/svg"
   xmlns="http://www.w3.org/2000/svg"
   xmlns:sodipodi="http://sodipodi.sourceforge.net/DTD/sodipodi-0.dtd"
   xmlns:inkscape="http://www.inkscape.org/namespaces/inkscape"
   sodipodi:docname="logoBianco.svg"
   inkscape:version="1.0 (4035a4fb49, 2020-05-01)"
   id="svg8"
   version="1.1"
   viewBox="0 0 149.06787 132.07458"
   height="132.07458mm"
   width="149.06787mm">
  <defs
     id="defs2" />
  <sodipodi:namedview
     fit-margin-bottom="0"
     fit-margin-right="0"
     fit-margin-left="0"
     fit-margin-top="0"
     inkscape:document-rotation="0"
     inkscape:window-maximized="1"
     inkscape:window-y="-8"
     inkscape:window-x="1912"
     inkscape:window-height="1017"
     inkscape:window-width="1920"
     showgrid="false"
     inkscape:current-layer="layer1"
     inkscape:document-units="mm"
     inkscape:cy="269.25259"
     inkscape:cx="423.25962"
     inkscape:zoom="0.7"
     inkscape:pageshadow="2"
     inkscape:pageopacity="0.0"
     borderopacity="1.0"
     bordercolor="#666666"
     pagecolor="#ffffff"
     id="base" />
  <metadata
     id="metadata5">
    <rdf:RDF>
      <cc:Work
         rdf:about="">
        <dc:format>image/svg+xml</dc:format>
        <dc:type
           rdf:resource="http://purl.org/dc/dcmitype/StillImage" />
        <dc:title></dc:title>
      </cc:Work>
    </rdf:RDF>
  </metadata>
  <g
     transform="translate(-24.105074,-7.4903141)"
     id="layer1"
     inkscape:groupmode="layer"
     inkscape:label="Livello 1">
    <g
       style="fill:#ffffff;stroke:#ffffff"
       transform="translate(-0.37797617,-5.6696427)"
       id="g16">
      <path
         style="fill:#ffffff;stroke:#ffffff;stroke-width:0.088075px;stroke-linecap:butt;stroke-linejoin:miter;stroke-opacity:1"
         d="m 33.842149,60.257335 h 3.069438 c 0,0 -0.444846,7.073051 -3.514284,8.407589 -3.069438,1.334539 -5.827483,7.117537 -5.827483,7.117537 h 10.275943 v 0.889692 H 24.544867 c 0,0 2.491139,-7.206505 6.005421,-9.163828 3.514285,-1.957323 3.291861,-7.25099 3.291861,-7.25099 z"
         id="path10"
         inkscape:connector-curvature="0" />
      <path
         style="fill:#ffffff;stroke:#ffffff;stroke-width:0.088075px;stroke-linecap:butt;stroke-linejoin:miter;stroke-opacity:1"
         d="m 43.717731,63.682649 c 0,0 -6.194335,4.134268 -1.912838,10.453882 2.771357,4.090605 8.630013,0.400361 8.630013,0.400361 h 2.40217 V 62.703988 h -2.446655 v 1.245569 c 0,0 -2.22423,-0.934177 -3.603253,-0.934177 -1.379022,0 -3.069437,0.667269 -3.069437,0.667269 z"
         id="path12"
         inkscape:connector-curvature="0"
         sodipodi:nodetypes="cscccccsc" />
      <path
         inkscape:connector-curvature="0"
         id="path847"
         d="m 168.71912,87.979165 h 4.39397 V 65.962053 h -4.48846 z"
         style="fill:#ffffff;stroke:#ffffff;stroke-width:0.264583px;stroke-linecap:butt;stroke-linejoin:miter;stroke-opacity:1" />
      <path
         inkscape:connector-curvature="0"
         id="path849"
         d="m 168.62463,67.28497 c 0,0 -23.57627,2.551337 -14.69383,17.197916 8.88244,14.646577 18.04836,-6.945312 18.04836,-6.945312 l -1.55915,-2.173364 c 0,0 -8.78794,18.520833 -14.45758,7.60677 -5.66965,-10.914062 13.65438,-12.142485 13.65438,-12.142485 z"
         style="fill:#ffffff;stroke:#ffffff;stroke-width:0.264583px;stroke-linecap:butt;stroke-linejoin:miter;stroke-opacity:1" />
      <path
         sodipodi:nodetypes="ccccc"
         inkscape:connector-curvature="0"
         id="path851"
         d="m 90.380059,106.30125 13.157511,-0.0189 v 37.40783 H 90.124077 Z"
         style="fill:#ffffff;stroke:#ffffff;stroke-width:0.14335px;stroke-linecap:butt;stroke-linejoin:miter;stroke-opacity:1" />
      <path
         inkscape:connector-curvature="0"
         id="path853"
         d="m 103.53757,106.28234 16.1269,35.88872 -2.04787,0.1024 -16.1269,-35.88872 2.04787,-0.1024"
         style="fill:#ffffff;stroke:#ffffff;stroke-width:0.14335px;stroke-linecap:butt;stroke-linejoin:miter;stroke-opacity:1" />
      <path
         inkscape:connector-curvature="0"
         id="path855"
         d="m 119.66447,142.17106 v -36.45188 h -2.76462 l 0.71675,36.55428"
         style="fill:#ffffff;stroke:#ffffff;stroke-width:0.14335px;stroke-linecap:butt;stroke-linejoin:miter;stroke-opacity:1" />
      <path
         sodipodi:nodetypes="cccsc"
         inkscape:connector-curvature="0"
         id="path857"
         d="m 122.05816,131.72642 h 5.3473 5.34731 c 0,0 0.14989,-7.02426 -4.96604,-6.57505 -3.25507,0.28582 -5.22022,-1.52352 -5.72857,6.57505 z"
         style="fill:#ffffff;stroke:#ffffff;stroke-width:0.184928px;stroke-linecap:butt;stroke-linejoin:miter;stroke-opacity:1" />
      <path
         sodipodi:nodetypes="cccsc"
         inkscape:connector-curvature="0"
         id="path859"
         d="m 122.05816,131.72642 c 0,0 -0.64628,13.51716 9.10677,11.44183 l 0.1868,-4.06301 c 0,0 -7.93923,5.55745 -5.51076,-7.33212 2.42847,-12.88957 -3.78281,-0.0467 -3.78281,-0.0467 z"
         style="fill:#ffffff;stroke:#ffffff;stroke-width:0.184928px;stroke-linecap:butt;stroke-linejoin:miter;stroke-opacity:1" />
      <path
         inkscape:connector-curvature="0"
         id="path861"
         d="m 135.8353,125.13586 h 5.01131 v 18.44159 h -5.01131 z"
         style="fill:#ffffff;stroke:#ffffff;stroke-width:0.264583px;stroke-linecap:butt;stroke-linejoin:miter;stroke-opacity:1" />
      <path
         sodipodi:nodetypes="cccsc"
         inkscape:connector-curvature="0"
         id="path863"
         d="m 139.54367,137.02935 c 0,0 -1.09172,-3.17845 5.22252,-6.4525 -1.20439,-2.90859 0,0 -1.20439,-2.90859 0,0 -10.13192,4.04911 -5.92243,8.49247 3.53481,3.73119 1.9043,0.86862 1.9043,0.86862 z"
         style="fill:#ffffff;stroke:#ffffff;stroke-width:0.264583px;stroke-linecap:butt;stroke-linejoin:miter;stroke-opacity:1" />
      <path
         style="fill:#ffffff;stroke:#ffffff;stroke-width:0.136854px;stroke-linecap:butt;stroke-linejoin:miter;stroke-opacity:1"
         d="m 153.40736,144.33944 h 2.27275 v -11.38825 h -2.32162 z"
         id="path865"
         inkscape:connector-curvature="0" />
      <path
         style="fill:#ffffff;stroke:#ffffff;stroke-width:0.136854px;stroke-linecap:butt;stroke-linejoin:miter;stroke-opacity:1"
         d="m 153.35849,133.63546 c 0,0 -12.19465,1.31966 -7.60028,8.89554 4.59438,7.57588 9.33539,-3.59243 9.33539,-3.59243 l -0.80646,-1.12416 c 0,0 -4.5455,9.57982 -7.47808,3.93456 -2.93259,-5.64524 7.06263,-6.28064 7.06263,-6.28064 z"
         id="path867"
         inkscape:connector-curvature="0" />
      <text
         id="text871"
         y="94.631294"
         x="154.06282"
         style="font-style:normal;font-variant:normal;font-weight:normal;font-stretch:normal;font-size:3.0097px;line-height:1.25;font-family:Algerian;-inkscape-font-specification:Algerian;letter-spacing:0px;word-spacing:0px;fill:#ffffff;fill-opacity:1;stroke:none;stroke-width:0.080617;"
         xml:space="preserve"><tspan
           style="stroke-width:0.080617;fill:#ffffff;stroke:none;"
           y="94.631294"
           x="154.06282"
           id="tspan869"
           sodipodi:role="line">TORREBRUMA</tspan></text>
    </g>
    <path
       sodipodi:nodetypes="ccccc"
       inkscape:connector-curvature="0"
       id="path18"
       d="m 41.577381,52.638393 h 11.528274 c 0,0 -8.693451,-19.84375 28.159225,-33.261905 0.566963,-13.0401789 0.755951,-11.7172622 0.755951,-11.7172622 0,0 -41.199402,5.8586312 -40.44345,44.9791672 z"
       style="fill:#ffffff;stroke:#ffffff;stroke-width:0.264583px;stroke-linecap:butt;stroke-linejoin:miter;stroke-opacity:1" />
    <path
       sodipodi:nodetypes="cccccccscc"
       inkscape:connector-curvature="0"
       id="path20"
       d="m 43.242951,77.746703 h 11.187537 c 0,0 31.175933,68.020217 34.606777,0 0.895004,-26.999253 0.596667,-20.734234 0.596667,-20.734234 l -11.038367,10e-7 -0.298332,-22.375072 26.999247,-0.149167 c 0,0 0.29834,25.06008 -2.66636,48.423384 C 99.665422,106.27492 90.305187,127.94145 77.849729,124.73436 52.938814,118.32018 43.242951,77.746703 43.242951,77.746703 Z"
       style="fill:#ffffff;stroke:#ffffff;stroke-width:0.208834px;stroke-linecap:butt;stroke-linejoin:miter;stroke-opacity:1" />
    <path
       sodipodi:nodetypes="ccccc"
       inkscape:connector-curvature="0"
       id="path22"
       d="m 99.9747,73.332588 c 0,0 5.10268,-12.945684 19.65476,-7.181549 2.83482,3.96875 2.83482,3.96875 2.83482,3.96875 0,0 -16.25297,-7.181545 -20.12723,6.898066 C 99.9747,73.332588 99.9747,73.332588 99.9747,73.332588 Z"
       style="fill:#ffffff;stroke:#ffffff;stroke-width:0.264583px;stroke-linecap:butt;stroke-linejoin:miter;stroke-opacity:1" />
    <path
       style="fill:#ffffff;stroke:#ffffff;stroke-width:0.264583px;stroke-linecap:butt;stroke-linejoin:miter;stroke-opacity:1"
       d="m 99.9747,73.332588 c 0,0 5.10268,-12.945684 19.65476,-7.181549 2.83482,3.96875 2.83482,3.96875 2.83482,3.96875 0,0 -16.25297,-7.181545 -20.12723,6.898066 C 99.9747,73.332588 99.9747,73.332588 99.9747,73.332588 Z"
       id="path829"
       inkscape:connector-curvature="0"
       sodipodi:nodetypes="ccccc" />
    <path
       sodipodi:nodetypes="ccccc"
       inkscape:connector-curvature="0"
       id="path831"
       d="m 101.47734,78.718518 c 0,0 8.52317,5.222865 19.68816,-4.94654 1.29878,-3.652189 1.29878,-3.652189 1.29878,-3.652189 0,0 -12.24102,11.794739 -20.021,5.33329 -0.96594,3.265439 -0.96594,3.265439 -0.96594,3.265439 z"
       style="fill:#ffffff;stroke:#ffffff;stroke-width:0.215875px;stroke-linecap:butt;stroke-linejoin:miter;stroke-opacity:1" />
    <path
       sodipodi:nodetypes="ccc"
       inkscape:connector-curvature="0"
       id="path833"
       d="m 109.32961,68.135414 c 0,0 -4.06324,4.252233 1.79539,10.772323 3.30729,-4.630208 -1.79539,-10.772323 -1.79539,-10.772323 z"
       style="fill:#ffffff;stroke:#ffffff;stroke-width:0.264583px;stroke-linecap:butt;stroke-linejoin:miter;stroke-opacity:1" />
    <path
       inkscape:connector-curvature="0"
       id="path835"
       d="m 119.0625,63.883185 v 17.386903 h 3.49628 V 63.883185 Z"
       style="fill:#ffffff;stroke:#ffffff;stroke-width:0.264583px;stroke-linecap:butt;stroke-linejoin:miter;stroke-opacity:1" />
    <path
       sodipodi:nodetypes="ccccccc"
       inkscape:connector-curvature="0"
       id="path837"
       d="M 128.89073,77.438082 V 41.757599 h 4.67722 V 77.5049 c 0,0 1.26953,3.80859 5.4122,4.677217 -2.93996,3.608138 -2.93996,3.608138 -2.93996,3.608138 -4.78498,-0.523864 -7.24131,-4.87376 -7.14946,-8.352173 z"
       style="fill:#ffffff;stroke:#ffffff;stroke-width:0.264583px;stroke-linecap:butt;stroke-linejoin:miter;stroke-opacity:1" />
    <path
       sodipodi:nodetypes="ccccc"
       inkscape:connector-curvature="0"
       id="path839"
       d="m 121.67445,44.697565 21.78247,-0.06682 v 1.870887 c 0,0 -20.68052,0.597633 -21.71565,0 z"
       style="fill:#ffffff;stroke:#ffffff;stroke-width:0.264583px;stroke-linecap:butt;stroke-linejoin:miter;stroke-opacity:1" />
    <path
       style="fill:#ffffff;stroke:#ffffff;stroke-width:0.264583px;stroke-linecap:butt;stroke-linejoin:miter;stroke-opacity:1"
       d="M 139.47413,77.438082 V 41.757599 h 4.67722 V 77.5049 c 0,0 1.26953,3.80859 5.4122,4.677217 -2.93996,3.608138 -2.93996,3.608138 -2.93996,3.608138 -4.78498,-0.523864 -7.24131,-4.87376 -7.14946,-8.352173 z"
       id="path841"
       inkscape:connector-curvature="0"
       sodipodi:nodetypes="ccccccc" />
    <path
       style="fill:#ffffff;stroke:#ffffff;stroke-width:0.264583px;stroke-linecap:butt;stroke-linejoin:miter;stroke-opacity:1"
       d="m 132.25785,44.697565 21.78247,-0.06682 v 1.870887 c 0,0 -20.68052,0.597633 -21.71565,0 z"
       id="path843"
       inkscape:connector-curvature="0"
       sodipodi:nodetypes="ccccc" />
  </g>
</svg>
