<?xml version="1.0" encoding="UTF-8"?>
<svg width="85px" height="84px" viewBox="0 0 85 84" version="1.1" xmlns="http://www.w3.org/2000/svg" xmlns:xlink="http://www.w3.org/1999/xlink">
    <!-- Generator: Sketch 51.3 (57544) - http://www.bohemiancoding.com/sketch -->
    <title>cemi-logo-trace-hollow</title>
    <desc>Created with Sketch.</desc>
    <defs></defs>
    <g id="Page-1" stroke="none" stroke-width="1" fill="none" fill-rule="evenodd">
        <g id="home1" transform="translate(-130.000000, -33.000000)" fill-rule="nonzero">
            <g id="cemi-logo-trace-hollow" transform="translate(130.000000, 33.000000)">
                <path d="M41.5320278,8.65547021 C41.4821835,8.65547021 41.4325033,8.65547021 41.382659,8.65547021 C41.382659,7.16157437 41.3934805,5.66751703 41.3800356,4.17362118 C41.3603603,1.96491637 39.4393897,0.0213982518 37.2055809,0.00363300397 C35.018993,-0.0138092394 32.8319132,0.0360949569 30.6449973,0.0570902498 C27.9520969,0.0829306103 25.2593604,0.110385993 22.56646,0.135741847 C19.9493097,0.16029019 17.3323234,0.183062007 14.7151731,0.20615683 C11.3142877,0.236196249 7.91291053,0.312102308 4.51268105,0.279963359 C2.09244827,0.257191542 -0.0601996612,2.2393087 0.00128582707,4.72159833 C0.04194823,6.36456075 0.0480147981,8.00849219 0.0660505413,9.65193912 C0.0942518853,12.2291921 0.120321732,14.8066065 0.145407812,17.384021 C0.171149736,20.036534 0.195907893,22.6888855 0.218534552,25.3413985 C0.250507006,29.1023015 0.303466507,32.8632045 0.3026467,36.6241074 C0.302154816,39.2010374 2.45644236,41.1275978 4.86323031,41.0592823 C7.27641276,40.9908054 9.6917267,40.9962964 12.1062208,40.9722326 C14.7104182,40.9462307 17.3147795,40.9237819 19.9189769,40.8997181 C22.6623774,40.8743622 25.4056139,40.8475529 28.1490144,40.8239735 C31.1708212,40.7981332 34.1924641,40.7710008 37.2142708,40.7529125 C38.7189437,40.7438684 39.933733,40.1640753 40.8387994,38.9841399 C41.5487518,38.0587319 41.7271417,37.0025072 41.6966449,35.8532572 C41.6259776,33.1896005 41.6294208,30.5240058 41.6041707,27.8590571 C41.5794126,25.2564483 41.5433411,22.6538395 41.535143,20.0510692 C41.5231739,16.2526977 41.5320278,12.4541647 41.5320278,8.65547021 Z M84.8688035,61.7457829 C84.8448651,61.7457829 84.8210907,61.7457829 84.7971524,61.7457829 C84.7971524,59.7287813 84.8081378,57.7117796 84.7946929,55.6949395 C84.7737059,52.5567892 84.7068097,49.4188004 84.7153357,46.2808117 C84.7210743,44.1533425 82.9668524,41.9528743 80.2491938,41.9449607 C79.2388642,41.9420536 78.2283707,41.9900198 77.2178772,41.9997099 C74.2342734,42.0284573 71.2506696,42.0496141 68.2672297,42.0741625 C65.3090399,42.0985493 62.3508501,42.1256817 59.3924964,42.147969 C55.902744,42.1742939 52.4129917,42.1902826 48.9234033,42.2261361 C48.1811505,42.2337267 47.4215177,42.221937 46.7012357,42.3682581 C44.8438821,42.7455273 43.2370614,44.4912052 43.3174024,46.8995268 C43.3969236,49.2886296 43.382659,51.680801 43.4056136,54.0716804 C43.433323,56.9604712 43.4570974,59.8494235 43.4823475,62.7383758 C43.5080894,65.6772323 43.5379303,68.6160888 43.5577697,71.5549453 C43.5712145,73.5354474 43.5613768,75.5162726 43.581544,77.4966132 C43.5885944,78.1787987 43.5856431,78.8727739 43.7077942,79.5399397 C44.0706406,81.5225414 45.971444,83.0545517 48.1657381,82.9985104 C50.9078269,82.92858 53.6520472,82.9397236 56.3952838,82.9158213 C59.3029735,82.8904654 62.2106632,82.8630101 65.1183529,82.8400767 C68.5826913,82.8127829 72.0468657,82.7895265 75.511204,82.7643322 C77.2309941,82.7518965 78.951768,82.7730533 80.6700824,82.71895 C83.1826254,82.6399754 85.0081706,80.7390939 84.9999725,78.2572888 C84.9960374,77.0621721 84.9571786,75.867217 84.9457013,74.6719388 C84.9166802,71.6337584 84.8911022,68.5954165 84.8702791,65.5570746 C84.8615892,64.2870209 84.8688035,63.0164827 84.8688035,61.7457829 Z" id="Shape" fill="#FFFFFF"></path>
                <path d="M22.4638461,83.983622 C22.5754941,83.983622 22.6871422,83.983622 22.7984656,83.9356233 C22.6546864,83.9356233 22.5110693,83.9356233 22.3672901,83.9356233 C16.7835906,83.9356233 11.1998912,83.9267046 5.61619183,83.9408123 C3.83826196,83.9453528 2.47138507,83.248722 1.55450813,81.7205449 C1.18191531,81.0993176 0.999675875,80.4159837 1.00000043,79.6849754 C1.0025969,74.0428497 0.999838154,68.4008862 1.00308374,62.7587604 C1.00600476,57.6172165 1.00941262,52.4756725 1.02190811,47.3342908 C1.02758788,45.0034316 2.8571225,43.0838051 5.18842411,43.023158 C7.06469511,42.9743484 8.94356257,43.0178068 10.8211318,43.0181311 C19.7224652,43.0195905 28.6237986,43.0192662 37.525132,43.0220229 C39.7120053,43.0226715 41.4993473,44.4665264 41.9071547,46.5927422 C42.0027371,47.0910538 42.0006275,47.6128782 41.9998161,48.1238381 C41.9947854,51.1253828 41.9684962,54.1270897 41.9650883,57.1286344 C41.9566498,64.5844974 41.9558384,72.0405226 41.9535665,79.4963857 C41.9529174,81.8064886 40.4354455,83.5777405 38.1497443,83.9305964 C38.1291349,83.9338395 38.1116087,83.9571903 38.0535128,84 L22.4638461,83.983622 Z M26.6467523,61.8300815 C26.4843109,62.1411006 26.3546499,62.3681218 26.2444624,62.6042239 C25.9182814,63.3031249 26.0289558,63.8385706 26.6092658,64.3470981 C26.7871237,64.502932 26.9826701,64.6401176 27.177405,64.7751953 C27.5574626,65.038702 27.9818225,65.2522641 28.3188762,65.5613373 C29.4360055,66.5855273 31.6155762,66.0362981 32.3149991,64.7948164 C32.5756194,64.3321796 32.6285224,63.8867315 32.3630337,63.3778797 C32.1605094,62.9895113 32.0506465,62.5390363 31.9716165,62.1031556 C31.8452011,61.4065248 31.8388722,60.6875162 31.4951651,60.0388842 C31.2205889,59.5207893 30.8176498,59.2506341 30.2203005,59.1950139 C29.8274227,59.1583662 29.4459046,58.9989649 29.0593557,58.8945351 C29.0666583,58.8608063 29.0741231,58.8272395 29.0814257,58.7935107 C29.5299652,58.6962159 29.9815879,58.6109208 30.4263949,58.4985453 C31.0448406,58.3423871 31.2593736,58.0086659 31.1042347,57.3905196 C30.9588327,56.8116155 30.8083999,56.2265494 30.5797487,55.6776446 C30.2798569,54.9573387 30.124069,54.2892477 30.4148731,53.4975923 C30.5984108,52.9979835 30.6087966,52.3738373 30.5002319,51.8458508 C30.3992943,51.3546742 30.0823632,50.8855511 29.78166,50.462643 C29.1787932,49.614881 28.2953457,49.2038104 27.2914872,49.00841 C26.387268,48.8324686 25.654091,49.1078129 25.2120428,49.9002791 C24.7836259,50.6682594 24.4316425,51.483752 24.1041633,52.301677 C23.8862225,52.8462036 24.1599873,53.2815978 24.7326703,53.4333777 C24.9236728,53.483971 25.1253857,53.5013219 25.3235285,53.5173756 C26.0708238,53.5781848 26.8184436,53.6334807 27.5662257,53.6886144 C28.1729873,53.7332079 28.7446966,53.8968253 29.2583099,54.2235737 C29.3715807,54.295734 29.4324354,54.4497841 29.5174697,54.5662136 C29.3358793,54.6304282 29.2385119,54.6215095 29.1421181,54.6062666 C27.9842567,54.4231902 26.8296409,54.215628 25.6670734,54.0708209 C25.3585808,54.0323894 24.9472033,54.0875231 24.7188766,54.2696266 C23.9400991,54.8908539 24.0671637,56.2962774 24.9035502,56.8348041 C25.1088332,56.9669629 25.3251513,57.0817708 25.5908022,57.2363073 C25.0997456,57.416627 24.6747366,57.5945144 24.2360962,57.726511 C23.8893058,57.8307786 23.7828507,58.0326653 23.8600955,58.3642784 C24.0379534,59.127394 24.2231139,59.888888 24.391235,60.6542738 C24.47205,61.0217239 24.7110872,61.1694498 25.0499259,61.2703121 C25.5820391,61.4289026 26.0997094,61.6354919 26.6467523,61.8300815 Z M39.0495819,55.831046 C39.1336425,55.5062436 39.2277644,55.2104673 39.2803428,54.9075562 C39.3024128,54.7804243 39.262979,54.6255634 39.2056944,54.50508 C39.0359505,54.1471973 38.8316411,53.8055304 38.6636822,53.446999 C38.5267187,53.154466 38.4712192,52.8140963 38.2953087,52.5512382 C37.5381144,51.4198618 36.7642053,50.2991878 35.9683886,49.1947296 C35.3812628,48.3802099 34.7068308,48.2512943 33.744678,48.7317685 C33.744678,50.2896204 33.744678,51.8664449 33.744678,53.4335399 C33.4759438,53.1825193 33.2347971,52.9290663 32.9647647,52.711126 C32.5160629,52.348865 32.1655401,52.3905396 31.7987893,52.8283662 C31.4184071,53.2822465 31.2037118,53.8003413 31.1856988,54.4004881 C31.1574623,55.3437612 31.4839678,56.1941178 31.918389,56.9956648 C32.0465895,57.2322534 32.3763406,57.3996004 32.6499432,57.5058139 C32.8820023,57.5959738 33.1679381,57.5377591 33.4267733,57.5710015 C33.9194526,57.6342431 34.4221933,57.6707286 34.8975088,57.8019145 C35.4309202,57.9493161 35.5884932,58.2898479 35.4203721,58.8082671 C35.3256011,59.1006379 35.1894489,59.3865225 35.0299285,59.6498671 C34.2829578,60.8824301 34.9609599,62.5315771 36.3088502,62.6695735 C37.4394487,62.7851922 38.5767006,62.8354612 39.7110316,62.913297 C40.0433792,62.9361613 40.3762136,62.9541608 40.7249514,62.9754035 C40.7389074,62.8828113 40.7557844,62.8232993 40.7557844,62.7637873 C40.7570827,60.9886436 40.7734729,59.2134999 40.7504292,57.4386805 C40.7361487,56.3335737 40.26132,55.8947741 39.0495819,55.831046 Z M20.7925336,70.4627252 C20.6271712,71.4953474 20.9071027,72.3567307 21.6844196,73.0450915 C22.1287398,73.438649 22.6814624,73.4727022 23.1700848,73.172872 C23.3966264,73.0339026 23.6707158,72.9533101 23.9342571,72.8981763 C24.2995473,72.8216378 24.6818769,72.8237458 25.0450576,72.7402344 C26.3267379,72.445269 27.197203,71.7961505 27.3236185,70.3772679 C27.4243938,69.2467023 27.5227349,68.1158124 27.5986815,66.983463 C27.6089051,66.8313588 27.5238709,66.6224993 27.4102755,66.5208262 C26.8340224,66.0051637 26.2615017,65.4775016 25.6341307,65.0288104 C24.9880976,64.5668222 24.2386927,64.3505034 23.4331392,64.5293637 C22.003298,64.8467069 20.9395585,65.8034392 19.9533884,66.7656848 C19.0546867,67.6424731 19.1015854,69.7814994 20.7925336,70.4627252 Z M14.5373233,49.7081218 C14.5113586,49.4875869 14.4814993,49.1519199 14.4305436,48.8193338 C14.2969879,47.9462751 14.160998,47.0733785 14.0084557,46.2034008 C13.9850875,46.0704313 13.8989173,45.9097327 13.7910017,45.8365994 C13.0263426,45.3181803 12.2603852,44.7992746 11.4681386,44.3249625 C11.183501,44.1545344 10.7904611,44.0929143 10.5288671,44.3762044 C9.31777819,45.6875762 8.11529003,47.0077045 6.93746829,48.3489134 C6.4209339,48.9370605 6.2578434,49.6520152 6.49022708,50.4154551 C6.99751156,52.0822772 8.16024134,53.087819 9.78319466,53.6094813 C9.87699198,53.6396427 10.0040565,53.6253728 10.0976916,53.5874278 C10.964262,53.2363558 11.8236921,52.8680949 12.6912362,52.5194552 C13.9058953,52.0311974 14.5358628,51.1208424 14.5373233,49.7081218 Z M31.8333548,66.3860729 C31.2720313,66.9701661 30.7566329,67.4410729 30.3186416,67.9752214 C29.3233839,69.1892984 28.5123129,70.5222372 27.9519631,71.9939833 C27.6910183,72.6795873 27.9662437,73.1594129 28.6788112,73.3465432 C28.794354,73.3768668 28.9090853,73.4107578 29.0243035,73.4430272 C28.6887103,74.5487827 29.235104,75.9984753 30.203748,76.5798117 C30.3783603,76.684728 30.6032791,76.7698609 30.8001237,76.7604558 C31.1689841,76.7429427 31.4412884,76.8841823 31.7223558,77.0945012 C32.1635927,77.4248171 32.6811008,77.4810859 33.120228,77.1564456 C33.4576063,76.9070466 33.7956337,76.5621365 33.9535312,76.1846327 C34.5017101,74.8742338 34.996499,73.5396734 35.4567226,72.1955457 C35.6105632,71.746368 35.637177,71.241408 35.6439927,70.7609338 C35.6464269,70.5909922 35.4414684,70.3852137 35.2800006,70.2640817 C35.2262863,70.2237043 34.9723195,70.3641331 34.8793335,70.4782924 C34.6120599,70.8069867 34.3762683,71.1617884 34.1354461,71.5112389 C33.8079669,71.9863619 33.8058573,71.989605 33.2659547,71.7557732 C33.4981761,71.4188088 33.7536034,71.093682 33.9593733,70.7396911 C34.4001233,69.982251 34.451079,69.1928659 33.8676856,68.5045051 C33.2659547,67.7944152 32.5793518,67.1555127 31.8333548,66.3860729 Z M18.0930207,76.8478589 C18.4028115,76.8780203 18.6501249,76.9243975 18.8963023,76.9196949 C19.1380982,76.9151545 19.439775,76.939316 19.6096812,76.8112112 C20.4394143,76.1859299 20.9725012,75.2913042 20.5947154,74.1667384 C20.2573371,73.1624939 19.9034064,72.1603574 19.4845641,71.1883823 C19.303136,70.7674201 18.9761436,70.3902406 18.6517477,70.0544114 C18.2541639,69.6428543 17.7327611,69.5969636 17.2404063,69.8864157 C16.4775323,70.3349447 15.6331941,71.2976768 15.9410375,72.5931571 C16.0213657,72.9309322 16.1016939,73.2688695 16.1974385,73.6713457 C15.870933,73.3802721 15.6190758,73.1177383 15.3295699,72.9062842 C14.8041101,72.5226184 14.576108,72.5879681 14.2799486,73.1738449 C13.4974388,74.7211567 12.7243411,76.2733331 11.9371252,77.8182124 C11.7260001,78.2326883 11.6669305,78.6176514 11.9958702,78.9971012 C12.30274,79.3510921 12.7082755,79.4409276 13.1175434,79.3029312 C13.5913984,79.1432055 14.0355563,78.8951038 14.54706,78.660299 C14.6225198,78.7186759 14.7666237,78.8621857 14.9384772,78.9549401 C15.1314271,79.0592077 15.3699774,79.2169874 15.5523791,79.1788803 C16.4022348,79.0013173 17.2522527,78.8026737 18.0759814,78.5318698 C18.4957975,78.3938734 18.5892702,78.0251261 18.436241,77.6002721 C18.3528296,77.368224 18.2324185,77.1494728 18.0930207,76.8478589 Z M23.7236188,61.8036498 C23.7521799,59.7818637 22.3762154,58.0616916 20.4423353,57.5651638 C19.043814,57.2059838 17.7794975,57.3863035 16.7857003,58.5329228 C16.1364216,59.2820928 15.8456174,60.2042853 15.8436701,61.1600446 C15.8426964,61.6585184 16.0246113,62.2666109 16.5015496,62.5693599 C17.2804893,63.0636175 17.7202656,63.7618699 17.9982497,64.6034699 C18.3312465,65.6112819 19.1103484,65.928463 20.0243044,65.3931794 C20.8217439,64.9263265 21.562548,64.3568276 22.3797855,63.9314871 C23.328956,63.4373917 23.7463379,62.6982755 23.7236188,61.8036498 Z M23.3302543,55.0320935 C23.3263596,53.7036951 22.7906762,52.7562059 21.4797856,52.3412436 C21.4090319,52.3188658 21.342173,52.2817316 21.2761254,52.2465433 C20.9681196,52.083088 20.7849065,51.8494183 20.6453465,51.5074271 C20.4515852,51.032142 20.1875571,50.5521543 19.8396307,50.1808124 C19.3123859,49.6182863 18.6804711,49.1546766 18.1050294,48.6357709 C17.3885671,47.9895713 16.6527937,48.0537858 16.1765045,48.8874402 C15.8889459,49.3906165 15.7143336,49.9596289 15.5045067,50.5049663 C15.4347267,50.6865833 15.4146041,50.8870105 15.3688414,51.0780327 C15.3259997,51.256893 15.3253506,51.4681848 15.2252244,51.6065056 C14.9401,52.0000631 14.8893067,52.2460568 15.1328876,52.6720459 C15.2497286,52.8762028 15.3884772,53.0779274 15.5556247,53.241707 C16.2876657,53.9582832 17.0093209,54.6886429 17.7817694,55.359977 C18.4938501,55.9789341 19.2679215,56.4975155 20.3019639,56.41595 C20.7329772,56.3818968 21.1307233,56.5476223 21.4349966,56.8985322 C21.5098073,56.9849624 21.6759811,57.0350692 21.7972036,57.0302045 C22.1155952,57.0175562 22.3968249,56.9260991 22.5923712,56.6246473 C22.9172539,56.1237412 23.2755662,55.6439157 23.3302543,55.0320935 Z M9.47794766,57.5684069 C9.45019794,58.1174739 9.56785029,58.6495144 9.9638113,59.0208562 C10.5158848,59.5384646 11.0890546,60.0690456 11.7417412,60.4369821 C13.423115,61.3847956 15.8597357,59.9394813 16.1184086,57.8695344 C16.2604028,56.7329689 15.8910556,55.6891578 15.3923719,54.70421 C14.9055346,53.7429374 14.0723937,53.2050593 12.9820404,53.3111106 C12.2866744,53.3787305 11.6115933,53.6483993 10.925315,53.8183409 C10.5418495,53.9133654 10.3375401,54.1291978 10.2189141,54.5250254 C9.91821087,55.528297 9.53085065,56.5069206 9.47794766,57.5684069 Z M18.3500708,46.0765933 C18.3500708,46.4907448 18.3341675,46.8252768 18.3562374,47.1573764 C18.3687329,47.3471012 18.3847986,47.5843384 18.4985562,47.7121189 C19.587449,48.9346281 20.8058405,49.997736 22.3158476,50.684313 C23.1726813,51.0738166 23.3771529,51.0230611 23.9302001,50.2521619 C23.988296,50.1710829 24.0433086,50.0864365 24.0884222,49.997736 C24.877261,48.4431272 24.7917399,46.9100854 23.9107266,45.4315287 C23.500485,44.743168 22.8318951,44.2745313 22.0453283,44.2487482 C20.107229,44.1850201 18.1655595,44.2258839 16.2255128,44.2354512 C16.1247375,44.2359377 15.9728442,44.311179 15.9324367,44.3943661 C15.7062197,44.8584623 15.6539658,45.3431526 15.9923177,45.7731956 C16.367507,46.249778 16.7899195,46.6989557 17.4778207,46.6237144 C17.6631434,46.6034446 17.8421372,46.4767992 18.0115566,46.3777207 C18.1163889,46.3162628 18.197853,46.2147519 18.3500708,46.0765933 Z M25.9547942,82.7307893 C26.579731,82.7307893 27.2049924,82.739708 27.8294424,82.7234922 C27.9584543,82.7200868 28.1234922,82.6571695 28.2062545,82.5637665 C28.6859515,82.0226453 29.1531531,81.4698486 29.6106179,80.9095927 C29.9755836,80.4628474 30.2241952,79.9632386 30.1260163,79.3630918 C30.0038201,78.6160298 29.4600229,78.0852867 28.6698859,77.8984807 C27.2765575,77.5689756 25.8955623,77.1737965 24.4889271,76.9185598 C23.4100956,76.7228351 22.7320935,77.0580157 22.4704996,77.9818299 C22.2201029,78.8660775 22.2082565,79.8007562 22.6094105,80.6563019 C22.9256925,81.3305549 23.3432366,81.9582685 23.7331933,82.596036 C23.7812279,82.6745204 23.9358799,82.72333 24.0421727,82.7252759 C24.6797673,82.7371134 25.3173619,82.7311136 25.9547942,82.7307893 Z M5.96006125,64.3088288 C6.01393791,64.4743922 6.05304717,64.8043837 6.215164,65.0552421 C6.91231503,66.1348902 7.63299653,67.1999439 8.37185329,68.2515386 C8.64951284,68.6468798 8.98121133,68.6927706 9.46788636,68.4843975 C10.1033713,68.2124585 10.6114672,67.7793345 11.0111606,67.217457 C11.6489175,66.3207232 11.893959,65.2756149 12.1377022,64.2306687 C12.1768114,64.062673 12.2443195,63.8726238 12.2024515,63.7190602 C11.8407314,62.3900131 11.3129998,61.1496665 10.2327078,60.2208255 C9.41806667,59.520465 9.06478506,59.5744636 8.56301808,60.5073587 C8.00867266,61.5377106 7.38276215,62.5064426 6.42434176,63.2204243 C6.11828337,63.4484184 5.97937246,63.7816531 5.96006125,64.3088288 Z M13.4932195,71.1608154 C13.4526498,70.4672656 13.0514958,69.8392277 12.4153617,69.3647533 C11.7982143,68.9043868 11.4431476,68.8915763 10.8798768,69.4093468 C10.2856108,69.9556571 9.73808107,70.560993 9.22609049,71.1864364 C8.61592106,71.9317146 8.09938667,72.7465586 7.81815699,73.6815617 C7.76428033,73.8605841 7.73588148,74.0892269 7.80079312,74.2538173 C7.99228247,74.739967 8.21963549,75.2142792 8.46370326,75.6770781 C8.84294953,76.3962489 9.36061987,77.0004496 10.0757839,77.4081148 C10.5597002,77.6839456 10.9825995,77.6085421 11.356166,77.198931 C11.4814455,77.0615832 11.6093214,76.9149923 11.6896496,76.7500776 C12.0111245,76.0894459 12.334709,75.428652 12.6195088,74.7519667 C13.0860613,73.643941 13.4115931,72.4957002 13.4932195,71.1608154 Z M40.7449117,64.0033231 C40.661338,63.9892154 40.613628,63.9729996 40.5662425,63.9742969 C38.6085073,64.0300792 36.6770614,63.8510568 34.7745012,63.3666908 C34.3269355,63.2526937 33.9752766,63.4403105 33.8834267,63.8937043 C33.7662612,64.4724463 33.6596438,65.0873494 33.7321825,65.663659 C33.8891064,66.9104919 34.6474367,67.8597649 35.5398095,68.6861221 C35.7381146,68.8698471 36.0774402,68.933413 36.3637005,68.9802767 C36.5887816,69.0170866 36.8398274,68.9724931 37.0660445,68.9134676 C38.196643,68.61834 39.3248073,68.3133208 40.4476164,67.9903021 C40.5673784,67.9559246 40.7301444,67.7830641 40.7320917,67.6721481 C40.7525389,66.4611521 40.7449117,65.2495074 40.7449117,64.0033231 Z M40.7202453,77.8182124 C40.7228418,77.8110775 40.7384206,77.788051 40.7384206,77.7651868 C40.7406925,76.0158262 40.7463723,74.2663034 40.7353373,72.5169429 C40.7343636,72.3557578 40.6512767,72.1811136 40.5654311,72.0371173 C40.2906925,71.5759399 39.854324,71.3928635 39.3345441,71.3855664 C38.7469314,71.3772964 38.1563978,71.4103766 37.5725175,71.3618914 C37.0339132,71.3171358 36.687285,71.4921042 36.4873572,71.9965778 C35.9365819,73.3865962 35.3676314,74.7694797 34.8225358,76.1617684 C34.6626909,76.5697579 34.9246094,77.0208815 35.3574078,77.0914202 C36.0342739,77.2015255 36.7169821,77.274821 37.3969316,77.3664402 C38.4941006,77.5143283 39.5911073,77.6644866 40.7202453,77.8182124 Z M29.7133405,48.634798 C31.116568,48.6240956 32.3455076,48.1758908 33.444624,47.3318584 C33.858598,47.0140287 33.8983564,46.870681 33.70281,46.3738289 C33.4571195,45.7495206 33.2318761,45.1169422 32.9792075,44.4955527 C32.9396114,44.39842 32.8023233,44.2761529 32.7088505,44.2750178 C30.6084721,44.2492347 28.5077691,44.2359377 26.4072284,44.2346404 C26.3092118,44.2346404 26.145959,44.3512321 26.1229154,44.4415541 C25.9074087,45.286073 25.6932003,46.1322135 25.5250791,46.9871105 C25.3991506,47.6274724 25.7215991,48.1092439 26.3739611,48.2114034 C27.4820029,48.3847503 28.5997813,48.4969637 29.7133405,48.634798 Z M2.98207741,81.2877452 C3.68620644,82.1916139 4.60146059,82.5070112 5.64556434,82.117832 C6.51586718,81.793516 7.33099512,81.3185552 8.16072818,80.8911067 C8.26052983,80.8397026 8.33030984,80.6744636 8.35870868,80.5494398 C8.53169821,79.7879458 8.56464087,79.0223978 8.41923879,78.2485798 C8.19042525,77.0293137 7.64516746,75.935558 7.08919925,74.8466669 C6.77551374,74.2322503 6.42369265,74.2050077 5.99511353,74.7631556 C4.81664268,76.2979811 3.64433843,77.8379957 2.4843674,79.3867668 C2.41864436,79.4744943 2.43178897,79.6963265 2.49881024,79.7937834 C2.71090903,80.1025323 3.02848923,80.0699385 3.34314842,79.9685898 C3.9226471,79.7819459 4.50474224,79.6210852 5.14331052,79.7853512 C4.29588904,80.0992891 3.56465939,80.5729527 2.98207741,81.2877452 Z M5.15824019,64.8565986 C4.73160843,65.2522641 4.27738922,65.7149009 3.78032832,66.1259715 C2.71090903,67.0107056 2.4439599,68.1853782 2.50319177,69.487507 C2.52282754,69.9173878 2.66806734,70.3049455 3.05185742,70.5400746 C3.77464855,70.9829281 4.51366759,71.399512 5.23727012,71.8409061 C5.72930036,72.1410606 5.98164437,71.9944698 6.26417229,71.5636159 C6.71595731,70.8744444 7.11727354,70.1521926 7.56986996,69.4635076 C7.81685875,69.0877875 7.7543813,68.7706064 7.52767739,68.4303989 C6.74143513,67.2508616 5.9603858,66.0675946 5.15824019,64.8565986 Z M18.0714376,67.6144198 C18.033302,66.9437343 17.7509364,66.418018 17.2754586,66.0186229 C16.6157941,65.4642046 15.9293534,64.9392992 15.2322024,64.4323932 C14.7789569,64.102726 14.5988271,64.1456979 14.266804,64.598443 C13.5427147,65.5858231 12.8142438,66.5743384 12.4401904,67.7614971 C12.3988093,67.8930073 12.4325633,68.1051099 12.5177598,68.2100262 C13.0849253,68.9089272 13.6866562,69.5797749 14.252848,70.2794867 C14.4623503,70.538453 14.6689316,70.5937489 14.9655778,70.4724547 C16.0895229,70.0133854 17.0339873,69.3101061 17.7837168,68.3621304 C17.9417766,68.1620274 17.978614,67.866089 18.0714376,67.6144198 Z M40.7518898,51.9064979 C40.7518898,50.2383785 40.7978147,48.6633378 40.7348504,47.0926753 C40.6965526,46.1393484 40.1814787,45.3796381 39.3170179,44.7627891 C39.1307215,45.0618084 38.9134298,45.3217477 38.7965888,45.6207671 C38.6528095,45.9885415 38.5814067,46.3866394 38.4991312,46.7759807 C38.4045225,47.2235368 38.1594811,47.5099079 37.7068846,47.6175808 C37.4649265,47.6751469 37.2226438,47.7382264 36.9892864,47.8231972 C36.4164412,48.0317324 36.2642234,48.3508593 36.6048472,48.8567923 C37.3782695,50.0056818 38.1903141,51.1294368 39.0158279,52.2418407 C39.3085794,52.6363711 39.5399894,52.6216148 39.8754203,52.2624348 C40.106668,52.0146573 40.2984819,51.7256918 40.7518898,51.9064979 Z M35.0068849,82.7311136 C35.8664773,82.7311136 36.7036752,82.7160329 37.5400617,82.7341946 C39.4474903,82.7753827 41.1314606,81.0780749 40.6759431,78.5579773 C40.273491,78.5934899 39.8647099,78.616192 39.459499,78.6677582 C38.3394486,78.810133 37.2486085,79.0606671 36.2660085,79.6473548 C35.0932174,80.3473909 34.6271518,81.481524 35.0068849,82.7311136 Z M14.7340056,82.7256002 C15.6098259,82.7256002 16.4858085,82.7312757 17.3614665,82.7184653 C17.4714918,82.7168437 17.6487006,82.6416024 17.6783976,82.5589018 C17.9049393,81.9263234 18.1220687,81.2888803 18.3025231,80.6418698 C18.4286139,80.1899355 18.0307056,79.6950292 17.5596093,79.69584 C16.4358265,79.6977859 15.3107455,79.6908131 14.1889101,79.7452982 C13.7794799,79.7652436 13.3711856,79.9288611 12.9757115,80.0655603 C12.7394331,80.1472879 12.6362236,80.3478774 12.7420296,80.6089517 C12.8465373,80.866783 12.7334288,81.0430487 12.520194,81.1752075 C12.4035154,81.24753 12.2861876,81.3230956 12.1599344,81.3743375 C11.828885,81.5086044 11.6618998,81.7233016 11.7479078,82.095292 C11.7699777,82.1908031 11.7644602,82.2952329 11.7563463,82.3944736 C11.7350877,82.6548993 11.8460866,82.7363026 12.1067069,82.7319244 C12.9822026,82.7174923 13.8581852,82.7265732 14.7340056,82.7256002 Z M8.22142056,55.795047 C8.15099143,54.5913481 7.60102755,53.5932655 6.58077882,52.8786352 C5.90667142,52.4064311 5.2257483,52.6543707 5.01640826,53.4601338 C4.65144255,54.8647465 4.46433475,56.2980611 4.54807076,57.7535914 C4.58442128,58.3860076 4.99417602,58.6733516 5.63404253,58.5369767 C6.31950946,58.3908723 6.91085452,58.0629889 7.44037123,57.6010007 C7.97946242,57.1300938 8.18296041,56.5291363 8.22142056,55.795047 Z M26.4286492,73.3919475 C25.1398285,73.3878935 24.2281445,74.0418768 23.9753137,74.966826 C23.9248449,75.1513618 23.9613577,75.4605972 24.0846898,75.5721619 C24.4404056,75.8942077 24.824358,76.2490094 25.2633229,76.4038703 C26.5424068,76.8549939 27.8524861,77.2188764 29.1531531,77.6075692 C29.4330845,77.6912427 29.557228,77.5555165 29.4872857,77.27174 C29.4699219,77.2008769 29.4330845,77.133257 29.3965717,77.0690424 C28.9178484,76.2266316 28.4568134,75.3735183 27.9518009,74.546999 C27.5370155,73.8673947 26.9565431,73.4011905 26.4286492,73.3919475 Z M8.48074257,59.2511206 C8.44471661,58.6608654 8.30337151,58.2908209 7.7100791,58.4648164 C7.15005392,58.6289203 6.60219966,58.8353474 6.03990257,58.9903705 C4.69623158,59.3605772 3.97636148,60.3155257 3.58510656,61.5761421 C3.53058078,61.7520835 3.50494068,62.0100769 3.59500558,62.1422357 C3.77335032,62.4037966 4.01417251,62.6458985 4.27901201,62.8207048 C4.83530478,63.1879927 5.29390552,63.1218322 5.72702845,62.622872 C6.59441026,61.6234922 7.44507733,60.6095182 8.29509527,59.5952199 C8.39311185,59.4781418 8.44374293,59.3214972 8.48074257,59.2511206 Z M9.45896101,44.3196112 C9.43672877,44.2862067 9.41433425,44.2529643 9.39210202,44.2195598 C7.99422982,44.2195598 6.59538394,44.1892362 5.19864769,44.2318838 C4.45005418,44.254748 3.77724502,44.5561998 3.21689527,45.1313742 C3.67273728,45.6771981 4.09823309,46.2145897 4.55715839,46.7216578 C4.72803829,46.9105719 4.96577718,47.0493791 5.19296792,47.1752138 C5.70479622,47.4588281 6.4652361,47.4980703 7.00384044,46.9081395 C7.5578613,46.3013443 8.18312269,45.7603851 8.75888895,45.1725624 C9.01528994,44.9108393 9.22690189,44.6053337 9.45896101,44.3196112 Z M2.25117232,56.8508577 C2.69273377,56.7321581 3.07327827,56.6111882 3.46226128,56.5312443 C3.74105678,56.4740025 3.86990639,56.3397357 3.88548518,56.0559592 C3.92426989,55.3452206 3.97636148,54.6349686 4.02601889,53.9248787 C4.07454034,53.2329504 4.20777148,52.5580488 4.58279849,51.965037 C4.82410752,51.5834792 4.81680496,51.2403528 4.55699611,50.8920374 C4.28534089,50.5276684 3.91518226,50.3690779 3.47102435,50.4675078 C3.16788698,50.5348034 2.88146436,50.6740971 2.57994979,50.7516086 C2.30164113,50.8231203 2.21904106,50.9680896 2.22131297,51.2562443 C2.23575581,53.020037 2.22796641,54.7838296 2.22910237,56.5477844 C2.22926465,56.642809 2.24273381,56.7376715 2.25117232,56.8508577 Z M2.22877781,78.1199885 C2.55479653,77.7825377 2.81087295,77.5300577 3.05299338,77.2647672 C3.80775349,76.4379235 4.47390921,75.5603243 4.7372882,74.4364072 C4.97145695,73.4373517 4.76779667,72.8805011 3.89343686,72.358028 C3.43370016,72.0833323 2.94816108,71.8512842 2.47187191,71.6044797 C2.40290329,71.5686428 2.3204655,71.5587512 2.22877781,71.5324816 C2.22877781,73.7120474 2.22877781,75.8554519 2.22877781,78.1199885 Z M33.7772961,44.3269084 C34.0590127,44.9829997 34.3449484,45.6570905 34.6388359,46.3276139 C34.7138088,46.4985284 34.8064702,46.6627945 34.9043245,46.8220336 C35.1287565,47.1872134 35.463376,47.4283424 35.8865999,47.4195859 C36.6110139,47.4045052 37.54136,47.0929996 37.8886372,46.2129681 C38.1185867,45.6300101 38.2459758,45.0068369 38.4407108,44.3270705 C36.8497264,44.3269084 35.3212195,44.3269084 33.7772961,44.3269084 Z M28.9832468,82.6239271 C29.0028826,82.6534399 29.0225184,82.6831148 29.0421542,82.7127897 C30.4476535,82.7127897 31.8531528,82.7127897 33.2778011,82.7127897 C33.2636828,82.6312243 33.2631959,82.5674962 33.241126,82.5125246 C33.1762143,82.3511774 33.1126009,82.1878843 33.0308123,82.0348071 C32.503892,81.0490486 31.606164,80.7505157 30.6509892,81.3300684 C30.0533153,81.6926537 29.536294,82.1880464 28.9832468,82.6239271 Z M2.79626784,45.7754658 C2.75375071,45.7791955 2.71123358,45.7827629 2.66871646,45.7864926 C1.9360263,47.1491063 2.34448281,48.6265279 2.2047605,50.1838934 C2.7483955,49.9536291 3.21007955,49.8042815 3.61577731,49.561531 C3.7595566,49.4754251 3.86309066,49.1387851 3.81927531,48.9561952 C3.65748304,48.2801584 3.43305104,47.6185537 3.2190049,46.955814 C3.09080441,46.5582025 2.93793749,46.1685368 2.79626784,45.7754658 Z M2.2622073,57.9510998 C2.2622073,58.9634523 2.2622073,59.9501837 2.2622073,60.9612389 C2.73249215,60.8517823 3.11238753,60.6372472 3.31426274,60.2534192 C3.53658511,59.8305111 3.69253533,59.3665771 3.8270647,58.905724 C3.94552845,58.5000047 3.80288512,58.2930911 3.39329266,58.1897964 C3.03351989,58.0991501 2.66693139,58.0352598 2.2622073,57.9510998 Z M22.5352489,82.7090601 C22.0278022,81.9577821 21.4018917,81.5966562 20.5655052,81.6701137 C19.8579683,81.7322203 19.3265042,82.1008054 18.8557325,82.7090601 C20.1127465,82.7090601 21.2818051,82.7090601 22.5352489,82.7090601 Z M21.4437597,78.7764041 C21.4408387,78.7762419 21.4379176,78.7760798 21.4349966,78.7757555 C21.4349966,78.6883523 21.4505754,78.5975438 21.431751,78.5143568 C21.3924795,78.3413342 21.3348704,78.1725277 21.2847262,78.0020996 C21.0783071,78.0633953 20.82645,78.0700438 20.6737453,78.1963649 C20.1990789,78.5891116 19.9949318,79.1357462 19.9451122,79.7414064 C19.9402438,79.8007562 19.9428402,79.8884837 19.9790285,79.9189694 C20.2998543,80.188476 20.6591402,80.0869651 21.0117727,80.0044267 C21.2423713,79.9504281 21.418931,79.8648087 21.3944268,79.5591408 C21.3741419,79.3011474 21.4246107,79.0374785 21.4437597,78.7764041 Z M37.558237,69.9469006 C37.5540177,69.9983047 37.5497985,70.0498709 37.5455792,70.101275 C37.9379701,70.2297042 38.3301987,70.3587819 38.7227518,70.4864003 C39.2691456,70.6639633 39.7506277,70.6756387 40.0459756,70.051006 C40.1336064,69.8658216 40.3570647,69.7268522 40.1637903,69.4975608 C39.988042,69.2890256 39.8071008,69.1442185 39.490332,69.2981064 C39.2024489,69.4378866 38.8731846,69.4909123 38.5656657,69.5925853 C38.2279628,69.7043122 37.8939924,69.8282009 37.558237,69.9469006 Z M7.43680109,82.726411 C7.95349776,82.726411 8.42800186,82.726411 8.90266824,82.726411 C9.3666242,82.726411 9.83041788,82.726411 10.3482505,82.726411 C9.29376088,81.4083907 8.07942635,81.4147149 7.43680109,82.726411 Z M13.254507,44.2359377 C13.2403887,44.2664234 13.2262704,44.2969091 13.2119898,44.3273948 C13.5141535,44.4871205 13.8062559,44.6706833 14.1207528,44.8005719 C14.5444636,44.9757025 14.945293,44.7212766 15.0468797,44.2359377 C14.4475829,44.2359377 13.851045,44.2359377 13.254507,44.2359377 Z" id="Shape" fill="#00355F"></path>
                <path d="M40.8349764,8.64260249 C40.8349764,12.4354884 40.8262711,16.2283742 40.8380394,20.0212601 C40.8459387,22.620161 40.881566,25.2189006 40.9059086,27.8176402 C40.9308961,30.4784658 40.9273495,33.1400977 40.9968307,35.7999556 C41.0268157,36.9474971 40.8514198,38.0021516 40.1533828,38.9261838 C39.2635066,40.1043651 38.0691057,40.6832962 36.5896864,40.6923269 C33.618596,40.7103882 30.6475056,40.7374803 27.6765764,40.7632822 C24.9792197,40.7868265 22.2820242,40.813596 19.5846674,40.8389142 C17.0241775,40.8629422 14.4635264,40.8855189 11.9030365,40.9113209 C9.52906594,40.9353489 7.15428934,40.929866 4.78160846,40.9982412 C2.41521475,41.0664551 0.297083611,39.1427588 0.29756724,36.5696599 C0.298373287,32.8143481 0.24630263,29.0590363 0.214866785,25.3037245 C0.192619879,22.6551549 0.16827725,20.0067465 0.142967365,17.3581769 C0.118463526,14.7845942 0.0926700121,12.2111727 0.0649419844,9.63758998 C0.0473701529,7.9965863 0.0414054028,6.35509882 0.00126424643,4.71457893 C-0.0591893023,2.23581835 2.05732974,0.256647924 4.43694263,0.279547149 C7.78010447,0.311638318 11.1243948,0.235845106 14.4682015,0.205850345 C17.0414269,0.182789857 19.6144912,0.160051893 22.1877166,0.135540045 C24.8354208,0.110383149 27.4829639,0.082968583 30.1306681,0.0570053761 C32.2808799,0.036041296 34.4312529,-0.0137887098 36.5811423,0.00362760293 C38.7776213,0.0213664399 40.6661901,1.96199521 40.6855353,4.16741644 C40.6985932,5.65909137 40.6881146,7.1507663 40.6881146,8.64260249 C40.7371223,8.64260249 40.7859688,8.64260249 40.8349764,8.64260249 Z M27.4881226,23.6082142 C27.5650195,23.6003124 27.6130599,23.5912817 27.6611003,23.5909592 C30.5328857,23.5658023 33.4045099,23.5404841 36.2762952,23.5172624 C36.9727201,23.5116182 37.669145,23.5109731 38.3655699,23.512747 C38.5507995,23.5132308 38.6775102,23.4830748 38.6636462,23.2485996 C38.585782,21.9235085 38.6431726,20.5755181 38.4165121,19.2770353 C37.9430399,16.5649284 36.3580284,14.732829 33.6792108,13.9316786 C32.1394992,13.4711139 30.5706087,13.452085 28.997688,13.7183288 C26.1429908,14.2016315 24.1857467,15.7979655 23.2052707,18.52765 C22.4464578,20.6401843 22.4011579,22.8238351 22.8554462,24.9955525 C23.4495031,27.8360241 25.1438145,29.7585915 27.9195191,30.6874615 C29.2694871,31.1391568 30.6641102,31.2393006 32.0735645,31.2009202 C33.7841581,31.1541542 35.4636383,30.934999 37.0539697,30.2512474 C37.723795,29.9632332 37.7223441,29.9648458 37.7157345,29.2277165 C37.7118655,28.8047259 37.7160569,28.3817353 37.7162182,27.9587446 C37.7163794,27.4277084 37.7162182,26.8968333 37.7162182,26.3753115 C37.6365807,26.3624106 37.6086914,26.3483808 37.5898299,26.3561213 C37.3838042,26.4417515 37.1798743,26.5327034 36.9740098,26.6188174 C34.9601812,27.4615734 32.8752592,27.9093984 30.690871,27.6049355 C28.7300803,27.3314348 27.4998908,25.6881735 27.4881226,23.6082142 Z M19.2636994,26.2274341 C19.0918501,26.2733939 18.961754,26.3006472 18.8366555,26.3428978 C17.2340722,26.8848999 15.6074687,27.3215979 13.9097719,27.4230318 C11.3242945,27.5776822 9.29208803,26.6878376 8.30129467,24.0255607 C7.93889579,23.0516985 7.79396849,22.0321992 7.72900107,21.0007664 C7.61953985,19.2625217 7.72738898,17.5500789 8.37045353,15.9061725 C9.29370012,13.545617 11.369272,12.2827731 13.860603,12.5122491 C14.9131396,12.6091677 15.8995803,12.9102441 16.8728018,13.2856624 C17.3872212,13.4841762 17.8961595,13.6972035 18.429924,13.912811 C18.9498245,12.593364 19.4518308,11.319393 19.9573837,10.0363913 C17.0432002,8.72081463 14.0688856,8.15946107 10.9523843,8.74403638 C7.80960581,9.33344956 5.4245118,11.0018678 3.97814049,13.9041028 C3.23222431,15.4010994 2.86321585,16.997756 2.74279238,18.6637553 C2.59077185,20.7653237 2.73779488,22.8373811 3.36425486,24.8515454 C4.41743628,28.2382119 6.62004118,30.4283133 10.1495612,31.1383505 C12.9907167,31.7098636 15.7812525,31.4084646 18.5164935,30.5047515 C19.2830445,30.2515699 19.2746616,30.2351212 19.2651503,29.4362285 C19.2593467,28.9387347 19.2640218,28.4410797 19.2638606,27.9434247 C19.2636994,27.3852964 19.2636994,26.8273294 19.2636994,26.2274341 Z" id="Shape" fill="#00355F"></path>
                <path d="M84.8709598,61.7738585 C84.8709598,63.0426895 84.8638641,64.3116818 84.8724112,65.5805128 C84.8927306,68.614772 84.9178879,71.6490313 84.9465931,74.6831292 C84.9578817,75.87664 84.9961015,77.0699895 84.9999719,78.2636616 C85.0081964,80.7419706 83.2125093,82.6404592 80.7412826,82.7193277 C79.0512241,82.7733583 77.3585854,82.7522299 75.6672368,82.7646488 C72.2598661,82.7896481 68.8524954,82.8130344 65.4452859,82.8402916 C62.5854103,82.8631941 59.7255346,82.8906126 56.865659,82.9159344 C54.1675322,82.9398046 51.4684379,82.9286759 48.77144,82.9985124 C46.6132289,83.0544784 44.7436824,81.5245266 44.3868027,79.544589 C44.2666602,78.8783197 44.2695629,78.185277 44.2626285,77.5040081 C44.2426317,75.5261672 44.2524688,73.548165 44.2392451,71.5703241 C44.2195708,68.6354165 44.1903818,65.700509 44.1650631,62.7656014 C44.1402283,59.880531 44.1168449,56.9956219 44.0895911,54.1105515 C44.067014,51.7228848 44.0812053,49.3339278 44.0028304,46.9480352 C43.9239718,44.5429497 45.5042087,42.7996175 47.33102,42.4228552 C48.0396189,42.2767308 48.786599,42.2886659 49.5166462,42.2809242 C52.9488517,42.2451189 56.3812185,42.2291516 59.8135854,42.2028621 C62.7231307,42.1806048 65.6328372,42.1535088 68.5423825,42.1291548 C71.4769239,42.1044781 74.4114653,42.083511 77.3458455,42.0548023 C78.3397224,42.0451252 79.3335993,41.9972234 80.327315,42.0001266 C83.0002844,42.0080296 84.7256599,44.2053797 84.7200156,46.3301515 C84.7117911,49.4639237 84.777426,52.597696 84.7980679,55.7316295 C84.8114529,57.7457596 84.8004869,59.760051 84.8004869,61.7743424 C84.8240316,61.7740198 84.8475763,61.7740198 84.8709598,61.7738585 Z M59.5734616,68.6183203 C59.5005698,68.421391 59.4549317,68.3099429 59.4176795,68.1959143 C57.6495687,62.7739883 55.8798453,57.3525462 54.1217329,51.9272332 C54.0399715,51.6746605 53.9296662,51.6085336 53.6793827,51.6128883 C52.1873578,51.639339 50.6951717,51.6511129 49.2029855,51.664177 C48.6227536,51.6693381 48.0425217,51.6649834 47.4200383,51.6649834 C47.4827705,59.1282967 47.5450188,66.5211283 47.6069446,73.8904123 C49.0833268,73.8904123 50.5031049,73.8904123 51.9598127,73.8904123 C51.8859533,68.0631765 51.9936784,62.2904551 51.5521345,56.5220885 C51.6276066,56.5741836 51.6648588,56.6316011 51.6853395,56.6945024 C52.0143203,57.7089865 52.3405597,58.7242771 52.6685729,59.7390839 C54.1626943,64.3629705 55.6590733,68.9860506 57.1449702,73.6125178 C57.2131853,73.8250918 57.3122021,73.8792836 57.5137835,73.8749289 C58.0982083,73.8623486 58.6829556,73.8626712 59.2675417,73.8613809 C60.0733835,73.8596068 60.8792253,73.8608971 61.6682955,73.8608971 C63.5871892,68.0007591 65.4804417,62.2190058 67.3901432,56.3870927 C67.3901432,62.2215863 67.3901432,67.9822113 67.3901432,73.72574 C68.9369983,73.72574 70.4319259,73.72574 71.9426576,73.72574 C71.8781515,66.2832326 71.8142906,58.8995942 71.750107,51.4975693 C71.6199661,51.4859568 71.5238521,51.4688605 71.4277381,51.4699895 C69.4133754,51.4920856 67.3991741,51.5207944 65.3846502,51.5338585 C65.144849,51.5354714 65.1085643,51.6627254 65.0513152,51.8391715 C64.0634051,54.8813337 63.0709795,57.9218831 62.0779089,60.9624324 C61.2544892,63.4844498 60.428328,66.0056607 59.5734616,68.6183203 Z M81.8819108,56.6935347 C80.2541006,56.6935347 78.6841847,56.6935347 77.0926592,56.6935347 C77.1457154,62.4007742 77.1981266,68.049306 77.2505378,73.679935 C78.8702846,73.679935 80.431331,73.679935 82.0384992,73.679935 C81.9859268,67.9852757 81.9338381,62.3346473 81.8819108,56.6935347 Z M79.4950257,49.9901975 C79.4934131,49.9997133 79.4916391,50.0092291 79.4898652,50.0187449 C79.2911866,50.0279382 79.0920242,50.0311639 78.8938293,50.0474537 C77.7754557,50.1397089 77.0912078,50.7203357 76.9013988,51.7683672 C76.8510841,52.0462617 76.8543094,52.3396396 76.8731774,52.623179 C76.938006,53.6041159 77.4551832,54.2516761 78.4137431,54.4761852 C78.8546419,54.5794077 79.3258586,54.6206967 79.7782073,54.5960201 C81.2308835,54.5166678 81.9846366,53.7745944 82.0605925,52.4138308 C82.1255824,51.2495126 81.6111466,50.4306674 80.5966278,50.150515 C80.2416832,50.0524536 79.8628715,50.0411636 79.4950257,49.9901975 Z" id="Shape" fill="#00355F"></path>
                <path d="M84.9832866,20.6602019 C84.9832866,25.9384196 84.9503726,31.2169616 84.9998247,36.4946928 C85.0191191,38.5541885 83.4447597,40.7755121 80.8604431,40.9237192 C80.6233974,40.93734 80.3857032,40.9451233 80.1483333,40.9451233 C74.0324902,40.9475556 67.9168093,40.9472313 61.8009663,40.95015 C58.6118752,40.9517715 55.4227841,40.9556632 52.233693,40.9649059 C51.0212254,40.9684732 49.8089201,41.0017144 48.5966147,40.9999308 C45.9527935,40.9962013 44.0698856,39.0954527 44.0692371,36.4552898 C44.0676157,31.1019957 44.0651836,25.7488637 44.056266,20.3955695 C44.0509155,17.1693884 44.0324317,13.9432074 44.0202714,10.7170264 C44.0126509,8.67844837 44.0024362,6.63987036 44.0000042,4.60129236 C43.9967614,1.94037404 45.8916675,0.0525976224 48.5578637,0.0511382522 C55.1489331,0.0475709029 61.7398403,0.0467601416 68.3309096,0.038328225 C71.5443214,0.0342744189 74.7577332,0.0109244958 77.971145,0.00605992851 C79.0574692,0.00443840608 80.1483333,-0.0245868455 81.2289826,0.0605430823 C83.0134728,0.200966925 84.7045715,1.92269945 84.8894087,3.70394184 C84.9279976,4.07591909 84.945022,4.45162584 84.9453463,4.82571106 C84.9489134,10.1037666 84.9477784,15.3819843 84.9477784,20.6600398 C84.9592902,20.6602019 84.9712884,20.6602019 84.9832866,20.6602019 Z M45.3018097,23.9864309 C45.2818667,24.1745275 45.2674364,24.2473339 45.2674364,24.3201402 C45.2703549,28.3857834 45.2620859,32.4515888 45.2841366,36.5170698 C45.2945135,38.4398711 46.6791715,39.7640064 48.6102343,39.759304 C56.2401214,39.7404943 63.8700085,39.7192523 71.4997335,39.7006048 C74.5767873,39.6931458 77.6540032,39.7046586 80.7308949,39.6793629 C82.4250742,39.6654178 83.7743861,38.2585849 83.7737376,36.5618239 C83.7709812,30.4070112 83.7649821,24.2521984 83.7602801,18.0972236 C83.7597937,17.4912607 83.7602801,16.8851356 83.7602801,16.1946913 C83.4079544,16.3388447 83.1561542,16.4134347 82.9327281,16.5389405 C82.268449,16.9120528 81.6283284,17.3304056 80.9530239,17.6814652 C80.5275739,17.9026409 80.0624002,18.0561991 79.6024148,18.1993795 C79.3222405,18.2866174 79.2042041,18.3832601 79.3739625,18.6673509 C79.5445316,18.952901 79.45568,19.1635367 79.1643181,19.3039606 C78.2881247,19.726205 77.4137148,20.1518547 76.5362243,20.5715047 C76.0528911,20.8027338 75.5620995,21.0183963 75.0800635,21.2525441 C74.6040265,21.4837732 74.4762618,22.1489217 73.8752164,22.2306464 C73.8662988,22.2319436 73.8598133,22.2494561 73.8517064,22.2588609 C73.5640737,22.5881921 73.2503368,22.8988758 72.997888,23.2533406 C72.8373715,23.4787322 72.6989057,23.7626608 72.6740986,24.0316714 C72.6415089,24.3867848 72.6210795,24.6987657 72.3629559,24.9914505 C72.2442709,25.1260369 72.2398932,25.4130464 72.2732936,25.616061 C72.3081533,25.8278318 72.4365665,26.0301978 72.5492524,26.2218617 C72.8367229,26.7107508 73.0179932,27.2260706 73.0385847,27.8657612 C72.754519,27.7154461 72.5148791,27.6115065 72.2992357,27.4707583 C71.4947072,26.9455472 70.6958536,26.963384 69.8598704,27.4125457 C68.4521888,28.1686616 67.6020996,29.3345362 67.1824866,30.8589295 C66.9501429,31.7029319 66.6899115,32.5260167 66.8645341,33.4272588 C66.9285786,33.7580494 66.8442669,34.1220812 66.8022731,34.4677898 C66.7332024,35.0366199 66.6354332,35.6018826 66.5647411,36.1703883 C66.4846449,36.8141328 66.441192,37.4629039 66.3427742,38.1035674 C66.2839182,38.4868953 66.1042693,38.5752683 65.6159098,38.501489 C65.6947089,37.9276322 65.7856683,37.353289 65.8503613,36.776027 C65.9974204,35.4630803 66.1807984,34.1514308 66.2531119,32.8339438 C66.3002941,31.9764827 66.153235,31.1143192 65.7540514,30.3249621 C65.4602574,29.7439706 64.8913154,29.5240922 64.3466941,29.8209929 C63.8988691,30.0650321 63.441478,30.3183139 63.0585081,30.648618 C62.3780152,31.235447 61.7472986,31.8804886 61.1018275,32.5073692 C60.0396619,33.5388196 58.9260985,34.5272997 58.2339316,35.8746227 C58.2258247,35.8905136 58.193235,35.8939188 58.0727665,35.9466182 C57.9999666,35.6562036 57.8752825,35.3810312 57.8749582,35.1058589 C57.8744718,34.6896141 57.8918206,34.2492086 58.0262329,33.8624755 C58.2327967,33.2683496 58.5392374,32.7082758 58.8145476,32.1392836 C59.0421893,31.6690421 59.2800456,31.1702618 58.9744156,30.685913 C58.7380185,30.3111792 58.6546796,29.9719567 58.787957,29.5634952 C58.9017778,29.2148679 58.7725539,29.0269334 58.4121212,28.9512083 C57.9010625,28.8438635 57.469127,28.5923654 57.0869679,28.2247663 C56.4457123,27.6081013 55.6599919,27.3791423 54.7868791,27.5307547 C54.5921514,27.5646445 54.5002192,27.5451862 54.3828313,27.3981141 C54.1822667,27.146616 53.0242775,27.137049 52.8224158,27.3802774 C52.7546421,27.46184 52.7355099,27.5828055 52.6889763,27.6831778 C52.6448748,27.7785233 52.5938013,27.8706258 52.5458085,27.9641876 C52.431177,27.9051642 52.2773081,27.8753282 52.2088858,27.7822528 C51.9040665,27.368116 51.4914255,27.1644527 50.9964183,27.1299143 C50.4994656,27.0950516 49.99927,27.0691072 49.5023172,27.0871061 C49.3015905,27.094403 49.0956753,27.2103418 48.9097031,27.309579 C48.70395,27.4195182 48.5340295,27.6079391 48.3206559,27.6895017 C47.8642376,27.8641397 47.2450329,27.50027 47.0730045,26.9933821 C46.9486447,26.6269181 47.1164575,26.4482263 47.7175028,26.2255912 C47.8918011,26.1610547 48.0239435,25.9896597 48.1881892,25.8878281 C48.3013615,25.8176162 48.4351253,25.7439991 48.5617551,25.7401074 C48.8112853,25.7323241 49.0621127,25.7825913 49.3124537,25.7821049 C49.3555824,25.7821049 49.4510816,25.6110342 49.4327601,25.5865493 C49.3418007,25.465908 49.2388431,25.3217546 49.1071871,25.2705145 C48.5971011,25.0717159 48.0758277,24.9011317 47.5561756,24.7274667 C46.8262306,24.483914 46.0943399,24.2468474 45.3018097,23.9864309 Z M76.5832443,5.34962496 C76.1532545,6.03390743 75.5171873,6.62673603 74.8516111,7.19913345 C74.4092988,7.57938046 73.9679593,7.9721132 73.591475,8.41478882 C73.0338827,9.07037034 72.5388755,9.77865134 72.0075495,10.4569342 C71.8220637,10.6936765 71.6899213,10.9192302 71.7860691,11.2425618 C71.8121733,11.3302862 71.6975418,11.4747638 71.6229583,11.5749739 C71.2889542,12.0239735 70.8873385,12.4343808 70.6212701,12.9195403 C70.2997506,13.5057207 70.0808644,14.1499515 69.8360361,14.7761835 C69.7282144,15.0518423 69.8772191,15.3469594 70.1740937,15.4273869 C70.3981683,15.4880318 70.6428345,15.4693843 70.8769617,15.4975988 C71.0598533,15.5196515 71.300466,15.4972745 71.4112062,15.6034842 C71.7259159,15.9049253 72.0498675,15.8274165 72.3854931,15.7174773 C73.0961436,15.4847888 73.7996602,15.2303719 74.5138778,15.0093584 C74.6424532,14.9696311 74.8073474,15.0471399 74.9555415,15.070652 C74.8939291,15.2185348 74.8493412,15.3776062 74.7638945,15.5102467 C74.7152531,15.5856475 74.5955953,15.6120783 74.515337,15.6709396 C74.1125864,15.9655702 73.6967026,16.2447964 73.3158405,16.5655335 C72.9575157,16.8672988 73.0207495,17.0665839 73.4773299,17.201981 C73.9815789,17.3514854 74.4556703,17.2473837 74.9318694,17.0600978 C75.4067714,16.8734606 75.9069669,16.648069 76.4162422,16.845084 C77.4547357,17.2465729 78.4395615,17.0195598 79.4308729,16.6910393 C79.510969,16.6644464 79.6280326,16.6761213 79.7019675,16.7169837 C80.1651956,16.9726978 80.6357199,16.9506451 81.0535494,16.6712568 C81.7802516,16.1854486 82.578781,15.8794674 83.4029281,15.6260234 C83.6453243,15.5514334 83.7280147,15.4246303 83.7270419,15.1687541 C83.713098,11.5290848 83.7111523,7.88941555 83.7022347,4.24974629 C83.6985056,2.71254303 82.3573005,1.29630533 80.8197465,1.2434437 C79.8206525,1.20906742 78.8194507,1.23695761 77.8192218,1.23874128 C68.0392235,1.25641588 58.2592252,1.28852202 48.4792268,1.27992795 C46.6965202,1.27830643 45.188151,2.73021762 45.2312797,4.55799771 C45.2852716,6.84564156 45.2580324,9.13539339 45.2603024,11.4241723 C45.2641937,15.3393382 45.2638694,19.254342 45.2653286,23.1695079 C45.2653286,23.2990676 45.2653286,23.4287894 45.2653286,23.67445 C45.7410413,23.3991155 46.1304967,23.1847502 46.5084402,22.9518996 C46.9514011,22.6789974 47.3883628,22.3960417 47.8196497,22.1049784 C48.003352,21.980932 48.1982418,21.8507237 48.3315192,21.6793288 C48.7545371,21.1354702 49.1402632,20.5625863 49.5629568,20.0182412 C49.7268783,19.807119 49.8308087,19.6284272 49.5799813,19.3915228 C49.9935952,19.1406733 49.9243623,18.7969105 49.8880434,18.4181229 C49.8381049,17.8998843 49.800651,17.3552149 49.9050679,16.8523808 C50.1278454,15.7802302 50.4558505,14.7302944 50.7212703,13.6662514 C50.9862037,12.6038299 51.2482186,11.5396247 51.4698611,10.4676362 C51.5859519,9.906103 51.6474022,9.33711078 51.9590313,8.8613561 C52.1381937,9.09469318 52.312492,9.32138201 52.5109488,9.57985269 C52.5591038,9.4287268 52.5845594,9.3455427 52.6121229,9.26316936 C52.8892166,8.43440924 53.0870249,7.61732409 52.6649799,6.75694428 C52.5625087,6.54793004 52.5998004,6.17335836 52.726268,5.9705059 C52.9458028,5.61798692 53.3367173,5.36989399 53.2609989,4.82133295 C53.6605068,5.08450604 53.6997442,5.4285931 53.7384952,5.75435696 C53.7895686,6.18454686 53.9588406,6.5412818 54.2683619,6.84029054 C54.4570905,7.02254966 54.6420899,7.2098355 54.816226,7.40587756 C55.6012979,8.28928298 56.6574645,8.71039236 57.7262778,9.10053066 C57.9151685,9.16944536 58.155619,9.16198636 58.3568322,9.11836741 C58.6987811,9.04442598 58.9723078,9.09404457 59.1894105,9.43310491 C59.3011236,9.31165288 59.3737613,9.17317486 59.4853123,9.1251778 C59.6549085,9.05204714 59.8671471,8.9771328 60.0336628,9.01750871 C60.4002566,9.10604384 60.740422,9.30889629 61.1078266,9.3886752 C62.0824378,9.60060818 63.0734248,9.86556494 64.0689518,9.64552435 C64.8776958,9.46683258 65.6648755,9.17301271 66.444759,8.88454387 C67.7804513,8.39030383 68.8382392,7.45128019 69.9485598,6.60484548 C70.5175019,6.17125038 71.054827,5.69776583 71.0303442,4.86673558 C71.026615,4.74285127 71.2200456,4.59594133 71.3495938,4.49475833 C71.3964516,4.45811193 71.5534012,4.49427188 71.6093387,4.54907934 C71.8770285,4.81111736 71.8168753,5.32984239 71.5427,5.6051769 C71.4614689,5.68673948 71.4820605,5.86997151 71.4561184,6.00666585 C71.5808025,6.00472003 71.7320772,6.04801467 71.825955,5.99320722 C72.3543626,5.6846315 72.7953778,5.69046898 73.2483912,6.03682617 C73.4569006,5.94634522 73.654871,5.84775665 73.8615968,5.77349093 C74.3168802,5.60971716 74.7747577,5.45210518 75.2357159,5.30551955 C75.3730467,5.2619006 75.5261049,5.23936144 75.6692727,5.24844196 C75.9721464,5.26741377 76.2733987,5.31362716 76.5832443,5.34962496 Z M65.8339854,19.2441264 C65.9995282,18.9739808 66.2009035,18.6780529 66.364825,18.3626668 C66.4347064,18.2280804 66.5034529,18.0000944 66.4390842,17.9062082 C66.2524634,17.6336303 66.2954299,17.4024012 66.4215733,17.1366337 C66.5227473,16.9234035 66.5929531,16.6950931 66.6719142,16.4718095 C66.9253358,15.7546101 66.8040567,15.1108657 66.3458548,14.4982545 C66.0793001,14.1420061 65.8785733,13.7348418 65.6621192,13.3429198 C65.4140481,12.8937581 65.1063103,12.5151326 64.6080604,12.3280089 C64.0246881,12.1089412 63.6024809,12.2093135 63.1987575,12.6643127 C63.0993669,12.7763599 62.9999763,12.8901907 62.8877769,12.988455 C62.5519892,13.282437 62.5605825,13.3070842 62.9130704,13.5918235 C63.016028,13.6750076 63.1322809,13.8689417 63.1014747,13.9685032 C62.967873,14.4014497 62.4923225,14.5087944 62.1489143,14.2018402 C61.8990597,13.9785566 61.6649326,13.9602334 61.3717872,14.140871 C60.862674,14.4544734 60.3342665,14.7375913 59.8102367,15.0263844 C59.5850271,15.1504309 59.3701943,15.117514 59.3084198,14.8488277 C59.2471316,14.5825737 59.2725873,14.2973479 59.2273508,14.0257429 C59.2043272,13.8871027 59.141742,13.6881419 59.04073,13.6433879 C58.8301128,13.5503125 58.6991054,13.7144106 58.6306832,13.9115877 C58.6143072,13.9586119 58.6024712,14.0072575 58.5903108,14.0555789 C58.5296712,14.2968615 58.4413061,14.4896605 58.1385945,14.5214423 C58.0607683,14.5295499 57.9719167,14.7223489 57.9422455,14.8436388 C57.860528,15.1766995 57.84172,15.5284077 57.733574,15.8510907 C57.6205638,16.1883674 57.6218609,16.4943487 57.821777,16.77698 C57.9938054,17.0200462 58.2255005,17.2217636 58.3910433,17.4683972 C58.5251314,17.6681687 58.715157,17.929396 58.6781896,18.1247895 C58.5932293,18.5723297 58.8492451,18.7735606 59.1039638,19.0334906 C59.3230122,19.2569364 59.5537345,19.511029 59.6553949,19.7959305 C59.762406,20.0955878 59.8480148,20.2376332 60.1951521,20.1888254 C60.3715582,20.1640161 60.5747171,20.2733067 60.7546902,20.348221 C60.9147203,20.4148656 61.0502676,20.5544787 61.2135405,20.5966383 C61.5240347,20.6769036 61.6417468,20.8126251 61.6093192,21.1596309 C61.5673255,21.6091169 62.0316886,21.9056933 62.355478,21.6066846 C62.8592406,21.1414698 63.3818112,21.1505503 63.9953411,21.178927 C64.560554,21.2051956 65.1414942,21.0913648 65.7000594,20.9689398 C65.9367808,20.9170511 66.263813,20.725225 66.3244526,20.5278857 C66.4867527,19.9994316 66.8325929,19.8045246 67.3181961,19.6949096 C67.5627001,19.6396157 67.7869368,19.4951381 68.0204155,19.3908742 C68.0056609,19.3419042 67.9909064,19.2929342 67.976314,19.2439643 C67.2807422,19.2441264 66.5854947,19.2441264 65.8339854,19.2441264 Z M73.5262956,21.3673479 C73.4928952,21.3198373 73.4593326,21.2721645 73.4259322,21.2246539 C73.2368794,21.336539 73.0397196,21.4369112 72.8605572,21.5630656 C72.5367678,21.7910517 72.2374611,22.0560085 71.9039434,22.2676171 C70.9045251,22.9019567 69.8446294,23.4523014 68.8995274,24.1575015 C67.6727917,25.0726888 66.5302057,26.1013826 65.3647582,27.0968353 C65.2843378,27.1655878 65.315144,27.3643865 65.2942282,27.5028645 C65.4192365,27.4777309 65.5740783,27.4908652 65.6637405,27.4206533 C66.0163906,27.1448323 66.3309382,26.818582 66.6915329,26.5547603 C68.4033853,25.3019721 70.1351806,24.0762633 71.8389261,22.812773 C72.4320266,22.3725296 72.9654605,21.8515345 73.5262956,21.3673479 Z M59.8708763,26.1818101 C59.9970196,26.0392783 60.1803976,25.9230152 60.1912608,25.7923205 C60.2006648,25.6793003 60.0354463,25.4769343 59.9107622,25.4410987 C59.508498,25.325322 59.0906685,25.2601368 58.6755954,25.1952759 C58.5969585,25.1829523 58.4810299,25.2419757 58.4268758,25.3058637 C58.3970424,25.3410508 58.4364419,25.5015815 58.4845969,25.5259043 C58.9155595,25.7425397 59.3554398,25.9413384 59.8708763,26.1818101 Z M72.077431,8.99578031 C72.0720804,8.98442965 72.0665677,8.97324115 72.0612172,8.96189049 C71.9799861,9.03064304 71.8912966,9.09242305 71.8186588,9.16944536 C71.1769169,9.85048479 70.5335535,10.530227 69.9029991,11.221482 C69.7984201,11.3361236 69.7345378,11.4995731 69.688977,11.6515098 C69.6617378,11.7426393 69.70665,11.8553351 69.7191347,11.958464 C69.8084727,11.9135478 69.9286169,11.8916572 69.9824467,11.8199859 C70.6864496,10.882746 71.3807242,9.9383713 72.077431,8.99578031 Z M73.0299914,19.2141282 C73.0475023,19.2622875 73.0650132,19.3104467 73.0825241,19.3586059 C74.0276261,19.2027776 74.9625134,19.0116001 75.8293029,18.5835182 C75.8195746,18.5484933 75.8098463,18.5134684 75.8002802,18.4784435 C74.8767425,18.7236177 73.9533669,18.968954 73.0299914,19.2141282 Z M61.7635124,12.7954938 C61.5559759,12.9033251 61.3803805,12.9936439 61.2057579,13.086395 C61.1731682,13.1037452 61.132958,13.1245007 61.1185277,13.1544989 C61.0833438,13.2274674 61.034216,13.3103272 61.0437821,13.3823228 C61.0492948,13.4239959 61.1538738,13.4706958 61.2200261,13.4831815 C61.5905112,13.552907 61.7810233,13.3297855 61.7635124,12.7954938 Z M68.3026976,10.7348631 C68.9454124,10.6763262 69.3577292,10.3418061 69.3711866,9.91939949 C69.1934835,10.0410137 69.0250221,10.1470612 68.8670998,10.2668917 C68.7010705,10.3930462 68.5450938,10.5326593 68.3026976,10.7348631 Z M50.2946853,22.4675509 C50.3066836,22.5100347 50.3185196,22.5526808 50.3305178,22.5951647 C50.8538991,22.4518221 51.3771182,22.3084795 51.9004995,22.1649748 C51.8880149,22.1200586 51.8755302,22.0753046 51.8630456,22.0303884 C51.3401508,22.1761633 50.8174181,22.3219381 50.2946853,22.4675509 Z M50.8671944,21.6186839 C50.4683351,21.406913 50.1785946,21.5204196 49.8891784,21.9423397 C50.2562587,21.8208877 50.5617265,21.7197047 50.8671944,21.6186839 Z M52.9312104,11.3722836 C52.8632746,11.3536361 52.7953388,11.3349886 52.7275651,11.3163411 C52.6878413,11.576109 52.6481175,11.8357147 52.6082316,12.0954826 C52.6685469,12.105536 52.7288622,12.1157516 52.7891775,12.1258051 C52.8366839,11.8747934 52.8838661,11.6234574 52.9312104,11.3722836 Z M50.8595739,16.66623 C50.9168086,16.6795265 50.9742054,16.692823 51.0314401,16.7061195 C51.097106,16.4338659 51.1627719,16.1616123 51.2285999,15.8891965 C51.178175,15.8765486 51.1277501,15.8639007 51.0773252,15.8510907 C51.0046874,16.1228579 50.9320496,16.3944629 50.8595739,16.66623 Z" id="Shape" fill="#00355F"></path>
                <path d="M65.6792373,19.3887261 C66.4771501,19.3887261 67.2151678,19.3887261 67.9531854,19.3887261 C67.9688477,19.4402151 67.9845099,19.491704 68,19.5431929 C67.7521582,19.6526496 67.5141269,19.8047295 67.2545815,19.8628677 C66.7392771,19.9781211 66.3721615,20.183054 66.199705,20.7386913 C66.135335,20.946352 65.7883565,21.147875 65.5369004,21.2024328 C64.9439734,21.3311552 64.3272949,21.4506709 63.7273113,21.4232215 C63.0760382,21.3933852 62.5213201,21.3838376 61.9865671,21.8729826 C61.6428588,22.1873721 61.1501012,21.87554 61.1945062,21.4029328 C61.2289286,21.0380774 61.1039751,20.8953746 60.7743799,20.8109804 C60.6010628,20.7666522 60.4571769,20.6198575 60.287302,20.5497848 C60.0960852,20.471017 59.8804285,20.3561046 59.6933424,20.38219 C59.3248499,20.4335085 59.2338024,20.2841564 59.1203804,19.969085 C59.012466,19.6696989 58.7675501,19.4023656 58.5350263,19.1674259 C58.2646379,18.8941253 57.9928725,18.6827137 58.0830594,18.211982 C58.1224731,18.0063672 57.9205853,17.7317026 57.7782484,17.5218255 C57.6025217,17.2625053 57.3565732,17.0504118 57.173962,16.7948425 C56.9617475,16.4976728 56.9603706,16.1759521 57.0803329,15.8213263 C57.1951318,15.4820448 57.2150968,15.112245 57.3018415,14.762052 C57.333338,14.634523 57.4276556,14.4319771 57.5102695,14.423282 C57.8316032,14.3898653 57.9252323,14.1873194 57.9897745,13.933455 C58.0026829,13.882648 58.0152471,13.8315 58.0326304,13.782057 C58.1052618,13.5747373 58.2443286,13.4020277 58.4679025,13.5000612 C58.5751285,13.5469469 58.6413918,13.7563125 58.6660038,13.9020842 C58.7140232,14.1874899 58.6870015,14.4873874 58.75206,14.7675077 C58.8176348,15.050015 59.0456836,15.0846251 59.2847477,14.9541978 C59.8411869,14.6505494 60.4019288,14.3528683 60.9423616,14.0231344 C61.2535407,13.833205 61.5020709,13.8524707 61.767296,14.0872399 C62.1318299,14.4099835 62.6366354,14.2972875 62.778456,13.8419001 C62.8111573,13.7370468 62.6877528,13.5333074 62.5784614,13.4458444 C62.2042892,13.1462878 62.1951673,13.1205434 62.5516119,12.8114392 C62.6707137,12.7081203 62.7762185,12.5884341 62.8817234,12.4706233 C63.3102831,11.9922193 63.7584636,11.886684 64.3777238,12.1170204 C64.906625,12.3137695 65.2332942,12.7118712 65.4966261,13.1841373 C65.7263961,13.5962194 65.9394711,14.0241574 66.2224238,14.3989014 C66.7089854,15.0430248 66.8375533,15.7198828 66.5685417,16.4739742 C66.484723,16.7087434 66.4101984,16.9487978 66.3028003,17.1729964 C66.1688969,17.4524348 66.1232871,17.6953876 66.3213884,17.9821572 C66.389717,18.0810432 66.3167414,18.3205862 66.2425609,18.4620955 C66.0687275,18.7937048 65.854964,19.1046844 65.6792373,19.3887261 Z" id="Shape" fill="#FFFFFF"></path>
                <path d="M73,21.1365256 C72.4549967,21.5991012 71.9366211,22.0971641 71.359948,22.5177437 C69.7042975,23.7252441 68.0213889,24.8964823 66.3578603,26.0939098 C66.0074448,26.3460406 65.7019341,26.6579885 65.3590814,26.9214319 C65.2717926,26.9885325 65.1213219,26.9759802 65,27 C65.0203254,26.8678134 64.9903888,26.6776693 65.068539,26.6119634 C66.2010872,25.660623 67.3114192,24.6775143 68.5035254,23.8028824 C69.4221058,23.1289323 70.4520818,22.6029754 71.4231299,21.9967457 C71.7472328,21.7943592 72.0380904,21.5412986 72.3527396,21.3234155 C72.5266869,21.2028514 72.7184386,21.107082 72.9021546,21 C72.9349273,21.0455602 72.9673849,21.0911204 73,21.1365256 Z" id="Shape" fill="#FFFFFF"></path>
                <path d="M59.8192085,26 C59.5288452,25.7564869 59.2810453,25.5554736 59.0383604,25.3362462 C59.0111417,25.3116323 58.989038,25.1491808 59.0058441,25.1135728 C59.036351,25.0489204 59.1016576,24.9891907 59.1459565,25.0016618 C59.3796903,25.0672987 59.6151595,25.1332639 59.841769,25.2504259 C59.9120078,25.2866903 60.0050812,25.4914776 59.9997836,25.60585 C59.9935726,25.7381085 59.8902694,25.8557628 59.8192085,26 Z" id="Shape" fill="#FFFFFF"></path>
                <path d="M71,9.04502165 C70.418663,10.3032468 69.8393553,11.5638528 69.2520655,12.8151515 C69.2071496,12.9108225 69.1069004,12.9400433 69.0323561,13 C69.0219389,12.8625541 68.9844638,12.7119048 69.0071924,12.5902597 C69.0452086,12.3872294 69.0985125,12.1690476 69.1857739,12.0162338 C69.711913,11.09329 70.2487399,10.1861472 70.784214,9.27705628 C70.8446882,9.17424242 70.9188266,9.09177489 70.9866064,9 C70.9909356,9.01493506 70.9955355,9.02987013 71,9.04502165 Z" id="Shape" fill="#FFFFFF"></path>
                <path d="M73,19.8358511 C73.9895743,19.5572955 74.9793223,19.2785556 75.9688966,19 C75.9793223,19.0397937 75.989748,19.0795873 76,19.119381 C75.0710686,19.6055637 74.0691573,19.8227708 73.0562989,20 C73.0375326,19.9452837 73.0187663,19.8905674 73,19.8358511 Z" id="Shape" fill="#FFFFFF"></path>
                <path d="M61.9984399,13 C62.0229153,13.7632282 61.75885,14.0821858 61.2457638,13.9821206 C61.1543739,13.964285 61.0093176,13.8975749 61.001683,13.8380454 C60.9884349,13.7354323 61.0562476,13.6170683 61.1051984,13.5126021 C61.125183,13.4697502 61.1808702,13.4401012 61.2260038,13.4153166 C61.4676146,13.2830546 61.7110218,13.1540354 61.9984399,13 Z" id="Shape" fill="#FFFFFF"></path>
                <path d="M67,12 C67.2268933,11.7520382 67.3727424,11.5808312 67.528153,11.4261285 C67.6759751,11.2789819 67.8336622,11.149135 68,11 C67.987555,11.5179956 67.6016087,11.9282163 67,12 Z" id="Shape" fill="#FFFFFF"></path>
                <path d="M50,22.7737583 C50.325525,22.5159345 50.6511511,22.2578237 50.9766761,22 C50.9844507,22.0795291 50.9922254,22.1587712 51,22.2383003 C50.6740711,22.4921045 50.3482431,22.7459087 50.0223142,23 C50.0148425,22.9244904 50.0073708,22.8492679 50,22.7737583 Z" id="Shape" fill="#FFFFFF"></path>
                <path d="M50,21.2431751 C49.6876658,21.4793985 49.3753316,21.7160011 49,22 C49.2959218,21.0133976 49.5921751,20.7479781 50,21.2431751 Z" id="Shape" fill="#FFFFFF"></path>
                <path d="M53,11.0691106 C52.8534137,11.3794071 52.7068273,11.6897035 52.560241,12 C52.373494,11.9875801 52.186747,11.9749599 52,11.9625401 C52.122992,11.6416266 52.2459839,11.3209135 52.3694779,11 C52.5798193,11.0230369 52.7901606,11.0460737 53,11.0691106 Z" id="Shape" fill="#FFFFFF"></path>
                <path d="M51,16.9531576 C51.1968366,16.6355016 51.3932337,16.317656 51.5900703,16 C51.7267135,16.0147923 51.8633568,16.0295847 52,16.0445667 C51.8220562,16.3629812 51.6441125,16.6813958 51.4657293,17 C51.3101933,16.9842594 51.1550967,16.9687085 51,16.9531576 Z" id="Shape" fill="#FFFFFF"></path>
                <path d="M34,21 C31.9756379,21 30.0095096,21 28,21 C28.0888214,19.6493173 28.3617558,18.391293 29.3429083,17.6261831 C30.4006765,16.8014682 31.5516777,16.8021907 32.6287101,17.5645913 C33.6601554,18.2946608 33.970589,19.5436541 34,21 Z" id="Shape" fill="#00355F"></path>
                <path d="M81.4157763,19.0120534 C81.7517415,19.0329538 82.034968,19.0943754 81.9964882,19.563995 C81.9724628,19.8566009 81.8490151,20.0223114 81.5700859,19.9975721 C81.2386133,19.9681409 80.9938665,19.8252503 81.0001171,19.4044694 C81.0046096,19.0945887 81.1438789,18.95639 81.4157763,19.0120534 Z" id="Shape" fill="#00355F"></path>
            </g>
        </g>
    </g>
</svg>